<svg width="100" height="100" viewBox="0 0 100 100" fill="none" xmlns="http://www.w3.org/2000/svg">
<path d="M51.7092 74.4235L51.771 73.498H53.8509V72.3875H50.6805L50.4137 75.6201C50.4137 75.6201 51.0038 75.4647 51.7188 75.5057C52.344 75.5412 52.9308 75.8402 52.9492 76.3693C52.9646 76.8488 52.4793 77.1157 52.0392 77.1946C51.5668 77.2806 50.9274 77.1691 50.62 77.0439L50.3531 78.0833C50.7269 78.2784 51.6357 78.374 52.2225 78.2784C53.5264 78.0666 54.1754 77.3525 54.1754 76.2662C54.1754 75.3716 53.5209 74.3613 51.7092 74.4235Z" fill="white"/>
<path d="M56.9648 76.0185C56.9648 76.0185 58.7423 74.7543 58.7423 73.7469C58.7423 72.9467 58.0624 72.3274 56.9986 72.3274C56.2339 72.3274 55.5014 72.659 54.9935 73.0866L55.5565 74.0631C55.9658 73.6722 56.4749 73.4408 56.8896 73.4408C57.2722 73.4408 57.4994 73.6325 57.4894 73.9177C57.4656 74.578 55.1715 76.1948 55.1715 76.1948L55.0754 77.1202H58.8805L59.033 76.0185H56.9648Z" fill="white"/>
<path d="M47.1139 75.1243C46.6085 75.1243 46.3717 74.7067 46.3717 74.2564C46.3717 73.716 46.654 73.2913 47.118 73.2913C47.643 73.2913 47.9337 73.7837 47.9266 74.1988C47.9337 74.626 47.684 75.1243 47.1139 75.1243ZM47.1055 72.2175C45.9428 72.2246 45.1414 73.1388 45.1414 74.2481C45.1414 75.2751 45.8016 76.1062 46.8219 76.1062C47.3916 76.1062 47.8744 75.8831 48.1225 75.5319C48.1876 76.3434 47.8234 77.0233 46.9798 77.2108C46.6073 77.2944 46.0852 77.2351 45.8158 77.1206L45.5506 78.1593C45.9933 78.3552 46.7401 78.4032 47.293 78.2637C48.7068 77.9066 49.3077 76.789 49.3077 75.1089C49.3077 73.4976 48.5656 72.2121 47.1055 72.2175Z" fill="white"/>
<path d="M50.0006 0.81273C22.8785 0.81273 0.81273 22.8781 0.81273 49.9994C0.81273 77.1215 22.8785 99.1873 50.0006 99.1873C77.1232 99.1873 99.1873 77.1215 99.1873 49.9994C99.1873 22.8781 77.1232 0.81273 50.0006 0.81273ZM50.0006 100C22.4312 100 0 77.5701 0 49.9994C0 22.4295 22.4312 0 50.0006 0C77.5705 0 100 22.4295 100 49.9994C100 77.5701 77.5705 100 50.0006 100Z" fill="white"/>
<path d="M50.001 14.427C30.386 14.427 14.4271 30.3848 14.4271 49.9998C14.4271 69.6144 30.386 85.5721 50.001 85.5721C69.6144 85.5721 85.5734 69.6144 85.5734 49.9998C85.5734 30.3848 69.6144 14.427 50.001 14.427ZM50.001 86.3848C29.9375 86.3848 13.6156 70.0629 13.6156 49.9998C13.6156 29.9375 29.9375 13.6143 50.001 13.6143C70.0629 13.6143 86.3844 29.9375 86.3844 49.9998C86.3844 70.0629 70.0629 86.3848 50.001 86.3848Z" fill="white"/>
<path d="M49.999 40.1083C49.999 40.1083 58.5168 47.9688 69.7677 54.6565L69.7706 47.3168C57.466 39.5328 49.999 32.0069 49.999 32.0069C49.999 32.0069 42.534 39.5328 30.229 47.3168L30.2319 54.6565C41.4815 47.9688 49.999 40.1083 49.999 40.1083Z" fill="white"/>
<path d="M49.9998 27.0069C49.9998 27.0069 56.7184 33.7823 64.9301 39.0141L64.933 31.9439C55.8409 25.4069 49.9998 18.9055 49.9998 18.9055C49.9998 18.9055 44.1586 25.4069 35.0678 31.9439L35.0707 39.0141C43.2824 33.7823 49.9998 27.0069 49.9998 27.0069Z" fill="white"/>
<path d="M49.999 62.5027C47.0713 60.1593 41.4009 60.0128 41.4009 60.0128L49.999 53.2106L58.5986 60.0128C58.5986 60.0128 52.9283 60.1593 49.999 62.5027ZM76.1551 60.628H70.6101C60.8689 55.331 49.999 45.1088 49.999 45.1088C49.999 45.1088 39.1306 55.331 29.3883 60.628H23.8432L20.5543 66.3321C20.5543 66.3321 22.744 67.499 27.2082 66.9644C28.852 66.7681 32.6446 65.95 36.9622 65.8213C40.1551 65.7257 44.1507 66.2519 46.16 68.2583L49.999 68.2566L53.8396 68.2583C55.8489 66.2519 59.8445 65.7257 63.0374 65.8213C67.355 65.95 71.1476 66.7681 72.7914 66.9644C77.2556 67.499 79.4453 66.3321 79.4453 66.3321L76.1551 60.628Z" fill="white"/>
<path d="M14.7106 73.6408L13.8031 73.6805C13.8031 73.6805 13.8302 74.0217 14.2224 74.5016C14.2704 74.558 14.3393 74.6357 14.4241 74.7288L13.4013 75.3808C12.9837 75.159 12.4842 74.6528 12.2131 74.2281C11.3891 72.9342 11.6798 71.9026 12.7477 71.221C13.8315 70.5298 15.0067 70.8501 15.7263 71.979C16.1185 72.5942 16.3119 73.4111 16.1991 74.0205L17.2077 74.1023C17.3293 73.3151 17.092 72.3006 16.5378 71.4624C15.3425 69.6565 13.6411 69.3771 12.178 70.3097C10.7134 71.2423 10.1688 72.8762 11.3315 74.6992C11.8423 75.5006 12.6746 76.2048 13.3971 76.4729L15.6148 75.0604L15.1212 74.2857L14.7106 73.6408Z" fill="white"/>
<path d="M10.3087 52.8021L10.3045 52.7595L10.282 52.5014C10.282 52.5014 10.0234 52.5891 9.96873 52.8318L4.34308 53.3242L4.43622 54.3837L10.4002 53.8617L10.3087 52.8021Z" fill="white"/>
<path d="M11.5954 60.3812L11.5842 60.3402L11.5119 60.0905C11.5119 60.0905 11.2751 60.2258 11.268 60.4743L5.83572 62.0179L6.1264 63.042L11.8861 61.4052L11.5954 60.3812Z" fill="white"/>
<path d="M10.9598 57.661L10.9527 57.6188L10.9076 57.3649C10.9076 57.3649 10.6578 57.4735 10.624 57.7203L10.0147 57.8289L9.69559 57.8853L6.93998 58.3722C6.38576 58.4696 5.91592 58.1831 5.81568 57.6188C5.73257 57.1461 5.91425 56.6394 6.27426 56.1671L5.43187 55.7198C4.98625 56.2306 4.69974 56.9527 4.84341 57.7612C5.05934 58.9904 5.88752 59.6394 7.10119 59.4247L11.1461 58.7093L10.9598 57.661Z" fill="white"/>
<path d="M12.2252 62.6352C12.2252 62.6352 12.0064 62.7976 12.0277 63.0457L6.81969 65.2312L7.23191 66.2118L10.9907 64.6344L12.7515 63.8881L12.2252 62.6352Z" fill="white"/>
<path d="M14.0645 67.0183L10.0802 68.6918L9.66384 68.8651C9.66384 68.8651 10.0928 68.5815 10.4582 67.8352C11.0776 66.533 11.8469 65.2801 12.3192 64.5463C11.6969 64.6407 10.8028 64.9539 10.2155 65.9249C9.72482 66.794 9.08416 68.0256 8.55793 69.3705L8.95427 70.3168L14.4768 68.0002L14.0645 67.0183Z" fill="white"/>
<path d="M5.85786 42.4392L6.22079 40.4583L7.78235 40.7432L7.42151 42.724C7.29873 43.4407 6.97839 43.8964 6.46177 43.802C5.91006 43.7017 5.71962 43.1529 5.85786 42.4392ZM7.83624 43.8964C7.88009 44.5654 8.30441 45.0436 8.95217 45.1622C9.86222 45.3272 10.5676 44.6556 10.7961 43.4027L11.2254 41.0576C11.3056 40.6091 11.3904 40.2787 11.3904 40.2787C11.3904 40.2787 10.4193 40.2746 9.98082 42.5181C9.9328 42.7804 9.8877 43.0206 9.86222 43.1713C9.76073 43.7527 9.42327 44.1281 8.948 44.0404C8.45977 43.9515 8.25805 43.4775 8.36371 42.8978L8.7279 40.9152L10.0472 41.1566C10.2786 40.4779 10.685 40.1915 10.685 40.1915L10.2744 40.1167L5.46862 39.2392L4.89018 42.4008C4.64461 43.7485 5.10735 44.6936 6.11763 44.8787C6.89946 45.0211 7.54973 44.6527 7.83624 43.8964Z" fill="white"/>
<path d="M5.32245 47.3573L6.87733 47.4167L6.74744 50.8818L7.70551 50.9186L7.8354 47.4522L9.20527 47.5027C9.21654 47.4451 9.22949 47.3899 9.24202 47.3377C9.24495 47.3235 9.24912 47.311 9.25204 47.2985C9.26624 47.2488 9.28003 47.2024 9.29423 47.1573L9.29715 47.1515C9.31386 47.1022 9.33223 47.0571 9.34935 47.0132L9.35896 46.9919C9.37734 46.9497 9.39571 46.9101 9.41283 46.8737C9.554 46.5943 9.69934 46.4561 9.69934 46.4561L9.42954 46.446L9.2842 46.4419L7.87633 46.388L6.917 46.3529L5.36212 46.2953L4.40405 46.2585L4.36312 47.3223L4.21777 51.2264L5.17585 51.2631L5.32245 47.3573Z" fill="white"/>
<path d="M10.3659 47.0571C10.3843 46.6945 10.4098 46.4419 10.4098 46.4419C10.4098 46.4419 9.45419 46.5759 9.33725 48.8504L9.24536 51.3099L10.2064 51.3462L10.3659 47.0571Z" fill="white"/>
<path d="M52.1828 89.8839L46.9569 89.8275L46.9456 90.7885L49.0279 90.8094L48.9732 95.8395L50.037 95.8508L50.0921 90.8223L52.1732 90.8432L52.1828 89.8839Z" fill="white"/>
<path d="M27.0699 86.2003C26.3562 87.2398 25.2415 87.4261 24.2412 86.7503C23.2523 86.0604 23.028 84.9444 23.743 83.9045C24.4555 82.8633 25.579 82.6712 26.5775 83.3474C27.5694 84.0373 27.7854 85.1604 27.0699 86.2003ZM27.1451 82.5217C25.6633 81.506 23.9126 81.7557 22.8555 83.2952C21.7989 84.8342 22.1952 86.5586 23.6753 87.5756C25.1567 88.5917 26.9008 88.3474 27.9574 86.8096C29.0145 85.2689 28.6248 83.5403 27.1451 82.5217Z" fill="white"/>
<path d="M63.0064 87.7096C63.0064 87.7096 62.4109 89.2307 62.0864 90.9142C60.9011 89.6767 59.5734 88.7228 59.5734 88.7228L58.4913 89.0431C58.4913 89.0431 60.344 90.4047 61.8479 91.985L62.476 94.1125L62.9851 93.9617L63.4976 93.8105L62.8682 91.6831C63.2729 89.5397 64.0898 87.3897 64.0898 87.3897L63.0064 87.7096Z" fill="white"/>
<path d="M42.6413 90.8494C42.7036 90.484 43.2215 90.3019 43.6871 90.3808C44.1428 90.4585 44.6506 90.649 45.3573 91.2286L45.9428 90.375L46.1379 90.0914C45.9107 90.0096 45.7286 90.1027 45.6638 90.1453C45.1923 89.794 44.5955 89.5372 43.9465 89.4269C42.6217 89.2027 41.6227 89.7135 41.4465 90.7505C41.0852 92.8683 44.4418 92.713 44.2317 93.9534C44.1595 94.3693 43.5894 94.5827 43.0323 94.4896C42.4004 94.3806 41.6298 93.9279 41.1149 93.2801L40.508 94.1213C41.0443 94.7983 41.9063 95.2977 42.8502 95.4585C44.1482 95.6803 45.2207 95.1979 45.4112 94.0832C45.782 91.9524 42.4354 92.0556 42.6413 90.8494Z" fill="white"/>
<path d="M32.3932 91.2307V91.2136C32.389 91.1376 32.3845 91.0587 32.3819 90.9797C32.3126 90.0793 31.915 89.8888 31.915 89.8888C32.1744 89.954 32.3974 89.9678 32.3974 89.9678C33.1141 90.0538 33.8308 89.6984 34.2091 88.9675C34.7792 87.8712 34.2668 86.7891 32.9433 86.1004L31.1077 85.1469C30.7013 84.9381 30.4123 84.7602 30.4123 84.7602C30.4123 84.7602 30.1242 85.6802 32.128 86.7582L32.3565 86.8764C32.3552 86.8764 32.3565 86.878 32.3565 86.8764L32.4989 86.9516C33.3313 87.3847 33.5797 87.9476 33.2807 88.5231C32.9842 89.0932 32.3606 89.1721 31.5609 88.7574L30.0018 87.946L30.855 86.3025C30.3205 85.9158 30.1467 85.4852 30.1242 85.4192L30.1187 85.4121L27.6751 90.1119L28.619 90.603L29.557 88.7967L31.1825 89.6408C31.2489 89.6758 31.3646 89.7251 31.428 89.7493C31.3178 90.9952 31.4732 92.0856 31.4732 92.0856L32.5386 92.6403C32.5386 92.6403 32.4354 92.0096 32.3932 91.2307Z" fill="white"/>
<path d="M58.3159 93.9371C58.3117 93.9312 58.3088 93.9283 58.3059 93.9241C58.2578 93.8635 58.2115 93.8013 58.1635 93.7379C57.5863 93.0408 57.1519 93.1156 57.1519 93.1156C57.4 93.0212 57.5904 92.9026 57.5904 92.9026C58.2269 92.5597 58.6066 91.8559 58.4951 91.0403C58.3284 89.817 57.2856 89.2273 55.8071 89.429L53.7586 89.7068C53.3054 89.7702 52.9655 89.7928 52.9655 89.7928C52.9655 89.7928 53.262 90.7099 55.5206 90.4364L55.7745 90.4009L55.9353 90.38C56.8654 90.253 57.3929 90.5705 57.4789 91.2136C57.5666 91.8489 57.1022 92.2748 56.2106 92.396L54.4669 92.6332L54.2172 90.7976C53.5581 90.7905 53.1689 90.5379 53.1108 90.4969L53.1025 90.4957L53.8162 95.7442L54.8716 95.6005L54.5964 93.5842L56.4081 93.3373C56.4845 93.3261 56.6073 93.2993 56.6733 93.2822C57.3027 94.3643 58.0561 95.167 58.0561 95.167L59.2456 95.005C59.2456 95.005 58.7995 94.5493 58.3159 93.9371Z" fill="white"/>
<path d="M20.6641 78.5206C20.231 77.9476 20.2239 77.451 20.2239 77.451L20.0335 77.6431L18.9414 78.752L18.2698 79.4361L16.5048 81.2282L17.2641 81.9745L19.0274 80.1828L21.4994 82.6164L22.1727 81.9323L19.7006 79.4983L20.6641 78.5206Z" fill="white"/>
<path d="M21.1578 77.4047C20.8796 77.1266 20.6934 76.9165 20.6934 76.9165C20.6934 76.9165 20.1475 77.7121 21.7487 79.3317L23.5012 81.0574L24.1757 80.3733L21.1578 77.4047Z" fill="white"/>
<path d="M35.4984 92.4282L36.0075 90.9581L39.2868 92.0953L39.6001 91.1894L36.3237 90.0522L36.7722 88.7571C36.72 88.7299 36.6707 88.702 36.6243 88.6736C36.6131 88.6652 36.6018 88.6598 36.5889 88.651C36.5467 88.6243 36.507 88.5975 36.4677 88.5708L36.4636 88.5666C36.4197 88.5353 36.383 88.5057 36.3462 88.476L36.3278 88.4606C36.2927 88.4309 36.2602 88.4013 36.2322 88.3733C36.0033 88.1586 35.916 87.9794 35.916 87.9794L35.8271 88.2334L35.779 88.3716L35.3176 89.7039L35.0031 90.6093L34.4935 92.0782L34.1778 92.987L35.1835 93.3353L38.8775 94.615L39.1908 93.7095L35.4984 92.4282Z" fill="white"/>
<path d="M36.6849 87.5154C36.3449 87.3943 36.1107 87.2941 36.1107 87.2941C36.1107 87.2941 35.9582 88.2463 38.1003 89.0223L40.4253 89.8296L40.7398 88.922L36.6849 87.5154Z" fill="white"/>
<path d="M89.5535 45.4588L89.8287 50.813L90.7881 50.7653L90.6782 48.6178L95.6995 48.361L95.6461 47.2972L90.6231 47.5553L90.5132 45.4095L89.5535 45.4588Z" fill="white"/>
<path d="M79.1383 77.1671L79.1087 77.198L78.9337 77.3884C78.9337 77.3884 79.1721 77.5212 79.3893 77.3968L83.5486 81.2161L84.2699 80.4318L79.8579 76.3823L79.1383 77.1671Z" fill="white"/>
<path d="M89.6721 52.8857L89.6708 52.9279L89.6566 53.186C89.6566 53.186 89.9248 53.1367 90.0121 52.9024L95.6515 53.196L95.7066 52.1336L89.7272 51.8233L89.6721 52.8857Z" fill="white"/>
<path d="M83.458 71.6722C83.458 71.6722 84.6712 74.0197 86.4095 76.1885C83.795 75.2417 81.1818 74.8508 81.1818 74.8508L80.5458 75.7412C80.5458 75.7412 83.5779 76.2758 86.7778 77.3228L87.1049 76.8655L87.2744 76.6287L87.6031 76.1701C85.58 73.4809 84.0941 70.7817 84.0941 70.7817L83.458 71.6722Z" fill="white"/>
<path d="M88.5449 40.1614C88.5449 40.1614 90.0096 40.8856 91.6576 41.3525C90.3245 42.4275 89.262 43.6679 89.262 43.6679L89.4875 44.7755C89.4875 44.7755 91.0015 43.0439 92.7046 41.6824L94.8772 41.238L94.7715 40.7177L94.6659 40.1956L92.4916 40.6383C90.3921 40.0528 88.3194 39.0554 88.3194 39.0554L88.5449 40.1614Z" fill="white"/>
<path d="M90.5137 57.7383C90.1499 57.6665 89.982 57.1445 90.0735 56.68C90.1641 56.2261 90.3683 55.7249 90.9668 55.0337L90.1298 54.4243L89.8509 54.2239C89.7644 54.4469 89.8509 54.6302 89.893 54.6979C89.5288 55.1594 89.2553 55.7491 89.1283 56.3952C88.8656 57.7128 89.3514 58.726 90.3825 58.9307C92.4879 59.3483 92.4244 55.9888 93.6602 56.2344C94.0736 56.3162 94.2724 56.8918 94.1626 57.4464C94.0369 58.0758 93.5629 58.8317 92.9009 59.33L93.7249 59.9593C94.4178 59.4427 94.9415 58.5949 95.1274 57.6552C95.3842 56.3626 94.9315 55.2776 93.8239 55.0591C91.7018 54.6285 91.7144 57.9768 90.5137 57.7383Z" fill="white"/>
<path d="M73.6835 82.114C73.6835 82.114 73.9048 82.2723 74.1349 82.1745L77.8244 86.4529L78.63 85.7571L75.9663 82.6699L74.7121 81.2265L73.6835 82.114Z" fill="white"/>
<path d="M77.2827 79.0089L80.106 82.2823L80.4008 82.624C80.4008 82.624 79.9987 82.302 79.1747 82.185C77.7455 82 76.3163 81.6575 75.4722 81.4345C75.7546 81.9958 76.3288 82.7492 77.4322 83.0078C78.4129 83.2066 79.7815 83.435 81.2236 83.5198L82.0021 82.8495L78.0884 78.3135L77.2827 79.0089Z" fill="white"/>
<path d="M73.7303 87.6006C74.5868 86.6287 74.0944 85.4489 73.8489 84.9949L72.5876 82.8754L71.6734 83.42L73.4834 86.4633C73.7106 86.8459 73.7879 87.2393 73.7303 87.6006Z" fill="white"/>
<path d="M74.5994 86.5231C74.5768 87.9017 72.9021 88.7102 72.9021 88.7102C72.1374 89.1166 71.2398 88.8823 70.7633 88.0808L68.9528 85.0362L68.0428 85.5792L69.8533 88.6226C70.6685 89.9958 72.0568 90.3215 73.4621 89.4862C74.464 88.8907 74.9255 88.0215 74.8069 87.0706C74.7476 86.7319 74.5994 86.5231 74.5994 86.5231Z" fill="white"/>
<path d="M93.0725 61.865L93.0558 61.868C92.9823 61.8851 92.9046 61.9006 92.827 61.916C91.9466 62.1261 91.8225 62.5496 91.8225 62.5496C91.8464 62.2844 91.8255 62.0597 91.8255 62.0597C91.7971 61.3388 91.3331 60.6886 90.5512 60.4288C89.3789 60.0395 88.3912 60.7165 87.9201 62.1319L87.2682 64.0944C87.1241 64.5275 86.9942 64.8437 86.9942 64.8437C86.9942 64.8437 87.9493 64.9819 88.6973 62.8332L88.7792 62.5888L88.8301 62.4351C89.1262 61.5447 89.6424 61.2119 90.2593 61.4165C90.8686 61.6182 91.0453 62.2234 90.7613 63.0771L90.2071 64.7464L88.4488 64.1621C88.1515 64.7505 87.7535 64.989 87.6929 65.0241L87.687 65.03L92.713 66.7005L93.0471 65.6902L91.1171 65.0483L91.6927 63.3126C91.7181 63.2408 91.7478 63.118 91.7603 63.0503C93.0091 62.963 94.0632 62.6398 94.0632 62.6398L94.4412 61.5013C94.4412 61.5013 93.8343 61.7001 93.0725 61.865Z" fill="white"/>
<path d="M89.4086 71.3777L88.0203 70.6794L89.5777 67.5809L88.7199 67.1495L87.1625 70.2492L85.9376 69.6328C85.9037 69.6804 85.8686 69.7255 85.8348 69.7681L85.8093 69.799C85.7768 69.8387 85.7446 69.8754 85.712 69.9092L85.7078 69.9147C85.6723 69.9527 85.6373 69.9865 85.6034 70.0191C85.5963 70.0249 85.5851 70.0345 85.5851 70.0345C85.5525 70.0642 85.5187 70.0926 85.4877 70.1193C85.2434 70.3156 85.0546 70.3791 85.0546 70.3791L85.2944 70.5002L85.4255 70.5666L86.6843 71.2002L87.5421 71.6304L88.9304 72.3286L89.7895 72.7592L90.2664 71.8095L92.0218 68.3176L91.1639 67.8858L89.4086 71.3777Z" fill="white"/>
<path d="M84.6951 69.5564C84.5301 69.878 84.4002 70.0968 84.4002 70.0968C84.4002 70.0968 85.3244 70.3716 86.3744 68.3515L87.482 66.1518L86.6225 65.7211L84.6951 69.5564Z" fill="white"/>
<path d="M43.0477 72.395L41.236 73.1715L41.682 74.0347L42.4634 73.8159L42.458 77.1203H43.7815V72.395H43.0477Z" fill="white"/>
<path d="M18.3692 18.2894C18.2761 18.4715 18.1925 18.2656 18.1842 17.9762C18.1771 17.6813 18.1616 17.4274 17.9795 17.1776C17.8016 16.9333 17.6663 16.8828 17.3969 16.4706C17.1217 16.0571 16.1285 16.4848 15.9477 17.0436C15.7614 17.6066 16.6193 18.1821 17.1543 18.4982C17.6905 18.8156 18.0175 19.5198 18.4577 20.1701C18.9009 20.8191 18.6553 21.0208 18.4239 21.4343C18.1955 21.849 18.0626 21.6631 17.6776 21.3269C17.2938 20.9886 17.394 21.21 17.0937 20.9502C15.9648 19.9683 15.7602 19.4137 15.7602 19.4137C15.7602 19.4137 15.6048 18.9426 15.2465 19.0245C14.8881 19.1092 14.7019 18.7664 13.9627 19.085C13.2247 19.4053 12.6955 20.4566 13.195 21.2651C13.6945 22.0749 14.245 21.948 14.5073 21.7788C14.7612 21.6063 15.7827 22.0453 16.0225 22.2487C16.2597 22.4558 15.7418 22.6183 15.6119 23.4222C15.4766 24.2266 16.0225 24.3097 16.3528 24.5227C16.707 24.7529 16.8339 24.4296 17.0202 24.3974C17.2077 24.3607 17.3714 24.4183 17.5026 24.2717C17.6337 24.121 17.7427 23.8457 17.8709 23.799C17.9967 23.7568 18.4803 24.2279 18.3704 24.458C18.256 24.6865 17.7949 25.1676 18.0982 25.7982C18.5454 26.7266 19.3707 26.5195 19.7219 26.1257C20.069 25.7251 19.8322 25.097 20.0084 25.1438C20.9256 25.3977 21.3883 24.97 21.466 24.382C21.545 23.7894 20.8454 23.332 20.5138 23.2335C20.1793 23.1403 20.0465 22.9908 19.8293 22.8367C19.6092 22.6889 19.2805 22.1397 19.2354 21.6631C19.1928 21.182 19.3991 21.1001 19.5131 21.2C19.6221 21.2948 19.9395 21.6585 20.4599 21.7884C20.9861 21.9196 21.2079 21.7404 21.3445 21.6828C21.4802 21.6289 21.4631 22.0256 21.4631 22.0256C21.4631 22.0256 21.8302 21.6264 22.0177 21.4159C22.2023 21.2 22.455 20.7669 22.5339 20.5539C22.6145 20.3354 22.4905 20.0544 22.1869 19.8948C21.8807 19.7382 21.6197 19.8401 21.4334 20.0276C21.2459 20.2152 20.69 21.0083 20.3981 20.8333C20.2386 20.7372 19.8577 20.0544 19.7011 19.6747C19.5499 19.2997 19.6727 19.0554 19.866 18.6139C20.0565 18.1625 20.4332 17.8321 19.8335 17.4416C19.2337 17.0507 18.4623 18.1073 18.3692 18.2894Z" fill="white"/>
<path d="M30.2461 16.628C30.2077 16.6564 30.1726 16.6819 30.1371 16.7057C29.7917 16.9542 29.8059 17.0979 29.9976 17.3084C30.2106 17.5326 30.2135 17.6287 30.4846 17.7047C30.4846 17.7047 30.7143 17.678 30.8768 17.5807C30.9118 17.5565 30.9498 17.5339 30.9812 17.5059C31.1023 17.4044 31.1858 17.2545 31.063 16.9596C30.9135 16.5829 30.7047 16.3348 30.2461 16.628Z" fill="white"/>
<path d="M29.8857 13.3157C29.9195 13.2297 29.9533 13.1478 29.9604 13.0931C29.993 12.9039 30.2992 13.086 30.2536 13.213C30.2327 13.2706 30.145 13.375 30.0494 13.4698C29.9421 13.5839 29.8222 13.6924 29.7938 13.7096C29.6681 13.7885 29.7925 13.5333 29.8857 13.3157ZM29.6614 9.13387C29.1055 9.36107 28.5451 10.1187 28.0556 11.0187C27.9892 11.1361 27.9228 11.2659 27.8593 11.3983C27.5477 12.0515 27.2428 12.8262 26.8774 13.4924C26.7634 13.7025 26.6406 13.9042 26.5161 14.0834C25.8985 14.9512 25.8504 14.5787 25.7147 14.8635C25.5906 15.1133 25.5723 15.6282 25.7656 15.8387L25.7982 15.8696C25.8149 15.8796 25.8362 15.8951 25.8546 15.9051C25.9068 15.9277 26.3683 16.1206 26.5813 16.0797C26.7955 16.0459 26.6982 15.9753 26.9634 15.8696C27.2261 15.764 27.2328 15.685 27.4926 15.3647C27.6789 15.1387 27.985 13.4456 28.0359 13.1775C28.0923 12.9081 28.8245 11.6101 28.8838 11.661C28.9585 11.7258 28.8712 11.8527 28.908 12.1192C28.9176 12.1914 28.9163 12.2846 28.9051 12.386C28.8796 12.6755 28.8077 13.0589 28.8428 13.3638C28.8896 13.7689 28.8261 13.9919 29.2112 14.6296C29.6004 15.2686 30.0323 14.5687 30.079 14.5561C30.1267 14.5461 30.1747 14.5912 30.3401 14.7817C30.5134 14.9679 30.8705 15.5338 31.0075 15.7255C31.2134 16.0162 31.3925 16.2363 31.2781 16.3762C31.2276 16.4426 31.1161 16.547 31.1202 16.6569C31.1244 16.7968 31.2614 16.9375 31.3955 16.9968C31.6435 17.1012 31.6703 17.3243 31.9526 17.3723C32.2391 17.4161 32.6283 16.9208 32.5256 16.7488C32.4166 16.5779 32.0796 15.9598 31.9609 15.7623C31.8398 15.5622 31.786 15.1838 31.7901 15.1191C31.7901 15.1191 31.8144 15.0936 31.8791 15.2035C31.9146 15.2615 31.9585 15.3363 32.0219 15.4181C32.0967 15.5184 32.2149 15.6128 32.3715 15.6692C32.5862 15.7485 32.8614 15.7552 33.1913 15.5986C33.7531 15.3279 33.6992 14.5236 32.9729 14.491C32.242 14.463 31.92 14.803 31.7789 15.0189C31.7651 15.0385 31.6999 15.0824 31.6887 15.0949C31.6126 15.1922 31.2046 13.9819 31.1866 13.7743C31.1724 13.5684 31.4134 13.4924 31.357 13.2172C31.3007 12.9432 31.0977 12.8459 31.0793 12.6934C31.0568 12.5143 31.2501 12.2282 31.0058 11.826C30.7661 11.4292 30.3835 11.5537 29.9717 11.8924C29.7558 12.0728 29.3298 13.3216 29.2646 13.213C29.1845 13.0814 29.1519 12.8643 29.1506 12.6204C29.1477 12.1944 29.2279 11.6974 29.2859 11.4873C29.3791 11.1628 29.9617 10.35 30.4077 9.8802C30.8509 9.4116 30.2114 8.90375 29.6614 9.13387Z" fill="white"/>
<path d="M27.6576 9.16437C27.6576 9.16437 27.828 8.93592 27.9959 8.70455C28.1637 8.47442 28.1637 8.29399 28.0243 7.99454C27.8777 7.69969 27.3427 7.53764 26.7868 7.81996C26.2309 8.10187 26.2915 8.44895 26.5951 8.88204C26.897 9.32098 27.412 9.2433 27.6576 9.16437Z" fill="white"/>
<path d="M47.8155 9.30842C47.5545 9.33515 46.979 9.30131 46.5033 9.20818C46.0334 9.11671 45.4437 8.78928 45.4479 8.68195C45.4537 8.57336 45.2366 7.51506 45.2224 7.37682C45.2094 7.2415 45.9699 6.83639 46.0773 6.79421C46.1788 6.75202 46.1424 6.54319 46.0731 6.316C46.0054 6.09297 45.4141 6.0437 45.3 5.9915C45.1869 5.94472 45.2716 5.68536 45.2491 5.50453C45.1209 4.47754 45.5452 4.31507 45.4621 3.93711C45.3773 3.55872 44.8949 3.68443 44.689 3.79887C44.4844 3.91288 44.4096 3.93544 44.4322 4.13299C44.4493 4.33053 44.4447 4.44204 44.466 4.63959C44.4844 4.8388 44.5692 6.12973 44.5942 6.34106C44.6155 6.55865 44.6013 6.43419 44.3758 6.79838C44.1486 7.16256 42.9621 8.21084 42.77 8.33781C42.5824 8.4631 42.5557 7.59983 42.6317 7.28242C42.7081 6.96626 43.1383 6.49224 43.4854 6.39201C43.8295 6.29595 43.9314 6.06876 43.8663 5.89251C43.8199 5.76012 43.1032 5.57928 42.9508 5.45816C42.7984 5.33538 42.7984 5.33538 42.7491 5.13617C42.6969 4.94154 42.6376 3.82142 42.6234 3.68151C42.6079 3.54745 42.2437 3.31899 41.9602 3.27096C41.6766 3.22461 41.1207 3.68026 41.1153 3.89911C41.1052 4.11461 40.9866 4.34473 41.1432 4.65378C41.2986 4.96409 41.4678 5.5609 41.5187 6.06875C41.5722 6.57117 41.2898 6.86478 40.9499 7.14544C40.6057 7.42776 40.7385 7.36847 40.3489 7.6391C39.9596 7.91182 39.0016 8.09223 39.1369 8.32068C39.5842 9.06158 40.1092 8.94716 40.2487 8.93463C40.3869 8.9175 40.5986 8.86529 40.7736 8.7567C40.9486 8.64519 41.1729 8.43513 41.2648 8.44348C41.3579 8.44933 41.2518 8.75128 41.218 9.05031C41.1871 9.34642 40.5619 10.4908 39.9793 11.1552C39.6351 11.5461 39.8523 11.7383 40.3234 11.8017C40.792 11.8623 41.4565 10.7885 41.4623 10.6645C41.4648 10.543 41.5822 10.4824 41.6143 10.5263C41.6528 10.5697 41.7371 11.5645 41.7781 11.793C41.8136 12.0189 41.7964 11.9751 41.908 12.1655C42.0195 12.3559 42.1886 12.5055 42.5937 12.528C42.9972 12.5493 42.9283 12.1584 42.8334 11.8581C42.742 11.5562 42.5586 10.0435 42.554 9.87432C42.554 9.7035 42.5795 9.48466 42.681 9.44373C42.7842 9.4028 43.0707 9.44958 43.1918 9.43956C43.3162 9.42536 43.4006 8.93755 43.3868 8.77091C43.3542 8.38835 44.4802 7.66624 44.4915 7.77482C44.5015 7.88341 44.5015 8.06802 44.4944 8.28394C44.4802 8.78219 43.9385 9.79371 43.8692 10.0339C43.7999 10.2736 43.0874 10.6996 42.9859 10.9113C42.8831 11.1231 42.9621 11.2839 43.0707 11.443C43.178 11.6025 43.4303 11.4981 43.5251 11.3515C43.6195 11.202 43.7493 10.9719 43.8508 10.7601C43.954 10.5501 44.0429 10.3721 44.1741 10.1437C44.3065 9.91107 44.6565 8.90497 44.7893 9.96996C44.8344 10.3216 44.864 11.1369 44.9233 11.7182C44.981 12.2996 45.2971 12.503 45.493 12.6508C45.6964 12.8032 45.9883 12.4758 45.9603 12.1697C45.9265 11.8635 45.5907 10.5091 45.5481 10.2665C45.5018 10.0042 45.4086 9.82045 45.6033 9.76824C45.7979 9.71896 46.0109 10.0944 46.4131 10.1128C46.8182 10.1353 47.6789 9.89813 47.8101 9.69641C47.9454 9.48759 48.2219 9.51599 48.315 9.3339C48.404 9.15306 48.0753 9.28169 47.8155 9.30842Z" fill="white"/>
<path d="M58.1701 8.91037C58.0641 9.08119 57.5111 9.94153 57.4606 10.0322C57.4067 10.1236 57.3307 10.1504 57.3081 10.0476C57.2768 9.91773 56.9748 9.71601 56.9314 9.63959C56.8876 9.55647 57.3052 8.66606 57.3971 8.57042C57.4109 8.55747 57.4263 8.54911 57.4464 8.54201C57.6059 8.47853 58.0064 8.49273 58.1279 8.54619C58.2674 8.60841 58.2758 8.73538 58.1701 8.91037ZM57.0145 11.1665C56.9778 11.1819 56.893 11.1778 56.817 11.1719C56.7422 11.1623 56.6775 11.1552 56.6775 11.1552C56.6533 10.9898 56.6746 10.8658 56.6929 10.7388C56.7113 10.6131 56.7902 10.4861 56.9285 10.4381C56.951 10.4314 56.9765 10.4243 56.9974 10.4172C57.1089 10.3959 57.2108 10.4156 57.1937 10.5371C57.1711 10.6824 57.0893 11.1393 57.0145 11.1665ZM56.1893 9.25869C56.1763 9.25576 56.165 9.25577 56.1525 9.25451C56.0986 9.24031 56.0481 9.19938 56.0832 9.03316C56.1158 8.88615 56.2824 8.93418 56.3075 8.9371C56.3922 8.95256 56.2653 9.26036 56.1893 9.25869ZM60.5377 3.60673C60.0579 3.50232 59.6574 3.89991 59.6164 4.14966C59.5768 4.40651 59.4373 4.61241 59.3454 4.87636C59.2552 5.13864 59.0927 5.40258 59.0927 5.40258C59.0927 5.40258 59.3157 5.20672 59.4598 5.04133C59.6035 4.87636 59.6937 4.80036 59.7689 4.91187C59.8407 5.02296 59.19 6.71191 59.0322 6.94203C58.8797 7.17758 58.4566 7.969 58.3309 8.06923C58.2052 8.16947 57.9755 8.24131 57.727 8.19369C57.6493 8.17949 57.5888 8.16113 57.5466 8.1344C57.4405 8.07217 57.4221 7.97359 57.4476 7.79275C57.4915 7.53047 57.679 6.52438 57.7976 6.33686C57.9049 6.16312 57.9162 6.08126 58.0599 5.9898C58.0741 5.97978 58.0937 5.9685 58.1138 5.95598C58.3113 5.84989 58.668 5.66655 58.7711 5.56088C58.8755 5.45898 58.9236 5.34496 58.977 5.20672C59.0267 5.06388 59.0363 4.80578 58.8304 4.49547C58.678 4.27538 58.376 4.1104 58.29 4.044C58.0824 3.88864 57.6748 3.88864 57.4084 4.01978C57.2856 4.07658 57.1908 4.16386 57.1628 4.27955C57.1106 4.46582 57.1682 4.63079 57.2334 4.75233C57.2939 4.85674 57.3574 4.93274 57.3729 4.96949C57.3996 5.04008 57.3829 5.14575 57.3307 5.34622C57.2814 5.54961 56.7297 7.68961 56.7126 7.80697C56.6913 7.92391 56.652 8.05797 56.5547 8.16948C56.5163 8.21333 56.4586 8.24841 56.388 8.27096C56.2765 8.31356 56.1442 8.33904 56.0439 8.3641C55.8618 8.4138 54.966 8.30939 54.9447 8.43468C54.9263 8.56039 54.7839 8.87236 54.9927 9.37019C55.2028 9.86844 55.5331 9.91898 55.6939 9.90938C55.818 9.90645 55.9128 9.87972 55.9763 9.98956C55.9971 10.0221 56.0155 10.0714 56.0255 10.1391C56.0777 10.4202 55.9366 11.0734 55.9988 11.2567C56.0777 11.4893 55.141 11.2016 54.8064 11.1986C54.4706 11.1961 54.4677 12.0226 54.5989 12.2244C54.8064 12.5434 55.1 12.5927 55.3594 12.5618C55.5699 12.5351 55.7545 12.4574 55.8535 12.4194C55.9888 12.3655 56.264 12.2908 56.5459 12.2854C56.7309 12.2766 58.5636 12.4474 58.7273 12.5025C58.8839 12.5576 59.2397 12.4658 59.4005 12.1822C59.5655 11.9015 59.375 11.3949 59.0547 11.354C58.7331 11.3143 57.4109 11.2596 57.4263 11.1606C57.4405 11.0621 57.9049 10.2393 58.067 10.018C58.2307 9.79202 58.7415 9.85425 58.939 9.86553C59.1366 9.87681 59.1746 9.87973 59.3679 9.79202C59.5601 9.70306 59.7785 9.57777 59.9209 9.49007C60.0211 9.42825 60.3135 9.17976 60.3966 8.86653L60.4049 8.82684C60.4304 8.70698 60.4275 8.5842 60.3682 8.45724C60.1594 7.96776 59.1562 7.9381 58.9799 7.99448C58.805 8.04544 58.929 7.93267 59.0363 7.76311C59.1424 7.58811 60.3949 5.28691 60.5503 5.13197C60.7027 4.9766 60.8564 4.8229 61.1316 4.71431C61.4052 4.60823 61.3743 4.43324 61.3939 4.24697C61.4098 4.06362 61.0172 3.7124 60.5377 3.60673Z" fill="white"/>
<path d="M72.4803 18.6511C72.4155 18.5592 72.2209 18.5521 72.0204 18.3759C71.8116 18.1979 71.1288 17.2583 70.9822 16.8181C70.8352 16.3737 70.3653 14.7695 70.3515 14.6567C70.3357 14.5394 70.3695 14.4605 70.4417 14.2587C70.5094 14.0612 70.6055 13.9104 70.8352 13.6465C71.0653 13.3825 71.4362 13.223 71.7836 13.3587C72.1349 13.497 72.6369 13.7676 72.7442 13.8469C72.8586 13.9229 72.839 13.9087 72.9547 13.8991C73.0704 13.8833 73.0758 13.8607 73.2028 13.8256C73.3356 13.7889 73.3749 13.7354 73.3439 13.6519C73.3185 13.5771 73.2763 13.4869 73.169 13.1908C73.0604 12.896 72.8344 12.7448 72.7288 12.7293C72.6202 12.7139 72.4255 12.536 72.2714 12.3626C72.1236 12.196 72.4736 11.7445 72.6202 11.5411C72.7638 11.3369 73.2111 11.1561 73.4104 11.1335C73.6121 11.1097 74.0915 10.9602 74.3049 10.7401C74.5204 10.5154 74.5292 10.0159 74.4966 9.78036C74.4615 9.54606 74.3246 9.40239 74.1467 9.28962C73.9717 9.17811 73.1957 8.82812 73.0023 8.8774C72.8148 8.93546 72.7359 9.19482 72.7346 9.43204C72.7371 9.66467 73.0407 9.93572 72.9334 10.0865C72.8319 10.2377 72.6131 10.4791 72.4961 10.6115C72.3829 10.7443 71.9415 11.3056 71.6663 11.5796C71.3856 11.859 70.7324 12.4006 70.5391 12.3401C70.3515 12.2749 70.2175 12.2298 69.8236 11.9208C69.4298 11.6134 69.1053 11.7926 68.9883 11.9604C68.8727 12.1225 68.719 12.3288 68.754 12.4625C68.795 12.594 68.9052 12.5994 68.9896 12.6742C69.2423 12.8266 69.492 13.2021 69.5246 13.3107C69.5572 13.4122 69.3003 13.5943 69.2523 13.6268C69.203 13.6648 68.204 14.4099 68.0867 14.4788C67.9668 14.5452 66.604 15.1872 66.2273 15.1859C65.856 15.183 65.8928 15.0815 65.7783 14.8597C65.6627 14.6396 65.4229 14.5845 65.3043 14.6313C65.1886 14.6822 65.1606 14.7879 65.0901 14.9065C65.0224 15.0222 64.9376 15.132 64.9727 15.2506C65.2041 16.007 66.343 16.0492 66.6124 16.0492C68.0219 16.0521 69.4202 14.3548 69.7334 14.5594C69.9815 14.7215 69.9564 15.0364 69.9844 15.1759C70.0183 15.3129 70.0592 16.9847 70.1381 17.4053C70.2187 17.8242 70.3077 18.2376 70.501 18.3688C70.6873 18.4999 71.3714 18.6356 71.4884 18.6991C71.6086 18.7584 71.6283 18.8161 71.7494 18.8557C71.8768 18.895 72.215 18.8286 72.3984 18.819C72.5863 18.8035 72.5454 18.7426 72.4803 18.6511Z" fill="white"/>
<path d="M78.6735 24.2901C78.5043 24.3929 78.1615 24.3068 78.0938 24.273C78.0666 24.2575 78.047 24.232 78.0399 24.2082C78.0103 24.0303 78.3661 24.0909 78.4634 24.0458C78.6367 23.9288 78.9036 23.9994 78.9487 24.0445C78.97 24.0683 78.9825 24.0926 78.9813 24.1222C78.9754 24.2124 78.7821 24.2237 78.6735 24.2901ZM80.8264 24.4112C80.6585 24.225 80.2046 23.7906 80.1436 23.7284C80.0183 23.6002 80.0872 23.3897 80.1904 23.2573C80.3892 23.0058 80.9805 22.9382 81.2006 22.8931C81.4825 22.8367 81.5364 22.6742 81.5364 22.6742C81.5844 22.5573 81.3134 22.2495 81.1443 22.1664C80.9747 22.0833 80.9776 22.0929 80.7379 21.9434C80.4994 21.798 80.55 21.7571 80.4597 21.7333C80.3695 21.7191 80.1085 21.8377 80.0688 21.9659C80.0337 22.0946 80.0943 22.1635 80.1749 22.2553C80.2568 22.3426 80.5654 22.3652 80.6377 22.4019C80.7041 22.4416 80.7801 22.5982 80.5896 22.6149C80.3975 22.6379 80.0421 22.7323 79.8546 22.9156C79.774 22.9933 79.7163 23.0936 79.6712 23.1921C79.5906 23.3558 79.5539 23.4845 79.5539 23.4845C79.5539 23.4845 79.3225 23.3517 79.1421 23.3404C79.0063 23.3304 77.8156 23.2234 77.6958 23.2924C77.5717 23.3642 77.312 23.7609 77.2953 23.8257C77.274 23.8992 77.2585 24.0019 77.2414 24.1544C77.2288 24.2813 77.3019 24.7161 77.3245 24.8205C77.3587 25.021 77.5885 25.1083 78.1147 24.9278C78.2249 24.8994 78.658 24.8573 78.775 24.8163C79.0786 24.7132 79.4779 24.4254 79.4779 24.4254C79.4779 24.4254 79.9377 24.5114 80.5654 25.1392C80.7379 25.31 80.8661 24.9658 80.9676 24.8485C81.0749 24.7345 81.0043 24.5975 80.8264 24.4112Z" fill="white"/>
<path d="M82.2936 20.85C82.2924 20.8303 82.2936 20.8174 82.302 20.799C82.34 20.7088 82.9017 20.4311 83.1276 20.2461C83.359 20.0615 83.8556 19.9186 83.9358 19.9838C84.0151 20.0431 83.6539 20.3814 83.6184 20.4495C83.5691 20.5326 83.4902 20.9431 83.359 20.9669C83.225 20.9966 82.2865 21.1123 82.2936 20.85ZM82.4402 19.5758C82.322 19.6802 82.0201 19.8255 82.0201 19.8255C82.0326 19.7524 82.0338 19.7086 82.0581 19.6689C82.0819 19.6338 82.1199 19.6 82.1921 19.549C82.3584 19.4279 82.4644 19.4137 82.5308 19.3953C82.5872 19.3799 82.5588 19.4647 82.4557 19.5632L82.4402 19.5758ZM84.4917 23.1299C84.5752 23.0171 84.4608 22.8196 84.2916 22.6166C84.2027 22.5093 83.747 22.0478 83.3757 21.8093C82.9961 21.5683 82.6478 21.3282 82.5108 21.2802C82.3755 21.2309 82.5517 21.2167 82.7012 21.2438C82.8553 21.2689 83.4676 21.3917 83.5436 21.4794C83.6226 21.5667 83.988 21.674 84.1956 21.6134C84.396 21.5512 84.4679 21.0517 84.4666 20.8713C84.4608 20.6892 84.523 20.6608 84.7247 20.5242C85.0083 20.3309 85.21 20.3137 85.4243 20.3167C85.6402 20.325 86.7424 20.5071 86.8806 20.4887C87.023 20.4691 87.0443 20.3025 86.9892 20.2223C86.9299 20.1433 86.8142 19.9228 86.752 19.8497C86.6885 19.7708 86.9086 19.4446 86.9737 19.3289C87.0852 19.1285 86.899 18.989 86.7494 18.8478C86.5999 18.7083 86.539 18.814 86.3301 18.8607C86.1313 18.91 85.6135 19.2274 85.4301 19.3009C85.2438 19.374 84.3325 19.587 84.0573 19.6196C83.7892 19.648 83.3206 19.7395 83.3603 19.696C83.4 19.648 83.5536 19.6167 83.6973 19.5169C83.8414 19.415 84.6161 19.0667 84.9686 18.9635C85.0563 18.9397 85.1311 18.8917 85.1845 18.8336C85.3453 18.6686 85.3512 18.4064 85.2071 18.2439C85.0238 18.0326 84.7853 17.9549 84.6203 17.9449C84.4553 17.9323 84.1672 17.9758 84.1125 18.1015C84.0557 18.2297 84.1488 18.3696 84.1801 18.4473C84.2056 18.5262 84.163 18.5037 84.0164 18.6294C83.8639 18.7589 83.8414 18.7563 83.699 18.8507C83.5632 18.9439 83.823 18.5475 83.9203 18.3471C84.0193 18.1437 83.95 18.1157 83.9061 17.8801C83.8585 17.6513 83.7792 17.4596 83.486 17.2704C83.3544 17.1873 83.25 17.1451 83.1502 17.166L83.1373 17.1701C83.0274 17.204 82.9243 17.3213 82.796 17.5498C82.5534 18 82.1637 18.416 81.8066 18.677C81.4471 18.9338 81.0027 19.1681 80.7458 19.4505C80.5357 19.6718 80.5424 19.8414 80.6218 20.0527C80.6456 20.1037 80.6694 20.1571 80.699 20.2164C80.7951 20.414 81.1184 20.3801 81.2144 20.373C81.3142 20.3659 81.3823 20.2674 81.4554 20.2039C81.5289 20.1387 81.6204 20.1997 81.6049 20.2983C81.5811 20.3902 81.5118 20.6412 81.4583 20.6779C81.3568 20.7497 81.176 20.8625 81.0098 20.7894C80.839 20.7159 80.1519 20.373 79.9135 20.2419C79.8187 20.1909 79.7355 20.1433 79.6821 20.1037C79.4845 19.9667 79.5464 19.861 79.4419 19.7411C79.3405 19.6255 79.0652 19.3953 78.8694 19.387C78.6789 19.3715 78.2851 19.3924 78.1255 19.7649C77.8478 20.411 78.6125 20.5664 78.6125 20.5664C79.0865 20.6257 81.5911 21.3507 81.711 21.3566C81.8476 21.3679 82.013 21.3666 82.1792 21.3862C82.5701 21.4201 83.5662 22.2357 83.5958 22.2666C83.8414 22.536 83.8189 22.625 83.2784 22.6759C82.9076 22.7068 82.4035 22.6053 82.1257 22.536C81.9946 22.5051 81.9111 22.4796 81.9111 22.4796C81.952 22.508 81.9929 22.5331 82.0326 22.5615C82.3162 22.7336 82.6377 22.8551 82.9723 22.9691C83.0821 23.0075 83.1978 23.048 83.3135 23.0877C83.813 23.2585 84.3718 23.3036 84.4917 23.1299Z" fill="white"/>
</svg>
