<svg width="100" height="101" viewBox="0 0 100 101" fill="none" xmlns="http://www.w3.org/2000/svg">
<path fill-rule="evenodd" clip-rule="evenodd" d="M7.93044 23.4622C2.73939 31.5233 -0.0142356 40.9116 0.000278333 50.4996C0.000278333 60.4609 2.91424 69.7415 7.93044 77.537V72.3375C4.42559 65.5924 2.60084 58.1009 2.61124 50.4996C2.61124 42.6255 4.53394 35.1966 7.93044 28.6617V23.4622ZM9.85687 75.6891V80.3126C9.18729 79.4111 8.54764 78.4834 7.93044 77.537V72.3375C8.52894 73.4821 9.17607 74.5969 9.85687 75.6891ZM9.85687 20.6866V25.3101C9.17607 26.4023 8.52894 27.517 7.93044 28.6617V23.4622C8.54764 22.5158 9.18729 21.5881 9.85687 20.6866ZM10.5227 76.7178V81.1842L9.85687 80.3126V75.6891L10.5227 76.7178ZM10.5227 19.8113V24.2814C10.302 24.618 10.0776 24.9584 9.85687 25.3101V20.6866L10.5227 19.8113ZM12.797 79.8487V83.8999C12.0077 83.0212 11.2492 82.1154 10.5227 81.1842V76.7178C11.2409 77.7989 11.9965 78.8388 12.797 79.8487ZM12.797 17.0993V21.1505C11.9965 22.1604 11.2409 23.2003 10.5227 24.2814V19.8113C11.2521 18.8836 12.0077 17.9746 12.797 17.0993ZM13.8556 81.1467V85.052C13.5002 84.6704 13.1449 84.2889 12.797 83.8999V79.8487C13.1374 80.2864 13.4928 80.7203 13.8556 81.1467ZM13.8556 15.951V19.8524C13.4928 20.2789 13.1374 20.7128 12.797 21.1505V17.0993C13.1449 16.7103 13.5002 16.325 13.8556 15.951ZM15.2584 82.7178V86.4547C14.7824 85.9956 14.3147 85.5279 13.8556 85.052V81.1467C14.312 81.6854 14.7758 82.2053 15.2584 82.7178ZM15.2584 14.5445V18.2814C14.7758 18.7939 14.312 19.3138 13.8556 19.8524V15.951C14.312 15.4721 14.7833 15.0046 15.2584 14.5445ZM15.7858 83.2864V86.956L15.2584 86.4547V82.7178L15.7858 83.2864ZM15.7858 14.0432V17.7128L15.2584 18.2814V14.5445L15.7858 14.0432ZM15.8569 83.3537V87.0196C15.8315 87.0003 15.8078 86.979 15.7858 86.956V83.2864C15.8077 83.3107 15.8314 83.3332 15.8569 83.3537ZM15.8569 13.9796V17.6455C15.8305 17.665 15.8067 17.6876 15.7858 17.7128V14.0432L15.8569 13.9796ZM15.9204 83.4173V87.0757L15.8569 87.0196V83.3537C15.8756 83.3799 15.8943 83.3986 15.9204 83.4173ZM15.9204 13.9235V17.5819C15.8957 17.5992 15.8742 17.6207 15.8569 17.6455V13.9796C15.8764 13.9591 15.8977 13.9403 15.9204 13.9235ZM16.3469 83.8625V87.4834C16.2038 87.3484 16.0617 87.2125 15.9204 87.0757V83.4173C16.0588 83.5707 16.2047 83.7166 16.3469 83.8625ZM16.3469 13.5158V17.1367C16.2047 17.2826 16.0588 17.4285 15.9204 17.5819V13.9235C16.0617 13.7867 16.2038 13.6508 16.3469 13.5158ZM16.5376 84.0532V87.648L16.3469 87.4834V83.8625L16.5376 84.0532ZM16.5376 13.3512V16.946L16.3469 17.1367V13.5158L16.5376 13.3512ZM18.8681 86.2266V89.6231C18.0676 88.9871 17.2933 88.3288 16.5376 87.648V84.0532C17.2858 84.8014 18.0676 85.5271 18.8681 86.2266ZM18.8681 11.3761V14.7727C18.0676 15.4722 17.2858 16.1978 16.5376 16.946V13.3512C17.2933 12.6704 18.0676 12.012 18.8681 11.3761ZM24.9429 90.7265V93.7752C22.8187 92.5422 20.7883 91.1544 18.8681 89.6231V86.2266C20.7646 87.8762 22.7957 89.3799 24.9429 90.7265ZM24.9429 7.22402V10.2726C22.7957 11.6118 20.7646 13.123 18.8681 14.7727V11.3761C20.7883 9.84481 22.8187 8.45701 24.9429 7.22402ZM25.7508 91.2241V94.2315L24.9429 93.7752V90.7265L25.7508 91.2241ZM25.7508 6.76765V9.77514L24.9429 10.2726V7.22402L25.7508 6.76765ZM28.6461 92.8101V95.7166C27.6638 95.256 26.6981 94.7606 25.7508 94.2315V91.2241C26.6972 91.7814 27.6623 92.3163 28.6461 92.8101ZM28.6461 5.27888V8.1891C27.6623 8.68287 26.6972 9.21778 25.7508 9.77514V6.76765C26.6972 6.24022 27.6623 5.74272 28.6461 5.27888ZM29.0089 92.9934V95.8887C28.8869 95.8336 28.766 95.7762 28.6461 95.7166V92.8101L29.0089 92.9934ZM29.0089 5.11055V8.00581L28.6461 8.1891V5.27888L29.0089 5.11055ZM34.373 95.249V98.0058C32.5364 97.3999 30.7483 96.6966 29.0089 95.8887V92.9934C30.7409 93.85 32.5326 94.6056 34.373 95.249ZM34.373 2.99334V5.7502C32.5326 6.39359 30.7409 7.1492 29.0089 8.00581V5.11055C30.7483 4.30257 32.5364 3.59932 34.373 2.99334ZM39.9615 96.8163V99.4909C38.0718 99.1031 36.206 98.6072 34.373 98.0058V95.249C36.191 95.8812 38.0501 96.4049 39.9615 96.8163ZM39.9615 1.5083V4.18287C38.0501 4.5906 36.191 5.11428 34.373 5.7502V2.99334C36.1947 2.39857 38.0538 1.89733 39.9615 1.5083ZM42.7558 97.3363V99.9734C41.8196 99.8414 40.8878 99.6805 39.9615 99.4909V96.8163C40.8817 97.0221 41.8169 97.1904 42.7558 97.3363ZM42.7558 1.02575V3.66292C41.8192 3.80739 40.8874 3.98079 39.9615 4.18287V1.5083C40.8817 1.31753 41.8169 1.16042 42.7558 1.02575ZM45.5239 97.6729V100.295C44.5887 100.213 43.6685 100.108 42.7558 99.9734V97.3363C43.6685 97.4784 44.5887 97.5906 45.5239 97.6729ZM45.5239 0.704062V3.32626C44.5887 3.40855 43.6685 3.52077 42.7558 3.66292V1.02575C43.6754 0.893264 44.5984 0.785998 45.5239 0.704062ZM48.2845 97.8525V100.467C47.3628 100.436 46.4422 100.379 45.5239 100.295V97.6729C46.4366 97.7627 47.3605 97.8188 48.2845 97.8525ZM48.2845 0.531987V3.14671C47.3605 3.18037 46.4366 3.23648 45.5239 3.32626V0.704062C46.4366 0.621768 47.3605 0.561912 48.2845 0.531987ZM51.8156 97.8525V100.463C50.639 100.508 49.4612 100.509 48.2845 100.467V97.8525C49.4609 97.9078 50.6392 97.9078 51.8156 97.8525ZM51.8156 0.539478V3.14671C50.6392 3.09134 49.4609 3.09134 48.2845 3.14671V0.531987C49.4611 0.484581 50.6392 0.487087 51.8156 0.539478ZM55.2645 97.5981V100.228C54.1273 100.34 52.9715 100.422 51.8156 100.463V97.8525C52.979 97.8076 54.1273 97.7178 55.2645 97.5981ZM55.2645 0.7714V3.40107C54.1183 3.27443 52.968 3.18958 51.8156 3.14671V0.539478C52.9715 0.576885 54.1273 0.65918 55.2645 0.7714ZM57.3967 97.3138V99.9547C56.6934 100.063 55.9827 100.149 55.2645 100.228V97.5981C55.9827 97.5158 56.6934 97.4186 57.3967 97.3138ZM57.3967 1.04446V3.68536C56.6876 3.5786 55.9768 3.48382 55.2645 3.40107V0.7714C55.9827 0.849953 56.6934 0.939722 57.3967 1.04446ZM59.4054 96.951V99.6106C58.7433 99.7378 58.07 99.85 57.3967 99.9547V97.3138C58.07 97.2054 58.7433 97.0894 59.4054 96.951ZM59.4054 1.3886V4.04447C58.7383 3.91112 58.0686 3.79139 57.3967 3.68536V1.04446C58.07 1.14546 58.7433 1.26141 59.4054 1.3886ZM59.5326 96.9323V99.5844C59.4952 99.5994 59.4503 99.6031 59.4054 99.6106V96.951C59.4476 96.9435 59.49 96.9372 59.5326 96.9323ZM59.5326 1.41478V4.06691C59.4897 4.06243 59.4472 4.05493 59.4054 4.04447V1.3886C59.4503 1.39608 59.4952 1.39982 59.5326 1.41478ZM62.5475 96.2066V98.9111C61.5525 99.1655 60.5463 99.3936 59.5326 99.5844V96.9323C60.5463 96.7228 61.5525 96.4797 62.5475 96.2066ZM62.5475 2.0881V4.79259C61.5505 4.51857 60.545 4.27657 59.5326 4.06691V1.41478C60.5463 1.60555 61.5525 1.83373 62.5475 2.0881ZM72.2769 92.335V95.2752C69.1692 96.8225 65.9084 98.0411 62.5475 98.9111V96.2066C65.9247 95.2825 69.1881 93.9839 72.2769 92.335ZM72.2769 5.72401V8.66417C69.1881 7.01534 65.9247 5.71674 62.5475 4.79259V2.0881C65.9084 2.95806 69.1692 4.17664 72.2769 5.72401ZM74.0014 91.3625V94.3662C73.4403 94.6841 72.8605 94.9797 72.2769 95.2752V92.335C72.8605 92.0245 73.4403 91.6991 74.0014 91.3625ZM74.0014 6.62925V9.63674C73.4403 9.30008 72.8605 8.97839 72.2769 8.66417V5.72401C72.8605 6.01578 73.4403 6.31504 74.0014 6.62925ZM77.4203 89.1517V92.3163C76.3168 93.0383 75.1722 93.7303 74.0014 94.3662V91.3625C75.1797 90.6779 76.3205 89.941 77.4203 89.1517ZM77.4203 8.68287V11.8475C76.3159 11.0574 75.175 10.3197 74.0014 9.63674V6.62925C75.1722 7.2689 76.3168 7.96092 77.4203 8.68287ZM81.2058 86.1629V89.5632C79.9901 90.5358 78.7295 91.456 77.4203 92.3163V89.1517C78.7333 88.2203 79.9976 87.2215 81.2058 86.1629ZM81.2058 11.436V14.8362C79.9976 13.7776 78.7333 12.7789 77.4203 11.8475V8.68287C78.7295 9.54322 79.9901 10.4634 81.2058 11.436ZM82.1747 85.2914V88.7702C81.853 89.0395 81.535 89.3051 81.2058 89.5632V86.1629C81.535 85.8749 81.853 85.5832 82.1747 85.2914ZM82.1747 12.229V15.7078C81.853 15.416 81.535 15.1243 81.2058 14.8362V11.436C81.535 11.6941 81.853 11.9597 82.1747 12.229ZM83.9664 83.5408V87.1916C83.3829 87.7303 82.7844 88.2577 82.1747 88.7702V85.2914C82.7844 84.7191 83.3829 84.1355 83.9664 83.5408ZM83.9664 13.8076V17.4622C83.3841 16.8623 82.7866 16.2774 82.1747 15.7078V12.229C82.7844 12.7415 83.3829 13.2689 83.9664 13.8076ZM84.5051 82.9797V86.6904L83.9664 87.1916V83.5408C84.1488 83.3565 84.3284 83.1694 84.5051 82.9797ZM84.5051 14.3125V18.0195C84.3293 17.8301 84.1498 17.6443 83.9664 17.4622V13.8076L84.5051 14.3125ZM85.7881 81.5582V85.4111C85.3679 85.845 84.9402 86.2715 84.5051 86.6904V82.9797C84.9427 82.5158 85.3692 82.0408 85.7881 81.5582ZM85.7881 15.5881V19.4372C85.3692 18.951 84.9427 18.4834 84.5051 18.0195V14.3125C84.9427 14.7315 85.3692 15.1542 85.7881 15.5881ZM88.4739 78.1655V82.4335C87.6173 83.4622 86.7233 84.4535 85.7881 85.4111V81.5582C86.7345 80.4734 87.6323 79.34 88.4739 78.1655ZM88.4739 18.5657V22.8337C87.6323 21.6602 86.736 20.5268 85.7881 19.4372V15.5881C86.7233 16.5457 87.6173 17.537 88.4739 18.5657ZM88.4739 82.4335V78.1655C94.2849 70.1123 97.4057 60.4304 97.3916 50.4996C97.3916 40.1679 94.0811 30.618 88.4739 22.8337V18.5657C95.9382 27.5313 100.017 38.8335 99.9988 50.4996C100.017 62.1657 95.9382 73.4679 88.4739 82.4335Z" fill="white"/>
<path fill-rule="evenodd" clip-rule="evenodd" d="M93.1572 57.5358L91.0549 57.2178L87.9502 58.1829L88.0886 57.2739L90.2021 56.6717L88.3617 55.4822L88.5001 54.5881L91.1821 56.4435L93.2769 56.7652L93.1572 57.5358ZM92.1098 62.3013L88.0587 61.2053L87.7557 62.3201L86.9328 62.0994L87.737 59.1143L88.5637 59.3388L88.2607 60.4497L92.3155 61.542L92.1098 62.3013ZM91.0549 65.5632L86.3006 63.8649L86.5624 63.1243L91.3205 64.8226L91.0549 65.5632ZM87.6547 69.3637L87.8829 68.6268C88.2083 68.7241 88.4664 68.739 88.6684 68.6754C88.7689 68.642 88.8611 68.5872 88.9386 68.5149C89.016 68.4426 89.077 68.3545 89.1173 68.2565C89.222 68.0246 89.237 67.8226 89.1622 67.6467C89.0953 67.4791 88.9649 67.3447 88.7993 67.2727C88.7037 67.2238 88.5953 67.2055 88.4889 67.2203C88.3687 67.2419 88.2579 67.2993 88.1709 67.3849C88.0961 67.4522 87.9427 67.6131 87.7108 67.8674C87.4945 68.1364 87.2104 68.343 86.8879 68.466C86.532 68.569 86.1506 68.5356 85.818 68.3724C85.5888 68.271 85.3873 68.1157 85.2308 67.9198C85.075 67.7353 84.982 67.5061 84.9652 67.2652C84.9496 67.0003 85.0038 66.7359 85.1223 66.4984C85.3243 66.0532 85.6011 65.7764 85.9564 65.6679C86.3118 65.5557 86.7046 65.5931 87.131 65.7727L86.8467 66.5058C86.5961 66.431 86.3978 66.4161 86.2482 66.4722C86.0986 66.5245 85.9789 66.6517 85.8854 66.8537C85.7951 67.0279 85.775 67.2301 85.8293 67.4186C85.8667 67.5233 85.9452 67.6056 86.0649 67.6617C86.1667 67.7104 86.2836 67.7171 86.3904 67.6804C86.5325 67.6355 86.7345 67.4635 86.9963 67.1642C87.193 66.9249 87.4236 66.7157 87.6809 66.5433C87.8748 66.4256 88.0974 66.3635 88.3243 66.3637C88.6006 66.3685 88.8725 66.4336 89.121 66.5545C89.3829 66.6742 89.6036 66.8425 89.7831 67.0595C89.956 67.2581 90.0597 67.5075 90.0786 67.7702C90.0907 68.0642 90.0276 68.3564 89.8953 68.6193C89.6934 69.0682 89.4053 69.3487 89.0275 69.4684C88.5704 69.5805 88.0895 69.5439 87.6547 69.3637ZM84.4415 72.4086L84.7445 71.9111C84.8804 71.716 84.9863 71.5016 85.0587 71.2752C85.0727 71.1706 85.0489 71.0644 84.9914 70.9759C84.9188 70.8676 84.8229 70.7769 84.7108 70.7103C84.5894 70.6313 84.448 70.5885 84.3031 70.5869C84.2422 70.5891 84.1823 70.6035 84.1271 70.6292C84.0718 70.6549 84.0223 70.6914 83.9814 70.7365C83.8659 70.8888 83.761 71.0488 83.6672 71.2153L83.3492 71.739L84.4415 72.4086ZM86.5176 74.5969L82.2083 71.9635L83.0687 70.5532C83.2153 70.2807 83.4165 70.0413 83.6597 69.85C83.8537 69.7325 84.0825 69.6862 84.3068 69.7191C84.5649 69.7415 84.8193 69.8313 85.0737 69.9884C85.3638 70.1502 85.5974 70.3969 85.7432 70.6954C85.8028 70.8383 85.8332 70.9917 85.8325 71.1465C85.8319 71.3013 85.8003 71.4545 85.7395 71.5969C85.9248 71.5222 86.1202 71.4755 86.3193 71.4585C86.5101 71.4435 86.8205 71.4585 87.2545 71.5033L88.3392 71.6118L87.853 72.4123L86.6185 72.3263C86.3365 72.2975 86.0529 72.2863 85.7694 72.2926C85.6623 72.2957 85.5579 72.3267 85.4664 72.3824C85.3618 72.4679 85.2753 72.5735 85.2121 72.6929L85.1298 72.8276L86.929 73.9273L86.5176 74.5969ZM83.4203 78.7228L79.459 75.5881L81.2507 73.3288L81.9203 73.86L80.6185 75.5021L81.4976 76.1979L82.7058 74.6679L83.3754 75.1954L82.1634 76.7253L83.2407 77.5782L84.5874 75.8762L85.2569 76.4036L83.4203 78.7228ZM80.6148 81.7153L76.0625 79.1268L76.6647 78.5245L80.0014 80.4734L78.0338 77.1555L78.6211 76.5682L81.2096 81.1243L80.6148 81.7153ZM77.9627 84.1131L74.6971 80.2602L75.2956 79.7515L78.5612 83.6044L77.9627 84.1131ZM73.949 87.1168L71.035 82.9909L71.656 82.5495L74.9029 84.3861L72.9577 81.633L73.5525 81.2103L76.4664 85.3325L75.8231 85.7889L72.6435 84.0046L74.5438 86.6941L73.949 87.1168ZM66.767 85.3924L67.459 85.0221L68.742 87.4348C68.9478 87.8201 69.0899 88.0632 69.1647 88.1679C69.2744 88.3214 69.4304 88.4354 69.6099 88.4934C69.702 88.5185 69.7983 88.5246 69.8929 88.511C69.9875 88.4975 70.0783 88.4648 70.1597 88.4148C70.3542 88.3101 70.4739 88.1792 70.5188 88.0221C70.5638 87.8643 70.5559 87.6961 70.4964 87.5433C70.3857 87.2786 70.2608 87.0201 70.1223 86.7689L68.8094 84.3039L69.5014 83.9335L70.7508 86.2752C71.035 86.8101 71.2183 87.1991 71.2969 87.4385C71.372 87.6533 71.4025 87.8811 71.3867 88.1081C71.3668 88.3159 71.2948 88.5154 71.1772 88.6879C71.0232 88.8947 70.8218 89.0615 70.5899 89.1742C70.3403 89.327 70.0557 89.4132 69.7632 89.4248C69.557 89.4095 69.3562 89.3518 69.1734 89.2553C68.9906 89.1587 68.8297 89.0254 68.7009 88.8637C68.4487 88.5169 68.2248 88.1504 68.0313 87.7677L66.767 85.3924ZM58.777 91.441L58.5974 90.6069L60.2545 90.259L60.6697 92.2266C60.5266 92.4929 60.3276 92.7252 60.0862 92.9073C59.8302 93.1188 59.5276 93.2663 59.2034 93.3375C58.8324 93.4236 58.4434 93.3854 58.0962 93.229C57.735 93.0593 57.4337 92.7841 57.2321 92.4398C56.9902 92.0506 56.8204 91.6211 56.7308 91.1717C56.623 90.704 56.609 90.2196 56.6897 89.7465C56.757 89.3433 56.9432 88.9695 57.2246 88.6729C57.4601 88.4428 57.7603 88.2901 58.0849 88.2353C58.4856 88.1259 58.9133 88.1798 59.2745 88.3849C59.5924 88.5869 59.8393 88.9086 60.0114 89.3463L59.2857 89.6904C59.1985 89.4826 59.0513 89.3055 58.863 89.1817C58.7744 89.1273 58.6759 89.0909 58.5731 89.0749C58.4704 89.0588 58.3655 89.0634 58.2645 89.0882C58.106 89.1177 57.9575 89.1866 57.8327 89.2886C57.7078 89.3906 57.6106 89.5223 57.55 89.6717C57.4116 89.9896 57.4004 90.4198 57.5126 90.966C57.6361 91.5495 57.8306 91.9685 58.0924 92.2191C58.2033 92.3371 58.343 92.4244 58.4977 92.4723C58.6525 92.5201 58.817 92.527 58.9752 92.4921C59.1441 92.4546 59.3017 92.3777 59.4353 92.2677C59.5726 92.1591 59.6913 92.029 59.7869 91.8824L59.656 91.254L58.777 91.441ZM51.853 94.2091L51.464 89.1742L52.2271 89.1143L54.0712 92.3537L53.8131 88.9909L54.5388 88.9348L54.9278 93.9734L54.1423 94.0333L52.3281 90.8687L52.5787 94.153L51.853 94.2091ZM46.7695 91.5794C46.7396 92.1518 46.8181 92.5894 47.0089 92.8961C47.1959 93.1991 47.4466 93.36 47.757 93.3749C48.0712 93.3936 48.3368 93.259 48.55 92.9784C48.767 92.6941 48.8904 92.264 48.9204 91.6767C48.9503 91.1006 48.8755 90.663 48.6922 90.3674C48.6175 90.2319 48.509 90.1179 48.3773 90.0366C48.2455 89.9554 48.095 89.9095 47.9403 89.9036C47.7841 89.8933 47.6278 89.9238 47.4869 89.992C47.3459 90.0602 47.225 90.1638 47.1361 90.2926C46.9229 90.5694 46.7994 90.9996 46.7695 91.5794ZM45.9615 91.572C45.9877 91.0595 46.07 90.6293 46.2047 90.2889C46.3007 90.0451 46.4345 89.8178 46.6012 89.6156C46.7438 89.4357 46.9237 89.289 47.1286 89.1854C47.3937 89.0619 47.6862 89.009 47.9777 89.0321C48.2455 89.0395 48.5073 89.1127 48.7402 89.2451C48.973 89.3775 49.1698 89.5651 49.3131 89.7914C49.6348 90.2702 49.7732 90.9211 49.7283 91.744C49.6872 92.5595 49.4815 93.1879 49.1186 93.6293C48.9537 93.8397 48.7394 94.0062 48.4947 94.1138C48.25 94.2215 47.9824 94.2671 47.7159 94.2465C47.4472 94.2407 47.1841 94.1687 46.9498 94.0369C46.7156 93.9051 46.5175 93.7175 46.373 93.4909C46.055 93.0121 45.9204 92.3762 45.9615 91.572ZM42.191 93.5246L42.9017 89.3874L41.7645 89.1929L41.9067 88.3513L44.9553 88.8749L44.8094 89.7166L43.676 89.5221L42.9653 93.6592L42.191 93.5246ZM37.1112 89.6493C36.9466 90.1954 36.9166 90.6405 37.0289 90.9809C37.1373 91.3213 37.3431 91.5383 37.6423 91.6281C37.9416 91.7178 38.2296 91.6505 38.5064 91.4298C38.7832 91.2054 39.0077 90.8126 39.176 90.2552C39.3406 89.6979 39.3705 89.2565 39.2658 88.9273C39.2258 88.7772 39.1476 88.6401 39.0387 88.5293C38.9299 88.4185 38.7942 88.3378 38.6448 88.2951C38.4949 88.2486 38.3354 88.2418 38.182 88.2752C38.0286 88.3086 37.8865 88.3812 37.7695 88.4859C37.4965 88.7029 37.2758 89.0919 37.1112 89.6493ZM36.3256 89.4473C36.4753 88.9535 36.6548 88.557 36.868 88.2577C37.0197 88.0445 37.204 87.8564 37.4142 87.7004C37.6197 87.5395 37.8624 87.4329 38.12 87.3904C38.3775 87.3479 38.6416 87.3709 38.888 87.4572C39.1466 87.5291 39.3837 87.6631 39.5786 87.8477C39.7736 88.0322 39.9204 88.2616 40.0064 88.5158C40.2009 89.0582 40.1822 89.7241 39.9466 90.5096C39.7109 91.2914 39.363 91.8525 38.9029 92.1966C38.693 92.3618 38.4456 92.4724 38.1826 92.5187C37.9195 92.5651 37.6492 92.5457 37.3955 92.4622C37.1354 92.3937 36.8966 92.2613 36.7006 92.0771C36.5047 91.8929 36.3578 91.6627 36.2733 91.4073C36.075 90.8724 36.0937 90.2178 36.3256 89.4473ZM33.3069 88.7515L33.5912 86.8213L32.3419 88.3138L33.3069 88.7515ZM33.8044 91.1642L33.0264 90.8126L33.1872 89.6268L31.7695 88.9909L31.0064 89.9036L30.2471 89.5595L33.7034 85.5794L34.4628 85.9198L33.8044 91.1642ZM28.272 88.4447L30.7446 84.042L31.4291 84.4273L28.9566 88.8301L28.272 88.4447ZM28.8967 82.9086L29.5476 83.3425L27.782 86.0058C27.6096 86.2801 27.4063 86.5336 27.176 86.7615C26.9728 86.9542 26.7158 87.0807 26.4391 87.1243C26.1533 87.1563 25.8659 87.0788 25.6349 86.9074C25.4871 86.821 25.3631 86.6992 25.2743 86.5529C25.1855 86.4066 25.1345 86.2404 25.1262 86.0695C25.1075 85.7253 25.2496 85.3251 25.5451 84.8724L26.2222 85.1904C26.1018 85.361 26.0143 85.5526 25.9641 85.7552C25.9341 85.9535 25.994 86.0994 26.1361 86.1966C26.282 86.2939 26.4242 86.3088 26.5551 86.2415C26.7755 86.0769 26.959 85.8679 27.0937 85.628L28.8967 82.9086ZM18.6137 78.2029L19.2534 77.6417L20.3718 78.9136L18.8606 80.2415C18.5572 80.2465 18.2562 80.1866 17.9778 80.0657C17.6698 79.9454 17.3943 79.7545 17.1736 79.5083C16.9157 79.2276 16.7568 78.8703 16.7209 78.4909C16.6932 78.0926 16.7858 77.6951 16.9865 77.35C17.2069 76.9491 17.497 76.5906 17.8431 76.2914C18.1993 75.9689 18.6147 75.7186 19.0663 75.5545C19.4502 75.4146 19.8674 75.3937 20.2633 75.4946C20.5551 75.5732 20.8244 75.749 21.0676 76.0295C21.2127 76.1749 21.3274 76.3476 21.4051 76.5377C21.4828 76.7278 21.5219 76.9314 21.5202 77.1368C21.4872 77.5501 21.3204 77.9414 21.0451 78.2515L20.3868 77.7914C20.529 77.6142 20.6127 77.3972 20.6262 77.1704C20.6321 76.9603 20.5556 76.7562 20.413 76.6018C20.31 76.4784 20.1774 76.3832 20.0276 76.3249C19.8778 76.2667 19.7156 76.2475 19.5563 76.2689C19.2085 76.3026 18.8269 76.5046 18.4117 76.8712C17.9591 77.2677 17.6898 77.6418 17.6 77.9934C17.5525 78.1477 17.5454 78.3117 17.5795 78.4695C17.6135 78.6274 17.6876 78.7739 17.7945 78.8949C17.9102 79.0234 18.0552 79.1222 18.2172 79.1829C18.3791 79.2505 18.5509 79.2909 18.7259 79.3026L19.2085 78.8799L18.6137 78.2029ZM12.8082 73.5458L17.0052 70.7328L17.4279 71.365L15.5165 74.5669L18.3145 72.6891L18.7222 73.2951L14.5289 76.1081L14.0913 75.4535L15.9504 72.3188L13.216 74.1517L12.8082 73.5458ZM11.4953 71.2265L15.9204 68.7914L16.2982 69.4797L11.8731 71.9148L11.4953 71.2265ZM14.9479 66.85L15.2733 67.5607L12.3668 68.8924C12.0766 69.0368 11.7702 69.146 11.4541 69.2178C11.1802 69.2733 10.8959 69.2447 10.6387 69.1355C10.3783 69.0129 10.1739 68.7965 10.0663 68.5295C9.98686 68.378 9.94628 68.2092 9.94824 68.0381C9.9502 67.867 9.99464 67.6991 10.0776 67.5495C10.2459 67.2465 10.5751 66.9809 11.0651 66.7527L11.4728 67.3812C11.281 67.4631 11.106 67.5798 10.9566 67.7253C10.8257 67.8787 10.7995 68.032 10.8706 68.1891C10.9417 68.35 11.0539 68.436 11.1998 68.4472C11.3494 68.4585 11.6112 68.3799 11.9815 68.2078L14.9479 66.85ZM8.87308 65.3612L13.605 63.6031L13.8818 64.34L9.14614 66.0981L8.87308 65.3612ZM7.50026 60.8874L12.3668 59.5333L13.1411 62.3088L12.3182 62.5408L11.7534 60.5171L10.6761 60.8201L11.1998 62.6979L10.3806 62.9298L9.85313 61.0482L8.52894 61.4148L9.11248 63.5096L8.29327 63.7378L7.50026 60.8874ZM10.8182 55.6617L9.66235 55.8375L9.73717 56.3463C9.78579 56.6492 9.81946 56.8363 9.8419 56.9073C9.87646 57.0288 9.95695 57.1322 10.0663 57.1954C10.1786 57.2552 10.3132 57.2739 10.4741 57.2515C10.6075 57.2347 10.7334 57.1802 10.8369 57.0944C10.8804 57.054 10.9146 57.0046 10.9372 56.9497C10.9598 56.8949 10.9702 56.8357 10.9678 56.7764C10.9678 56.6979 10.9379 56.4734 10.8855 56.1106L10.8182 55.6617ZM8.83193 55.9609L7.49652 56.1629L7.605 56.8849C7.62532 57.0636 7.66162 57.2401 7.71348 57.4123C7.7604 57.5233 7.84713 57.6127 7.95662 57.663C8.07258 57.7191 8.21847 57.734 8.39802 57.7078C8.53021 57.692 8.65627 57.6431 8.7646 57.5657C8.85848 57.4977 8.92695 57.4003 8.95911 57.2889C8.98584 57.0554 8.97447 56.8192 8.92544 56.5894L8.83193 55.9609ZM11.5327 54.7602L11.7646 56.2976C11.8048 56.5248 11.8223 56.7553 11.817 56.9859C11.8061 57.1406 11.7559 57.29 11.6711 57.4198C11.5732 57.5646 11.4457 57.687 11.297 57.7789C11.1254 57.8866 10.9329 57.9567 10.7322 57.9846C10.5094 58.0198 10.2816 58.0032 10.0663 57.936C9.87093 57.8771 9.69681 57.7627 9.56509 57.6068C9.5165 57.847 9.38552 58.0627 9.19477 58.2166C8.98413 58.3803 8.73362 58.4849 8.46909 58.5195C8.24266 58.5531 8.01202 58.5455 7.78829 58.4971C7.58204 58.4576 7.38831 58.3691 7.22345 58.239C7.07095 58.1149 6.96108 57.9462 6.90924 57.7565C6.83587 57.449 6.7772 57.1381 6.73343 56.825L6.53518 55.5158L11.5327 54.7602ZM81.2058 32.219V33.6592C81.0525 33.2964 81.0151 32.4959 80.9889 32.3949C80.8804 31.946 80.7046 31.5944 80.6971 31.0856L80.742 31.0482C80.7532 31.0632 80.7682 31.0482 80.7906 31.0819C80.828 31.1268 80.9889 31.9946 81.0974 32.1293C81.1161 32.1555 81.1684 32.1854 81.2058 32.219ZM82.1747 32.9298V33.5657C82.0959 33.625 82.0186 33.6861 81.9427 33.749C81.6921 33.8425 81.4639 34.0146 81.2694 33.7789C81.2507 33.749 81.2245 33.7116 81.2058 33.6592V32.219L81.2432 32.2565C81.2732 32.2864 81.3555 32.6305 81.3816 32.6604L81.5537 32.8849C81.5874 32.9148 81.6098 33.057 81.636 33.0869C81.7108 33.1841 81.8455 33.1954 81.9353 33.1243C81.9689 33.1018 82.0063 33.0308 82.0363 33.0046C82.0475 32.9934 82.1073 32.9672 82.1747 32.9298ZM82.1747 30.5208V31.0482C82.0806 31.0155 81.9931 30.9661 81.9166 30.9023C81.7258 30.6667 81.8979 30.4535 82.0101 30.128C82.0363 30.1355 82.0737 30.1168 82.0999 30.1467C82.126 30.1804 82.1185 30.4011 82.1747 30.5208ZM82.1747 28.8412V29.0993L82.0924 28.9983C82.1108 28.9417 82.1386 28.8886 82.1747 28.8412ZM83.9664 32.1667V32.2565L83.9402 32.2228L83.9477 32.1742C83.9552 32.1667 83.9589 32.1667 83.9664 32.1667ZM83.9664 31.527C83.9496 31.5098 83.9308 31.4948 83.9103 31.4821C83.5998 31.4223 83.0649 31.0819 82.6722 30.8387C82.4253 30.6891 82.2158 30.5844 82.2008 30.5657C82.1892 30.5526 82.1803 30.5374 82.1747 30.5208V31.0482C82.4365 31.1642 82.8293 31.3026 83.1472 31.4185C83.3567 31.5457 83.5849 31.5944 83.6223 31.6392C83.656 31.6841 83.6747 31.8113 83.5924 31.8824L82.4552 32.7951C82.3637 32.844 82.2701 32.8889 82.1747 32.9298V33.5657L82.3355 33.4385C82.3804 33.4123 82.429 33.3936 82.4627 33.3674C82.4926 33.3412 82.6011 33.1692 82.6348 33.1467L82.8442 32.9784C82.8742 32.9485 83.2482 32.4771 83.2819 32.451L83.4727 32.3013C83.5026 32.2751 83.8205 31.7814 83.8542 31.7552C83.8841 31.7365 83.9215 31.7365 83.9664 31.7552V31.527ZM83.9664 30.2889V30.5395C83.9124 30.5021 83.8611 30.4609 83.8131 30.4161C83.7695 30.3494 83.7445 30.2723 83.7405 30.1928C83.7366 30.1132 83.7539 30.0341 83.7906 29.9634C83.8205 30.1205 83.8841 30.1804 83.9365 30.2477L83.9664 30.2889ZM83.9664 29.3013C83.2819 29.1143 82.5001 28.9422 82.4814 28.9235C82.444 28.8712 82.4814 28.7889 82.5188 28.7552C82.6647 28.643 82.9639 28.6056 83.1846 28.5158C83.0348 28.4773 82.8785 28.4714 82.7262 28.4985C82.5739 28.5256 82.4292 28.5851 82.3018 28.6729C82.3018 28.6729 82.2345 28.7552 82.1747 28.8412V29.0993L82.2345 29.1704C82.257 29.2003 82.818 29.2153 83.0762 29.2639C83.2632 29.3013 83.5998 29.3874 83.7682 29.436C83.8318 29.4622 83.8954 29.4734 83.9664 29.4884V29.3013ZM83.9664 28.5083V28.6093C83.7858 28.6027 83.6059 28.5839 83.4278 28.5532C83.4278 28.5532 83.4165 28.5345 83.4203 28.5046L83.9664 28.5083ZM84.5051 31.9647V32.6118C84.4424 32.5411 84.3749 32.4749 84.3031 32.4136C84.2208 32.3462 84.0113 32.3126 83.9851 32.2826L83.9664 32.2565V32.1667C84.045 32.1667 84.2395 32.2826 84.3293 32.2116C84.3854 32.1592 84.348 32.0919 84.3218 32.0545C84.2956 32.032 84.1123 31.8188 83.9664 31.7552V31.527C84.1273 31.658 84.3106 31.8375 84.5051 31.9647ZM84.5051 31.1642V31.3624C84.3555 31.3175 84.2096 31.2727 84.1123 31.2652C84.1011 31.2465 84.0861 31.2016 84.0936 31.1754C84.1946 31.1642 84.3854 31.1941 84.5051 31.1642ZM84.5051 30.7003V30.8762C84.3228 30.7683 84.1432 30.6561 83.9664 30.5395V30.2889C84.0599 30.3936 84.1572 30.446 84.2657 30.5283C84.318 30.5657 84.3742 30.6442 84.4228 30.6742C84.4565 30.6929 84.4826 30.6929 84.5051 30.7003ZM84.5051 29.4622V29.5894C84.3367 29.552 84.146 29.5258 83.9664 29.4884V29.3013C84.1647 29.3537 84.348 29.4098 84.5051 29.4622ZM84.5051 28.5083V28.5906C84.5013 28.5981 84.4939 28.6056 84.4864 28.6056C84.314 28.6305 84.1391 28.6317 83.9664 28.6093V28.5083C84.146 28.5083 84.3218 28.5046 84.5013 28.4971L84.5051 28.5083ZM84.5051 28.5083V28.5906C84.52 28.5682 84.52 28.527 84.5051 28.5083ZM84.5051 31.3624C84.8193 31.4559 85.1747 31.5682 85.2607 31.5008C85.2682 31.4934 85.2944 31.4634 85.2757 31.3998C85.2607 31.3624 85.2008 31.3026 85.1859 31.254C85.1593 31.1797 85.1281 31.1073 85.0924 31.037C85.0138 30.9472 84.9652 30.9996 84.7782 30.8836C84.7033 30.8462 84.6098 30.7565 84.5462 30.7191C84.5313 30.7078 84.52 30.7003 84.5051 30.7003V30.8762L84.6098 30.9472C84.6323 30.9809 84.6285 31.0856 84.5649 31.138C84.5467 31.1503 84.5265 31.1592 84.5051 31.1642V31.3624ZM84.5051 32.6118V31.9647C84.6622 32.0811 84.8562 32.1369 85.0512 32.1218C85.1535 32.1513 85.2489 32.2009 85.3318 32.2677C85.3969 32.4198 85.4434 32.5794 85.4702 32.7427C85.4851 32.8138 85.5338 32.8774 85.5412 32.941C85.5599 33.0682 85.53 33.1692 85.4963 33.1954C85.3766 33.2964 85.1298 33.0121 85.0774 32.9971C84.9203 32.956 84.722 32.9298 84.6584 32.8512C84.6323 32.8213 84.5687 32.6866 84.5462 32.6567L84.5051 32.6118ZM85.7881 30.9098V31.0557C85.6759 30.9846 85.3205 30.82 85.3018 30.7939L85.242 30.7265C85.2495 30.7003 85.2382 30.7078 85.2682 30.6816C85.3243 30.6293 85.5599 30.8088 85.5786 30.82C85.6509 30.844 85.7209 30.8741 85.7881 30.9098ZM85.7881 30.0757V30.2103C85.515 30.0607 85.0325 29.8288 84.9951 29.7988C84.852 29.6889 84.6834 29.6169 84.5051 29.5894V29.4622C84.5911 29.4921 84.6734 29.5183 84.737 29.552C84.9839 29.6455 85.2607 29.7465 85.4851 29.8699C85.5562 29.8998 85.6684 30.0083 85.7881 30.0757ZM85.7881 28.7739V29.0058C85.5113 28.9909 85.1859 28.9871 85.1148 28.9722L85.0737 28.9161C85.0774 28.8899 85.0587 28.8787 85.0924 28.8525C85.0961 28.845 85.4589 28.8076 85.7881 28.7739ZM85.7881 26.7577V27.0233C85.7245 27.3674 85.6048 27.9622 85.4777 28.0632C85.3654 28.1604 85.141 28.254 85.0587 28.1492C85.0063 28.0894 84.9914 27.7789 85.0737 27.7078L85.2569 27.5582C85.4587 27.3086 85.6365 27.0406 85.7881 26.7577ZM85.7881 27.0233V26.7577L85.8031 26.739L85.8405 26.7876L85.7881 27.0233ZM88.4739 28.5345C88.3423 28.4793 88.219 28.4063 88.1073 28.3175C87.9914 28.1791 88.126 27.9697 88.0886 27.9248C88.0624 27.8949 88.025 27.8949 87.9988 27.8612C87.9689 27.8313 87.954 27.7527 87.9278 27.7228C87.9053 27.6891 87.8866 27.6966 87.853 27.6966C87.8455 27.7677 87.8455 27.9772 87.8342 28.0781L87.4976 28.3512C87.4265 28.4073 86.6971 28.6692 86.6223 28.5719C86.5699 28.5158 86.525 28.3961 86.5624 28.3325C86.8318 27.9061 87.651 26.5782 87.4078 26.2789C87.3854 26.249 87.3629 26.2564 87.333 26.249C87.2806 26.3574 86.7869 27.3861 86.6485 27.4946C86.6148 27.517 86.5699 27.5133 86.5325 27.5395C86.5026 27.5619 86.4876 27.6667 86.4577 27.6891L86.1659 27.9173C86.0836 27.9884 85.9939 28.1156 86.0948 28.2427C86.121 28.2801 86.3305 28.3774 86.3604 28.4073C86.4053 28.4709 86.424 28.6355 86.3156 28.7178C86.3156 28.7178 86.0687 28.7515 85.7881 28.7739V29.0058C85.9295 28.9986 86.0711 29.015 86.2071 29.0544C86.2482 29.0919 86.2482 29.2639 86.2707 29.3874C86.2894 29.4697 86.3417 29.5108 86.3679 29.5707C86.4128 29.6829 86.1584 30.0532 86.1061 30.0906C86.0126 30.1654 85.8966 30.1355 85.7881 30.0757V30.2103C85.8891 30.2702 85.9602 30.3113 85.9789 30.3338C86.0051 30.3637 86.05 30.4722 86.0762 30.5021C86.1884 30.648 86.3791 30.7826 86.5774 30.7752C86.6522 30.7752 86.7794 30.7265 86.8355 30.7939C87.0861 31.0931 87.4639 31.3624 87.7146 31.6654C87.7183 31.6729 87.954 31.8824 87.823 31.9871C87.5986 32.1667 86.626 31.4186 86.5774 31.3737C86.3279 31.197 86.0638 31.0418 85.7881 30.9098V31.0557C85.8068 31.0669 85.8218 31.0744 85.8255 31.0819L85.9938 31.2839C86.0163 31.3175 86.2033 31.4372 86.2258 31.4672L86.5587 31.8824C86.7719 32.1405 87.4602 32.421 87.8455 32.4397C87.9988 32.4472 88.2083 32.5183 88.3093 32.4323C88.4253 32.3462 88.4739 32.1854 88.343 32.0208C88.3168 31.9871 88.2644 31.9759 88.2345 31.946L88.0138 31.658C87.9689 31.6093 87.5238 31.3213 87.5238 31.3176L87.3891 31.1492C87.3629 31.1193 87.1347 30.9472 87.1123 30.9173C87.1048 30.9023 87.045 30.835 87.1161 30.7752C87.2358 30.6816 87.954 30.6293 88.4739 30.6106V30.4011C87.55 30.517 86.5587 30.5806 86.3978 30.3824C86.2594 30.2066 86.4764 29.754 86.5512 29.6904C86.8355 29.4622 87.8791 30.3375 88.2233 30.0607C88.328 29.9747 88.4103 29.7801 88.4739 29.5707V29.0919C88.4069 29.3065 88.2947 29.5042 88.1447 29.6717C88.0072 29.7577 87.8503 29.8079 87.6884 29.8176C87.6323 29.8101 86.8168 29.5894 86.7345 29.4884C86.6784 29.4173 86.6036 29.1143 86.6971 29.0358C86.9327 28.845 87.8155 29.1442 88.0138 28.9871C88.1971 28.8412 88.1073 28.6467 88.2008 28.5719C88.2906 28.5046 88.4552 28.6729 88.4627 28.6879C88.4702 28.6879 88.4739 28.6916 88.4739 28.6991V28.5345ZM88.4739 27.9996V28.1081C88.4203 28.0804 88.3679 28.0504 88.3168 28.0183C88.3168 28.0183 88.3056 27.9996 88.3093 27.9697C88.3467 27.9884 88.4066 27.9959 88.4739 27.9996ZM88.4739 28.1081C88.747 28.2427 89.0649 28.3512 89.338 28.4709C89.4839 28.5345 89.626 28.6804 89.7831 28.7141C90.0263 28.7515 90.1385 28.7066 90.2731 28.5981C90.5948 28.3363 90.4303 27.6143 90.4303 27.2664C90.4003 27.2589 90.4078 27.2515 90.3741 27.2776C90.3667 27.2851 90.247 27.633 90.1834 27.6891C89.9477 27.8724 88.919 28.0258 88.4739 27.9996V28.1081ZM88.4739 30.6106C88.7544 30.5993 88.9751 30.5919 89.02 30.5993C89.7719 30.6293 90.2096 30.9023 90.621 30.5657C90.6584 30.5395 90.7407 30.4572 90.939 30.2739C90.9577 30.2552 90.9913 30.1729 90.9726 30.1392C90.939 30.1093 90.2544 29.5744 90.2283 29.5445L90.0899 29.3649C89.9851 29.2452 89.02 28.815 88.4739 28.5345V28.6991C88.5375 28.7889 88.5263 28.9422 88.4739 29.0919V29.5707C88.5824 29.219 88.6347 28.8263 88.6647 28.8001C88.8741 28.6355 90.0936 29.5894 90.0936 29.5968L90.2544 29.7839C90.2806 29.8176 90.4901 29.9447 90.5125 29.9747C90.5574 30.0345 90.5126 30.1392 90.4938 30.1617C90.4078 30.229 90.03 30.1729 89.9627 30.1841C89.6485 30.244 89.0724 30.3338 88.4739 30.4011V30.6106ZM72.2769 20.234V20.7577C71.5512 20.9036 70.7919 20.9073 70.0587 20.9485L70.0325 20.8886C70.4964 20.7764 71.0575 20.724 71.5887 20.5407C71.6934 20.5033 71.9477 20.3949 72.2769 20.234ZM74.0014 19.3063V20.0956C73.833 20.2116 73.661 20.3313 73.5899 20.35C73.1784 20.4884 72.7408 20.6679 72.2769 20.7577V20.234C72.7894 19.9946 73.4814 19.6467 74.0014 19.3063ZM77.4203 16.2727V17.2378C77.0762 17.5744 76.6946 17.9111 76.6497 18.0308C76.6273 18.1093 76.7208 18.2028 76.7657 18.2178C76.8854 18.2589 77.1772 18.2589 77.4203 18.2552V18.7003C77.3403 18.6826 77.259 18.6714 77.1772 18.6667C77.0201 18.6667 76.9939 18.7041 76.8368 18.6929C76.7358 18.6779 76.5637 18.6218 76.429 18.6106C76.2495 18.5844 76.1111 18.6143 75.9764 18.6405C75.5035 18.953 75.0558 19.3019 74.6373 19.6841C74.5924 19.8151 74.8729 20.0395 74.9178 20.1143C75.5275 21.1953 75.6547 21.7265 76.5001 22.0258C76.545 22.0407 76.7545 22.1155 77.1024 22.1978C77.1136 22.224 77.1323 22.2278 77.1211 22.2689C77.0949 22.3437 76.8106 22.3624 76.7769 22.3624C75.8268 22.2278 75.7931 22.5457 75.6024 22.4821C75.2545 22.3587 75.0375 21.7527 75.0525 21.3899C75.0525 21.3225 74.8991 20.0058 74.4652 19.8599C74.4016 19.8375 74.1996 19.9609 74.0014 20.0956V19.3063C74.3979 19.0557 74.7009 18.8126 74.7645 18.6293C74.828 18.4572 74.5999 18.3487 74.5363 18.2739C74.4727 18.1916 74.5475 18.1205 74.5475 18.0495C74.5363 17.926 74.3829 17.9111 74.3193 17.8026C74.2265 17.6153 74.144 17.4229 74.0724 17.2265C74.0986 17.2078 74.1098 17.2153 74.1547 17.2265C74.2333 17.2527 74.7083 17.7203 75.1909 17.8849L75.4714 17.9896C75.8081 18.1093 76.9452 16.9983 77.2856 16.4709L77.4203 16.2727ZM77.4203 17.2378V16.2727C77.5158 16.1426 77.5961 16.002 77.6597 15.8537C77.6746 15.7597 77.6771 15.6641 77.6672 15.5694C77.6971 15.5507 77.7121 15.5544 77.742 15.5432C77.9777 15.936 78.1011 16.2652 77.9964 16.5644C77.8458 16.8213 77.6507 17.0493 77.4203 17.2378ZM77.4203 18.7003V18.2552C77.6111 18.2552 77.7682 18.2477 77.8131 18.2664C77.9141 18.3001 78.1946 18.5208 78.1497 18.6554C78.1011 18.7826 77.6971 18.7377 77.4203 18.7003ZM57.3967 13.0781C56.8468 12.82 56.1997 12.5021 56.0912 12.4871C56.0388 12.4834 55.9752 12.4684 55.9116 12.4647L55.9004 12.5657C56.267 12.7864 56.5999 13.0669 56.9964 13.2165C57.1342 13.2661 57.268 13.3261 57.3967 13.3961V13.0781ZM57.3967 12.0233V12.8238C57.3593 12.8051 57.3218 12.7751 57.3106 12.7415C57.2657 12.6218 57.277 12.4572 57.2508 12.3113C57.2321 12.2028 57.1236 12.0121 57.1311 11.9672C57.1339 11.946 57.1448 11.9267 57.1616 11.9135C57.1783 11.9002 57.1996 11.894 57.2209 11.8961C57.2927 11.9163 57.355 11.9614 57.3967 12.0233ZM57.3967 10.6205V11.537H57.3405C57.1498 11.5033 56.9927 11.4098 56.9291 11.1741C56.858 10.931 56.9104 10.6392 56.8917 10.3849C56.8842 10.2727 56.7757 10.1268 56.7944 10.0108C56.8019 9.96592 56.8318 9.936 56.8767 9.94348C57.0039 9.96218 57.2321 10.2914 57.3967 10.6205ZM57.3967 11.537V10.6205C57.4775 10.7697 57.5403 10.9279 57.5837 11.0919C57.5999 11.1945 57.6037 11.2988 57.5949 11.4023C57.5837 11.5183 57.4752 11.537 57.3967 11.537ZM57.3967 12.8238V12.0233C57.5448 12.2201 57.6389 12.4522 57.6697 12.6966C57.651 12.82 57.5051 12.85 57.4565 12.8387L57.3967 12.8238ZM59.4054 14.2677V15.0869C59.0597 14.8172 58.7392 14.5167 58.4478 14.1891C58.1422 13.8701 57.7873 13.6023 57.3967 13.3961V13.0781C57.7221 13.239 58.0139 13.3699 58.1485 13.4298C58.4328 13.542 58.9603 14.0395 59.4054 14.2677ZM59.4054 10.1118V10.3998C59.3873 10.4271 59.3746 10.4576 59.368 10.4896C59.3605 10.527 59.3792 10.5569 59.4054 10.5831V11.4023C59.3418 11.421 59.2894 11.4921 59.2857 11.537C59.2782 11.5557 59.2857 11.7091 59.3792 11.7203H59.4054V13.0146C59.3777 13.037 59.3437 13.0501 59.3081 13.052L59.1136 13.022C59.0987 12.9958 59.0725 12.9884 59.0799 12.9472C59.0874 12.9397 59.3156 12.2552 59.3343 12.1392C59.3792 11.8288 58.8967 11.6642 58.9228 11.522C58.9341 11.4397 59.2969 11.1816 59.3493 10.8824C59.3605 10.8001 59.3605 10.6467 59.2258 10.628C59.1585 10.6168 59.1585 10.6729 59.0799 10.7627C58.9939 10.8637 58.8667 10.9534 58.8144 11.0769C58.7416 11.2638 58.6902 11.4583 58.661 11.6567L58.5712 12.2552C58.56 12.33 58.4029 12.446 58.3842 12.4385C58.1224 12.4011 58.1223 11.5183 58.1223 11.5183C58.171 11.2003 58.949 10.052 58.8443 9.99211L58.9079 9.99959C58.949 10.0258 58.9602 10.0707 58.9528 10.1118C58.949 10.1567 58.8705 10.3101 58.8667 10.355C58.8518 10.4111 58.8443 10.5345 58.9528 10.5457C58.9976 10.5532 59.0313 10.5345 59.0538 10.4934C59.151 10.3737 59.2707 10.2465 59.4054 10.1118ZM59.4054 7.72527V8.43226C59.3141 8.4365 59.2226 8.43148 59.1323 8.41729L58.6685 8.30881C58.6236 8.30507 58.4777 8.29759 58.3618 8.27889C58.6947 8.10682 59.0051 7.95345 59.4054 7.72527ZM59.5326 14.3313V15.1804C59.4915 15.1474 59.4491 15.1162 59.4054 15.0869V14.2677L59.5326 14.3313ZM59.5326 10.6355V12.8948C59.5007 12.9446 59.457 12.9857 59.4054 13.0146V11.7203C59.4802 11.7091 59.5251 11.5931 59.5326 11.5557C59.5401 11.5295 59.5326 11.4136 59.4503 11.4023H59.4054V10.5831C59.4353 10.6093 59.4802 10.628 59.5176 10.6355H59.5326ZM59.5326 9.99959V10.2652C59.4877 10.3101 59.4353 10.3549 59.4054 10.3998V10.1118L59.5326 9.99959ZM59.5326 7.6542V8.41729C59.4908 8.4264 59.4482 8.43142 59.4054 8.43226V7.72527C59.4502 7.70609 59.4928 7.68228 59.5326 7.6542ZM59.5326 12.8948V10.6355C59.6448 10.6542 59.6784 10.6018 59.6972 10.4896C59.7084 10.4073 59.7084 10.2914 59.6223 10.2165C59.5887 10.2278 59.5625 10.2465 59.5326 10.2652V9.99959C59.959 9.63674 60.4902 9.31505 60.9166 9.30008C61.0288 9.2926 61.2159 9.22527 61.2607 9.22901L61.4478 9.26268C61.5974 9.28139 61.6984 9.58812 61.6984 9.62553C61.6834 9.67042 61.5338 9.8537 61.5263 9.89859L61.4889 10.1642C61.474 10.239 61.1149 10.9572 61.1074 10.9759L61.07 11.2228C61.0625 11.2677 60.9353 11.4397 60.9091 11.5482C60.8343 11.8774 60.7445 12.315 60.7183 12.446C60.651 12.7228 60.6099 12.8051 60.6061 12.85C60.5986 12.8949 60.6099 13.0407 60.6061 13.0856C60.5799 13.2614 60.4715 13.4298 60.2732 13.3961C60.0413 13.3662 59.9889 13.1043 59.7907 12.8425L59.7982 12.7864C59.8243 12.7677 59.8168 12.7677 59.8617 12.7752C59.9066 12.7789 60.06 12.9135 60.1049 12.921C60.3144 12.951 60.5612 12.1505 60.6061 11.8961C60.6996 11.3724 60.7184 11.1293 60.7258 11.0844C60.7371 11.0096 61.171 9.98462 61.2009 9.77514C61.2159 9.68163 61.1635 9.56192 61.0438 9.54322C60.9278 9.52826 60.0188 9.77515 59.9814 10.0183C59.9777 10.0632 60.0076 10.3549 59.9964 10.3998C59.9889 10.4447 59.9253 10.5345 59.9179 10.5756C59.8617 10.931 60.4004 10.9534 60.3443 11.3313C60.3144 11.5295 59.8056 11.7577 59.7159 12.0008L59.5513 12.8649C59.5476 12.8763 59.5412 12.8866 59.5326 12.8948ZM59.5326 15.1804V14.3313C59.6036 14.3537 59.6672 14.3761 59.7271 14.3874L59.9889 14.4248C60.0001 14.4248 60.5538 14.623 60.7183 14.6492C61.07 14.6978 61.4291 14.6081 61.5376 14.623L61.8256 14.6679C61.8443 14.6904 61.8443 14.7091 61.8555 14.7352C61.2346 14.8774 60.1086 15.4235 60.0188 15.4086C59.8424 15.368 59.6766 15.2902 59.5326 15.1804ZM62.5475 6.5133V7.10807C62.166 7.47839 61.373 7.82627 61.343 8.00582C61.3243 8.16292 61.7208 8.38737 61.6984 8.54447C61.6722 8.72403 61.1261 8.76143 60.9877 8.78013C60.7894 8.79884 60.5986 8.93351 60.4004 8.97839L60.3705 8.91853C60.5725 8.78013 61.0101 8.64547 61.0513 8.39858C61.055 8.3537 61.0176 8.09934 61.0288 8.05445C61.0625 7.84123 61.8555 7.3699 61.8929 7.15295C61.9004 7.07065 61.8181 7.01455 61.7919 7.00707C61.2239 7.2754 60.6922 7.61477 60.2096 8.01705C60.0309 8.21747 59.7943 8.35734 59.5326 8.41729V7.6542L59.5887 7.62427C60.262 7.24272 61.1448 7.04821 61.8293 6.74147C62.1024 6.61429 62.1286 6.3936 62.3455 6.42352C62.4187 6.43804 62.4877 6.46872 62.5475 6.5133ZM62.5475 7.10807C62.6445 7.02634 62.7138 6.91657 62.7458 6.79386C62.757 6.70408 62.656 6.58812 62.5475 6.5133V7.10807ZM42.7558 10.2726C42.7483 10.2726 42.7408 10.2727 42.7296 10.2652C42.6735 10.4634 42.6211 11.2752 42.363 11.32C42.1984 11.3462 41.6486 10.5121 41.1473 10.6018C41.1062 10.6093 41.08 10.6355 41.065 10.6804C41.1174 10.7215 42.176 11.4921 42.2022 11.6492C42.2396 11.8362 42.0713 11.956 41.9665 12.1729C41.7907 12.5507 41.7458 13.0931 41.3643 13.441C41.2109 13.5794 40.9565 13.9497 40.7882 14.0619C40.5713 14.2078 40.2533 14.4061 40.1149 14.6043C40.1822 14.6342 40.2346 14.6492 40.2795 14.6417C40.3244 14.6268 40.489 14.5146 40.5825 14.4622C42.4939 13.3961 42.2994 12.3375 42.6847 12.2664C42.7109 12.2589 42.7371 12.2589 42.7558 12.2589V10.2726ZM42.7558 8.72403V8.82876C42.5837 9.02702 42.6024 9.37116 42.2097 9.68164C41.9628 9.87989 41.5289 9.90233 41.2558 10.0819C41.0164 10.239 40.6536 10.5569 40.5825 10.5719C40.5376 10.5756 40.4815 10.5382 40.474 10.4934C40.4254 10.1829 40.9154 9.79759 41.08 9.63674C41.282 9.44223 41.4728 9.06442 41.6486 8.81753C41.656 8.84372 41.6748 8.82877 41.6822 8.87366C41.6935 8.92603 41.6299 9.10931 41.6373 9.15419C41.6635 9.30008 41.8206 9.2552 41.8618 9.25145C41.9291 9.23649 42.4453 8.91854 42.7558 8.72403ZM42.7558 7.67664C42.6473 7.75145 42.5314 7.82253 42.5127 7.85994L42.565 7.89734L42.7558 7.78886V7.67664ZM42.7558 6.92478V7.30631C42.6082 7.36179 42.4696 7.43868 42.3443 7.5345C42.2171 7.63175 42.0937 7.76267 41.9665 7.85245C41.7097 8.04962 41.4139 8.18989 41.0987 8.26392L41.0276 8.27889C41.0014 8.26019 41.0014 8.27141 40.9977 8.22652C40.9902 8.22278 41.9216 7.56816 41.8281 7.02202C41.757 6.633 41.1885 6.47963 40.9191 6.10557C40.9378 6.07938 40.9565 6.05694 41.0014 6.04946C41.1885 6.01954 42.2097 6.22527 42.3107 6.23275C42.7371 6.25146 42.5463 6.78637 42.7558 6.92478ZM42.7558 7.78886V7.67664C42.8755 7.59808 42.9915 7.50457 42.9727 7.40731C42.9647 7.37196 42.9437 7.34089 42.914 7.32014C42.8843 7.2994 42.8479 7.29047 42.8119 7.2951L42.7558 7.30631V6.92478C42.8044 6.95844 42.868 6.96967 42.9653 6.95096C43.0102 6.94348 43.0925 6.89485 43.1373 6.88736L43.4927 6.82378C43.6012 6.80508 43.7396 6.55819 43.9229 6.52452C44.0239 6.50582 44.6037 6.5133 44.6336 6.71155C44.656 6.81255 44.2595 7.05943 44.2034 7.07065L43.9042 7.12302C43.8555 7.13051 43.7396 7.25022 43.6498 7.28762C43.3767 7.42229 43.0588 7.61679 42.7558 7.78886ZM42.7558 8.82876V8.72403L42.8643 8.66043C43.0663 8.52576 43.0214 8.46966 43.2009 8.436C43.5376 8.37989 44.1024 8.42478 44.1922 8.95221C44.2146 9.08313 44.065 9.23649 44.0014 9.25145C43.9565 9.2552 43.5862 9.16916 43.5413 9.18038C43.4777 9.18786 43.3019 9.35245 43.2458 9.35619L43.1299 9.37864C43.1224 9.35245 43.1037 9.3562 43.0962 9.31505C43.0925 9.26268 43.3281 8.91853 43.3206 8.8699C43.3019 8.75394 43.1373 8.67166 43.0326 8.69037C42.9268 8.70191 42.8285 8.75101 42.7558 8.82876ZM45.5239 13.441V13.9684C45.378 14.0245 45.1049 14.133 45.0675 14.1405C44.4653 14.249 44.4017 14.1629 43.5825 13.5233C43.4366 13.4073 43.2458 12.2851 42.7558 12.2589V10.2726C42.9466 10.3175 43.3917 10.5382 43.4216 10.7552L43.4852 11.1106C43.5301 11.35 43.0102 11.7652 43.0214 11.8549C43.0588 12.0756 44.6299 13.0295 44.8393 13.1417C45.06 13.2689 45.2957 13.3662 45.5239 13.441ZM45.5239 13.9684V13.441C45.6959 13.5046 45.8605 13.5495 46.0176 13.5869C46.2608 13.6505 46.4702 13.6505 46.6348 13.7963C46.6423 13.8225 46.6236 13.8487 46.6049 13.8712L46.3169 13.9235C46.3131 13.9235 45.8082 13.8973 45.6062 13.9347L45.5239 13.9684ZM24.9429 16.3998V16.6168C24.8891 16.6276 24.8332 16.6183 24.7858 16.5906C24.7708 16.5644 24.7484 16.5569 24.7521 16.527C24.7596 16.5192 24.7659 16.5104 24.7708 16.5008L24.8157 16.4709L24.9429 16.3998ZM24.9429 13.2839C24.7259 13.4223 24.7259 13.441 24.5987 13.4859C24.5426 13.5233 24.4229 13.5569 24.3668 13.5943C24.1873 13.6617 24.0676 13.6879 23.888 13.7402L23.8693 13.7515C23.8656 13.7589 23.8506 13.7627 23.8394 13.7702C23.8319 13.8038 23.8506 13.8487 23.8843 13.8525C23.9329 13.9235 24.1386 13.8936 24.2209 13.9048C24.4341 13.9422 24.6249 13.9722 24.8531 13.9609L24.9429 13.9535V13.2839ZM25.7508 15.6367V16.1717C25.7172 16.1979 25.6873 16.2166 25.605 16.3063C25.4441 16.4111 25.3356 16.4522 25.186 16.5457C25.1411 16.5532 25.0139 16.6093 24.969 16.6093C24.9616 16.6168 24.9503 16.6168 24.9429 16.6168V16.3998C25.0439 16.3362 25.1673 16.2727 25.2533 16.2203C25.373 16.0968 25.3244 16.1006 25.3618 16.0557C25.3992 16.0108 25.5713 15.951 25.5676 15.9098C25.5601 15.8836 25.6685 15.7527 25.7508 15.6367ZM25.7508 13.2128V14.4958C25.6723 14.5856 25.5863 14.6342 25.5526 14.6642C25.4965 14.7315 25.3955 15.0719 25.272 15.0457C25.272 14.9896 25.2982 14.8325 25.3431 14.7988C25.3693 14.6717 25.4404 14.6081 25.4628 14.4884C25.4815 14.3612 25.4703 14.1704 25.373 14.0507C25.3169 14.0395 25.3057 13.9796 25.2533 13.9684C25.186 13.9348 25.1598 13.9684 25.0888 13.9422C25.0626 13.9497 24.999 13.9497 24.9429 13.9535V13.2839L24.9578 13.2764C25.0588 13.2502 25.1523 13.2502 25.2084 13.2315C25.3169 13.1978 25.4067 13.1978 25.5264 13.1978C25.6015 13.1886 25.6776 13.1937 25.7508 13.2128ZM25.7508 14.4958C25.7614 14.4891 25.7703 14.4802 25.777 14.4697C25.8331 14.3986 25.8631 14.2864 25.9154 14.234C25.9865 14.1517 25.9977 14.1891 26.0464 14.1218C26.1735 13.9722 26.1735 13.9497 26.2409 13.8038C26.297 13.6804 26.2596 13.5981 26.2259 13.5046C26.1885 13.3886 25.9528 13.2614 25.7508 13.2128V14.4958ZM25.7508 16.1717V15.6367C25.7749 15.6089 25.7962 15.5788 25.8144 15.547C25.8518 15.5096 25.9005 15.3637 25.9641 15.2702C26.0326 15.1641 26.105 15.0605 26.181 14.9597C26.2521 14.8587 26.2783 14.8362 26.2895 14.7876C26.3905 14.7165 26.5065 14.3724 26.5513 14.2527L26.772 13.9722C26.7833 13.9235 26.8057 13.8712 26.8244 13.8263C26.8431 13.7702 26.888 13.6692 26.9516 13.6505C27.0451 13.6168 27.3892 13.5944 27.4528 13.6879C27.4566 13.7253 27.3892 13.8525 27.3892 13.8525C27.3892 13.8525 27.3331 14.0133 27.2658 14.1218C27.2434 14.1629 27.2022 14.2864 27.1723 14.3238C27.09 14.4135 27.0077 14.5407 26.9179 14.6642C26.8556 14.7572 26.7855 14.8448 26.7084 14.926C26.6263 15.0837 26.5326 15.235 26.4279 15.3786C26.3867 15.4348 26.3344 15.4909 26.2895 15.5545C26.1365 15.7056 25.9999 15.8723 25.8818 16.052C25.8443 16.0981 25.8002 16.1384 25.7508 16.1717ZM28.6461 18.5657C28.5294 18.479 28.426 18.3757 28.3394 18.2589C28.2945 18.1916 28.2122 18.1392 28.1486 18.0831C28.1262 18.0457 28.085 18.027 28.0663 17.9934C28.0027 17.9298 27.8755 17.8662 27.8194 17.8175C27.7745 17.7727 27.7745 17.7539 27.7633 17.7016C27.7296 17.6567 27.6997 17.6118 27.6623 17.5744C27.6661 17.5557 27.6661 17.5445 27.6922 17.537C27.883 17.4659 27.8568 17.2714 27.9728 17.1929C27.9728 17.1929 28.2271 16.8637 28.2646 16.8375C28.302 16.7402 28.2945 16.6804 28.3356 16.5831L28.3468 16.4522C28.2945 16.3699 28.2571 16.3101 28.1748 16.2652C28.0091 16.3445 27.8584 16.4521 27.7296 16.5831C27.7109 16.6392 27.7558 16.6617 27.7446 16.7178C27.6856 16.7513 27.6282 16.7875 27.5725 16.8263C27.5463 16.8487 27.5164 16.8899 27.4715 16.8936L27.4641 16.845C27.4566 16.729 27.4977 16.7365 27.5015 16.6916C27.5202 16.6654 27.5464 16.6355 27.5651 16.6018L27.6062 16.426C27.6287 16.2988 27.6735 16.2203 27.6997 16.1006C27.7109 15.9248 27.7708 15.7415 27.7296 15.5245C27.8007 15.4796 27.8456 15.2515 27.9541 15.0719C28.0177 14.9522 27.984 14.926 27.9803 14.9148C27.9728 14.8961 27.9204 14.825 27.8905 14.7801C27.782 14.6642 27.2733 15.1056 27.3069 15.0719C27.2464 15.1228 27.1841 15.1715 27.1199 15.2178C27.0786 15.2698 27.0362 15.321 26.9927 15.3712C26.9553 15.5545 26.8169 15.7078 26.7459 15.8799C26.7159 15.9547 26.7084 16.0333 26.6636 16.1006C26.6823 16.2914 26.5065 16.4522 26.4429 16.6093C26.4167 16.6916 26.3868 16.845 26.3157 16.8936C26.196 16.9086 26.1099 16.9348 25.9977 16.9086C25.9528 16.9198 25.878 16.9086 25.8369 16.9198L25.8182 16.9348C25.7957 17.0021 25.7546 17.0544 25.7508 17.0993V17.1255L25.7546 17.1293C25.7808 17.2639 25.878 17.3126 25.9416 17.4734C25.9528 17.5445 26.0875 17.6754 26.0987 17.7465C26.1885 17.8811 26.2259 18.0121 26.3344 18.1841C26.4878 18.4198 26.7159 18.6854 26.9516 18.6592C27.0185 18.6222 27.0682 18.5604 27.09 18.4871C27.1087 18.431 27.1012 18.4273 27.1087 18.3412C27.1162 18.2739 27.1648 18.1654 27.1798 18.0682C27.1835 18.0083 27.1461 17.9634 27.1461 17.9185C27.0219 17.7225 26.9034 17.5229 26.7907 17.32C26.8094 17.1854 26.9553 17.0731 27.0638 17.0021C27.1162 17.0096 27.1386 16.9534 27.1723 16.9722C27.1985 17.0096 27.1611 17.0544 27.1648 17.0993C27.1648 17.0844 27.2471 17.5744 27.2247 17.5295C27.2284 17.5931 27.3556 17.6492 27.4079 17.6642C27.4641 17.7465 27.5277 17.8175 27.58 17.9036C27.5552 18.0353 27.5001 18.1595 27.4192 18.2664C27.4005 18.3225 27.4154 18.2926 27.3556 18.4048C27.2995 18.4834 27.2471 18.5844 27.191 18.6592C27.1461 18.7677 27.1087 18.8836 27.0713 18.9921C26.9366 19.3288 26.974 19.1604 26.9067 19.3699C26.8365 19.5065 26.7789 19.6493 26.7346 19.7963C26.671 19.9048 26.5887 20.0021 26.4728 20.148L26.4054 20.4435C26.4354 20.5033 26.4803 20.4771 26.5364 20.5033C26.6636 20.5669 26.7907 20.6492 26.9104 20.7165C27.0339 20.7427 27.1648 20.6156 27.2621 20.5445C27.2733 20.4884 27.3182 20.4136 27.3369 20.35C27.3631 20.3051 27.3556 20.2677 27.3743 20.2303C27.3743 20.0694 27.4454 19.8599 27.4828 19.6841C27.5164 19.5607 27.5202 19.5345 27.5351 19.4597C27.5351 19.4036 27.58 19.2315 27.6249 19.2053C27.6548 19.0781 27.6885 18.9846 27.7184 18.8687C27.7895 18.633 27.7558 18.4497 27.8531 18.2851C27.9354 18.3038 28.0439 18.6929 28.085 18.7639C28.0626 18.9136 27.8381 18.9846 27.8531 19.138C28.0027 19.2951 28.3917 19.4559 28.403 19.4597L28.5825 19.5607C28.6012 19.5757 28.6199 19.5757 28.6461 19.5794V18.5657ZM28.6461 17.1293V17.522C28.5628 17.5117 28.4802 17.4955 28.3992 17.4734C28.3843 17.4734 28.3169 17.3986 28.3543 17.3462C28.3543 17.3387 28.3656 17.3275 28.3805 17.32C28.4548 17.2386 28.5452 17.1736 28.6461 17.1293ZM28.6461 19.5794V18.5657C28.6534 18.5737 28.6624 18.58 28.6723 18.5844C28.8168 18.7804 28.9106 19.0092 28.9453 19.2502C28.9491 19.3699 28.8219 19.542 28.8219 19.542C28.8219 19.542 28.7209 19.5794 28.6461 19.5794ZM29.0089 17.0283V17.7016L28.8818 17.6081C28.8294 17.5856 28.7845 17.5557 28.7359 17.5445L28.6461 17.522V17.1293C28.7595 17.0726 28.8826 17.0383 29.0089 17.0283ZM29.0089 17.7016V17.0283C29.115 17.019 29.2218 17.0228 29.3269 17.0395C29.383 17.0545 29.5027 17.0657 29.5663 17.1106C29.6411 17.1442 29.9291 17.3574 29.9516 17.436C29.9516 17.4659 29.9516 17.5033 29.9591 17.5295L29.9927 17.6717C29.9591 17.8362 29.8319 17.8924 29.6935 17.9821C29.6374 17.9934 29.5775 18.0121 29.5214 18.0195C29.4653 18.0121 29.4092 17.9747 29.3493 17.9672C29.2932 17.9298 29.2633 17.8924 29.2109 17.84C29.166 17.8026 29.1399 17.8026 29.0763 17.7539C29.0538 17.7315 29.0314 17.7203 29.0089 17.7016ZM9.85687 27.9136C9.85687 27.921 9.85686 27.921 9.84938 27.921C9.83816 27.9397 9.75587 28.022 9.84938 28.0856L9.85687 28.0707V28.0781C9.8419 28.0781 9.83068 28.0781 9.81197 28.0669C9.77831 28.0333 9.78579 27.9996 9.8045 27.9809C9.81198 28.022 9.79327 28.022 9.8232 28.052L9.85687 28.0669V28.0707C9.83797 28.0671 9.82009 28.0595 9.8045 28.0482C9.82249 28.0488 9.84023 28.0526 9.85687 28.0594V27.9136ZM10.5227 27.33V27.85C10.2496 27.8537 10.0028 27.9248 9.85687 28.0707V28.0781C9.87557 28.0781 9.89427 28.0707 9.9055 28.0669C9.89427 28.0594 9.87557 28.0669 9.85687 28.0669V28.0707L9.9055 28.0669C9.88679 28.0594 9.87557 28.0594 9.85687 28.0594V27.9136C9.92046 27.8612 10.2796 27.6031 10.3057 27.5694L10.5227 27.33ZM12.797 33.1056V33.3113C12.7259 33.3151 12.6623 33.33 12.6062 33.3412C12.5862 33.3154 12.5744 33.2841 12.5726 33.2515C12.6497 33.2065 12.7246 33.1578 12.797 33.1056ZM12.797 27.7864V27.7976C12.782 27.7864 12.7783 27.7752 12.7596 27.7677L12.797 27.8238V29.2265C12.7355 29.1017 12.6459 28.9928 12.5352 28.9086L11.7421 28.2053C11.3871 27.9532 10.9576 27.828 10.5227 27.85V27.33L10.605 27.2328C11.1324 26.6417 12.2322 27.2253 12.4903 27.4572C12.5239 27.4871 12.5988 27.5507 12.7708 27.7527L12.797 27.7864ZM13.8556 32.0208V33.0944C13.6274 33.2589 13.1561 33.2664 12.797 33.3113V33.1056C12.999 32.9784 13.2608 32.8101 13.2795 32.7839C13.4628 32.5744 13.3805 32.5295 13.6798 32.1929C13.7359 32.1293 13.7995 32.0732 13.8556 32.0208ZM13.8556 29.754V30.3113L13.4815 29.9709C13.3918 29.8924 13.2721 29.7166 13.1898 29.6343L12.9429 29.4173C12.8771 29.3688 12.8265 29.3027 12.797 29.2265V27.8238C12.8007 27.835 12.8157 27.8425 12.8269 27.8537L12.797 27.7976V27.7864C12.999 28.0594 13.1262 28.4784 13.2721 28.8637C13.2908 28.9161 13.5751 29.3649 13.8556 29.754ZM13.8556 25.557V26.35C13.6274 26.032 13.3918 25.6654 13.4367 25.6131C13.489 25.5569 13.6574 25.5457 13.8556 25.557ZM13.8556 33.0944V32.0208C14.2259 31.7365 14.6561 31.729 15.0451 32.0769C15.1499 32.1742 15.2135 33.7864 15.0189 34.224C15.0189 34.224 15.0002 34.2427 14.9666 34.2128C14.9554 34.1978 14.9479 33.8874 14.7945 33.5956C14.7721 33.5582 14.7758 33.4834 14.7534 33.4572C14.6037 33.2926 14.5027 33.1056 14.3456 32.9672C14.2559 32.8849 14.0202 32.8961 13.9454 33.0046C13.9224 33.0407 13.8918 33.0714 13.8556 33.0944ZM15.2584 35.7614V35.9709C15.2284 35.8811 15.2135 35.8063 15.2546 35.7689L15.2584 35.7614ZM15.2584 31.138V31.7103C15.1107 31.5381 14.9672 31.3622 14.8282 31.1829L13.8556 30.3113V29.754C13.9841 29.9435 14.1307 30.1201 14.2933 30.2814L15.2584 31.138ZM15.2584 26.1106V27.7789L14.1661 26.7465C14.0592 26.617 13.9557 26.4848 13.8556 26.35V25.557C14.2484 25.5831 14.7721 25.6954 14.7945 25.7141L15.2209 26.0956C15.2284 26.1031 15.2396 26.1031 15.2584 26.1106ZM15.7858 35.5707V36.446C15.6747 36.4432 15.5668 36.4081 15.4753 36.345C15.3867 36.2305 15.3137 36.1047 15.2584 35.9709V35.7614C15.3406 35.6717 15.5838 35.7988 15.7409 35.623L15.7858 35.5707ZM15.7858 31.4485V32.3761C15.7314 32.2065 15.6348 32.0533 15.5052 31.931L15.2658 31.7178C15.2583 31.7178 15.2584 31.7178 15.2584 31.7103V31.138L15.3219 31.1941C15.393 31.2577 15.5838 31.355 15.7858 31.4485ZM15.7858 29.2527H15.7671L15.7596 29.1779C15.7633 29.2003 15.7596 29.2452 15.7746 29.2602C15.7746 29.2602 15.7783 29.2527 15.7858 29.2527ZM15.7858 28.8525V29.2527H15.7671L15.7596 29.1779C15.7409 29.2003 15.7297 29.2415 15.7671 29.2714C15.7746 29.2789 15.7783 29.2826 15.7858 29.2826L15.7783 29.2789C15.696 29.2003 15.7371 29.0358 15.7858 28.8525ZM15.7858 25.9759V26.1854C15.6736 26.1667 15.5726 26.1779 15.5202 26.2377C15.4566 26.3126 15.5389 26.421 15.5838 26.4659C15.61 26.4846 15.6549 26.5482 15.7858 26.638V28.1791C15.7035 28.0856 15.6661 28.0707 15.6362 28.0482C15.6025 28.022 15.4304 27.8874 15.3182 27.8313L15.2584 27.7789V26.1106C15.4393 26.0891 15.6167 26.0439 15.7858 25.9759ZM15.7858 29.2527C15.8007 29.2452 15.812 29.2265 15.8307 29.1891C15.8381 29.2228 15.8232 29.2714 15.812 29.2826C15.8232 29.2714 15.8232 29.2265 15.8232 29.2265C15.812 29.2415 15.7933 29.2452 15.7858 29.2527ZM15.8569 35.4772V36.4535C15.8307 36.446 15.8045 36.446 15.7858 36.446V35.5707C15.8118 35.5413 15.8356 35.5101 15.8569 35.4772ZM15.8569 31.4821V32.6492C15.8381 32.557 15.8143 32.4658 15.7858 32.3761V31.4485C15.8102 31.4581 15.834 31.4693 15.8569 31.4821ZM15.8569 28.5607C15.8367 28.6588 15.813 28.7561 15.7858 28.8525V29.2527C15.7933 29.2452 15.812 29.2415 15.8232 29.2265C15.8232 29.2265 15.8232 29.2714 15.812 29.2826C15.812 29.2826 15.8045 29.2976 15.7858 29.2826C15.812 29.3051 15.8307 29.2901 15.8307 29.2901C15.8381 29.2602 15.8419 29.234 15.8569 29.2003V28.5607ZM15.8569 28.4896V28.527L15.8381 28.5682L15.8569 28.4896ZM15.8569 26.6791V28.2951C15.852 28.276 15.843 28.2581 15.8307 28.2427L15.7858 28.1791V26.638L15.8569 26.6791ZM15.8569 25.9422V26.1966L15.7858 26.1854V25.9759L15.8569 25.9422ZM15.8569 28.527C15.8726 28.4918 15.8791 28.4532 15.8756 28.4148L15.8569 28.4896V28.527ZM15.9204 35.35V36.4535H15.8569V35.4772C15.8839 35.438 15.9054 35.3952 15.9204 35.35ZM15.9204 31.5083V35.0133C15.8943 34.8425 15.8831 34.6698 15.8868 34.4971C15.8868 33.9584 15.9653 33.229 15.8569 32.6492V31.4821L15.9204 31.5083ZM15.9204 26.7203V29.0245C15.8943 29.0806 15.8756 29.1442 15.8569 29.2003V28.5607C15.8795 28.4736 15.8795 28.3822 15.8569 28.2951V26.6791L15.9204 26.7203ZM15.9204 25.9235V26.2116C15.8943 26.2041 15.8756 26.1966 15.8569 26.1966V25.9422L15.9204 25.9235ZM16.3469 31.7215V32.9111C16.287 32.8325 16.2122 32.6866 16.1112 32.8101C16.0327 32.8924 16.2047 33.1841 16.2122 33.1954C16.2683 33.3861 16.3057 33.6068 16.3469 33.8425V36.4011C16.2079 36.4383 16.0643 36.4559 15.9204 36.4535V35.35C15.9466 35.2527 15.9317 35.1592 15.9204 35.0133V31.5083C16.1224 31.6018 16.3057 31.6916 16.3469 31.7215ZM16.3469 25.7215V28.7253C16.2811 28.7208 16.2152 28.7309 16.1538 28.7549C16.0923 28.7788 16.037 28.8159 15.9915 28.8637C15.9611 28.9141 15.9372 28.9681 15.9204 29.0245V26.7203L15.9317 26.7315C16.1224 26.84 16.1673 26.7764 16.2646 26.6679C16.388 26.5295 16.3506 26.451 16.2234 26.3425C16.129 26.285 16.027 26.2409 15.9204 26.2116V25.9235C16.0738 25.8599 16.2234 25.7926 16.3469 25.7215ZM16.5339 34.9123V36.3375C16.4734 36.3637 16.4108 36.385 16.3469 36.4011V33.8425C16.4105 34.1979 16.4591 34.5794 16.5339 34.9123ZM16.5339 31.8824V32.9784C16.4876 32.9738 16.4414 32.9675 16.3955 32.9597C16.3843 32.956 16.3656 32.9373 16.3469 32.9111V31.7215L16.5152 31.8749C16.5152 31.8749 16.5227 31.8824 16.5339 31.8824ZM16.5339 25.6018V28.8001C16.4792 28.7592 16.4147 28.7334 16.3469 28.7253V25.7215C16.4013 25.6913 16.4538 25.6575 16.504 25.6205L16.5339 25.6018ZM16.5339 28.8001V25.6018C16.5751 25.5944 16.6199 25.6056 16.6424 25.6318C16.7958 25.7664 16.8593 26.9784 16.9379 27.1954C17.0127 27.4161 16.8481 27.5956 16.878 27.835C16.8949 27.9327 16.9347 28.025 16.994 28.1043L17.1773 28.2689C17.5065 28.5607 17.5327 30.2926 17.5214 30.4834C17.4765 30.4011 16.7845 29.017 16.5564 28.8151C16.5489 28.8076 16.5414 28.8001 16.5339 28.8001ZM16.5339 32.9784V31.8824C16.6237 31.9273 16.9379 32.0545 16.979 32.0956C17.1137 32.2116 17.3419 32.6043 17.1848 32.7914C17.0763 32.9036 16.7845 32.9859 16.5339 32.9784ZM16.5339 36.3375V34.9123L16.605 35.1592C16.6499 35.3163 17.0314 35.8961 16.7845 36.1729C16.7166 36.2485 16.6303 36.3053 16.5339 36.3375ZM18.8681 29.0694V30.2477C18.8531 30.2552 18.8456 30.2627 18.8419 30.2702C18.8082 30.3076 18.6137 30.6293 18.5875 30.6704C18.4603 30.8088 18.4342 30.8649 18.1948 30.9173C18.176 30.8986 18.1536 30.8537 18.1873 30.8163C18.2172 30.7826 18.2995 30.7452 18.3257 30.7116C18.4865 30.5358 18.509 30.2477 18.6249 30.0457C18.681 29.9335 18.5726 29.7091 18.5052 29.5819C18.4865 29.552 18.4603 29.4547 18.4903 29.4248C18.4977 29.4173 18.7521 29.2415 18.7708 29.2153L18.8681 29.0694ZM18.8681 30.2477C18.9429 30.1841 19.0701 30.1841 19.1636 30.2702C19.3731 30.4535 19.5825 31.4111 19.59 31.4111C19.6237 31.4447 19.6349 31.426 19.6611 31.426L19.7471 31.3288C20.0015 31.037 19.5451 29.8998 19.5339 29.8101L19.8257 29.4809C19.9267 29.3724 19.9603 28.9609 19.8257 28.8412C19.691 28.7253 19.2608 28.5607 19.014 28.8412C18.9605 28.9141 18.9118 28.9903 18.8681 29.0694V30.2477ZM15.2584 51.2889V52.7103C15.2265 52.237 15.204 51.7631 15.191 51.2889H15.2584ZM15.2584 48.2664V49.8076H15.1835C15.191 49.2876 15.2097 48.7714 15.2396 48.259L15.2584 48.2664ZM15.7858 54.2702V55.8076L15.61 55.8338C15.5266 55.3258 15.4567 54.8156 15.4005 54.3038L15.7858 54.2702ZM15.7858 51.2889V52.7851L15.2658 52.83C15.2583 52.7926 15.2584 52.7477 15.2584 52.7103V51.2889H15.7858ZM15.7858 48.3076V49.8076H15.2584V48.2664L15.7858 48.3076ZM15.7858 45.2926V46.8225L15.3556 46.7851C15.4117 46.2727 15.4753 45.7565 15.5501 45.2477L15.7858 45.2926ZM15.8569 54.2665V55.7964L15.7858 55.8076V54.2702L15.8569 54.2665ZM15.8569 51.2889V52.7777L15.7858 52.7851V51.2889H15.8569ZM15.8569 48.3151V49.8076H15.7858V48.3076L15.8569 48.3151ZM15.8569 45.3038V46.83L15.7858 46.8225V45.2926L15.8569 45.3038ZM15.8569 43.4896V43.8001L15.8007 43.7889L15.8569 43.4896ZM15.9204 57.2889V57.5171L15.8681 57.2926L15.9204 57.2889ZM15.9204 54.2589V55.7814L15.8569 55.7964V54.2665L15.9204 54.2589ZM15.9204 51.2889V52.7739L15.8569 52.7777V51.2889H15.9204ZM15.9204 48.3225V49.8076H15.8569V48.3151L15.9204 48.3225ZM15.9204 45.3188V46.8375L15.8569 46.83V45.3038L15.9204 45.3188ZM15.9204 43.1979V43.8151L15.8569 43.8001V43.4896C15.8756 43.3924 15.8943 43.2914 15.9204 43.1979ZM16.3469 57.2103V58.7664L16.2122 58.8001C16.1092 58.3738 16.012 57.946 15.9204 57.5171V57.2889L16.3469 57.2103ZM16.3469 54.2216V55.7066L15.9204 55.7814V54.2589L16.3469 54.2216ZM16.3469 51.2889V52.7365L15.9204 52.7739V51.2889H16.3469ZM16.3469 48.36V49.8076H15.9204V48.3225L16.3469 48.36ZM16.3469 45.3936V46.8749L15.9204 46.8375V45.3188L16.3469 45.3936ZM16.3469 42.3412V43.8899L15.9204 43.8151V43.1979C15.984 42.8874 16.0476 42.5806 16.1224 42.2776L16.3469 42.3412ZM16.5376 57.1804V58.7178L16.3469 58.7664V57.2103L16.5376 57.1804ZM16.5376 54.2066V55.6692L16.3469 55.7066V54.2216L16.5376 54.2066ZM16.5376 47.3836V53.3238L16.4853 52.7216L16.3469 52.7365V51.2889H16.403V49.8076H16.3469V48.36L16.4479 48.3674L16.5376 47.3836ZM16.5376 45.4273V46.8861L16.3469 46.8749V45.3936L16.5376 45.4273ZM16.5376 42.3899V43.9198L16.3469 43.8899V42.3412L16.5376 42.3899ZM16.5376 40.6954V40.8562L16.4965 40.8412L16.5376 40.6954ZM18.8681 65.8363V65.9223L18.8269 65.855L18.8681 65.8363ZM18.8681 36.9285V43.5607C17.8866 48.0349 17.8866 52.6688 18.8681 57.143V64.2016L18.1948 64.5158C17.9828 64.045 17.7808 63.5699 17.5888 63.0906L18.7409 62.6717L18.2359 61.2802L17.0763 61.6991C16.9091 61.2124 16.752 60.7222 16.605 60.229L17.787 59.9111L17.4055 58.4822L16.5376 58.7178V57.1804L17.0763 57.0832L16.8219 55.6243L16.5376 55.6692V54.2066L16.6125 54.1954L16.5376 53.3238V47.3836L16.5788 46.8936L16.5376 46.8861V45.4273L16.7509 45.4647L17.0052 44.0021L16.5376 43.9198V42.3899L17.3045 42.5956L17.686 41.1667L16.5376 40.8562V40.6954C16.6611 40.2502 16.8032 39.8051 16.9491 39.3674L18.105 39.7864L18.6137 38.3986L17.4504 37.9722C17.6337 37.4896 17.8319 37.0108 18.0339 36.5432L18.8681 36.9285ZM18.8681 34.7702V35.2901L18.6511 35.1966C18.7222 35.0545 18.7895 34.9123 18.8681 34.7702ZM24.9429 69.9884V74.4772C24.5884 74.1104 24.2417 73.7363 23.903 73.355L24.8306 72.5732L23.8843 71.436L22.9416 72.2216C22.6188 71.8221 22.3033 71.4168 21.9952 71.0059L22.994 70.3063L22.1411 69.0906L21.1349 69.7976C20.8464 69.373 20.5683 68.9415 20.3007 68.5034L21.3556 67.8862L20.6112 66.6031L19.5526 67.2203C19.3097 66.7956 19.0814 66.3627 18.8681 65.9223V65.8363L19.9341 65.3388L19.3095 63.9921L18.8681 64.2016V57.143C19.8902 61.8309 21.9678 66.224 24.9429 69.9884ZM24.9429 26.7577V30.7116C21.9678 34.4773 19.8902 38.8716 18.8681 43.5607V36.9285L19.1449 37.0557L19.7696 35.7166L18.8681 35.2901V34.7702C19.0252 34.4522 19.1898 34.1343 19.3618 33.8238L20.4204 34.4335L21.1573 33.1505L20.0987 32.537C20.3568 32.0919 20.6374 31.6579 20.9179 31.2278L21.9204 31.9273L22.7733 30.7116L21.7633 30.0158C22.0663 29.5968 22.3768 29.1816 22.7022 28.7814L23.6299 29.5632L24.58 28.426L23.6411 27.6405C23.9853 27.2515 24.3257 26.8699 24.6848 26.4959L24.9429 26.7577ZM25.7508 70.9722V73.6841L24.9578 74.4847L24.9429 74.4772V69.9884C25.2047 70.325 25.4778 70.6542 25.7508 70.9722ZM25.7508 27.143V29.7278C25.4736 30.0491 25.2042 30.3772 24.9429 30.7116V26.7577L25.5414 27.3525L25.7508 27.143ZM25.7508 25.4185V25.4672L25.7247 25.441C25.7359 25.4372 25.7434 25.4223 25.7508 25.4185ZM28.6461 77.0919V77.7839C28.5245 77.6983 28.406 77.6085 28.2907 77.5146L28.6461 77.0919ZM28.6461 73.9385V76.2241L27.9354 75.6256L27.1536 76.5682C26.7638 76.2306 26.381 75.8851 26.0052 75.532L26.8618 74.6679L25.8182 73.6206L25.7508 73.6841V70.9722C26.6523 72.027 27.6174 73.0108 28.6461 73.9385ZM28.6461 24.4834V26.7652C27.6174 27.6854 26.6523 28.6729 25.7508 29.7278V27.143L26.5888 26.3051L25.7508 25.4672V25.4185C26.1099 25.0669 26.4803 24.7265 26.8543 24.3936L27.6436 25.3213L28.6461 24.4834ZM28.6461 22.9086V24.2178L27.984 23.436C28.201 23.2564 28.4217 23.0806 28.6461 22.9086ZM29.0089 76.6542V78.0719L28.6461 77.7839V77.0919L29.0089 76.6542ZM29.0089 74.2602V76.527L28.6461 76.2241V73.9385L29.0089 74.2602ZM29.0089 22.628V26.4397C28.8872 26.5473 28.7662 26.6558 28.6461 26.7652V24.4834L28.7733 24.3712L28.6461 24.2178V22.9086L29.0089 22.628ZM34.373 78.0457V81.3936C34.0226 81.2203 33.6758 81.0394 33.3331 80.8512L33.9429 79.7926L32.6598 79.0483L32.0426 80.1181C31.6037 79.8504 31.1697 79.5748 30.7409 79.2914L31.4404 78.2926L30.2284 77.4435L29.5214 78.446C29.3482 78.3247 29.1773 78.2 29.0089 78.0719V76.6542L29.0725 76.5794L29.0089 76.527V74.2602C30.6586 75.7041 32.4541 76.9722 34.373 78.0457ZM34.373 19.3512V22.6542C32.4587 23.7268 30.661 24.9955 29.0089 26.4397V22.628C29.0763 22.5794 29.1399 22.5345 29.2035 22.4821L29.903 23.4809L31.1224 22.6355L30.4154 21.6255C30.8344 21.3337 31.2758 21.0532 31.7134 20.7876L32.3231 21.85L33.6062 21.1056L32.989 20.0395C33.4379 19.7926 33.898 19.5495 34.3543 19.3138L34.373 19.3512ZM39.9615 80.5034V83.6006C39.5977 83.4945 39.236 83.381 38.8768 83.2602L39.2957 82.1081L37.9042 81.6031L37.4852 82.759C37.0027 82.5719 36.5276 82.3849 36.0563 82.1717L36.5688 81.0682L35.2221 80.4398L34.7022 81.5582L34.373 81.3936V78.0457C36.1511 79.0455 38.0229 79.8686 39.9615 80.5034ZM39.9615 17.0993V20.1966C38.0235 20.833 36.1519 21.656 34.373 22.6542V19.3512L34.8743 20.4248L36.2134 19.7963L35.6935 18.6779C36.1648 18.4684 36.6398 18.2664 37.1224 18.0757L37.5413 19.2315L38.9329 18.7228L38.5064 17.5669C38.989 17.4023 39.4715 17.2452 39.9615 17.0993ZM42.7558 81.2777V84.3076C42.4304 84.2365 42.1087 84.1692 41.7907 84.0907L42.1012 82.9086L40.6723 82.5233L40.3543 83.7166C40.2226 83.6807 40.0916 83.642 39.9615 83.6006V80.5034C40.8742 80.8026 41.8094 81.0607 42.7558 81.2777ZM42.7558 16.3924V19.4223C41.8131 19.6377 40.8807 19.8961 39.9615 20.1966V17.0993C39.969 17.0993 39.9728 17.0993 39.9802 17.0919L40.2982 18.2814L41.7346 17.8924L41.4092 16.7066C41.8543 16.5906 42.3032 16.4896 42.7558 16.3924ZM45.5239 81.7789V84.764C45.269 84.734 45.0146 84.7003 44.7608 84.663L44.9703 83.4622L43.5114 83.2041L43.3019 84.4161L42.7558 84.3076V81.2777C43.6648 81.4871 44.585 81.6517 45.5239 81.7789ZM45.5239 15.936V18.921C44.594 19.0456 43.6703 19.2128 42.7558 19.4223V16.3924L42.9129 16.3624L43.1299 17.5669L44.5887 17.3088L44.3755 16.0969C44.757 16.037 45.1348 15.9809 45.5239 15.936ZM48.2845 82.0408V84.9996L47.772 84.9734L47.873 83.7615L46.3992 83.6268L46.2907 84.8537C46.0401 84.8275 45.7782 84.8014 45.5239 84.764V81.7789C46.4328 81.9061 47.353 81.9959 48.2845 82.0408ZM48.2845 15.7003V18.6592C47.3608 18.7046 46.4396 18.792 45.5239 18.921V15.936L45.9054 15.8911L46.0139 17.1031L47.4914 16.9796L47.383 15.7527L48.2845 15.7003ZM51.8156 82.0146V84.9809L50.7944 85.0258V83.8064H49.3131V85.0296C48.9727 85.0258 48.6286 85.0108 48.2845 84.9996V82.0408C49.4611 82.0975 50.64 82.0888 51.8156 82.0146ZM51.8156 15.719V18.6854C51.1657 18.6416 50.5144 18.6204 49.863 18.6218C49.3356 18.6218 48.8119 18.6367 48.2845 18.6592V15.7003C48.4988 15.6891 48.7133 15.6816 48.9279 15.6779V16.8973H50.4054V15.6704C50.8767 15.6779 51.348 15.6929 51.8156 15.719ZM55.2645 81.6218V83.3687L55.1298 83.3949L55.2645 84.1468V84.6181C54.7819 84.6892 54.2994 84.7565 53.8169 84.8088L53.7084 83.5969L52.2308 83.7278L52.3393 84.9472C52.165 84.9622 51.9904 84.9734 51.8156 84.9809V82.0146C52.9865 81.9435 54.1348 81.8126 55.2645 81.6218ZM55.2645 17.335V19.0781C54.1227 18.8859 52.9714 18.7548 51.8156 18.6854V15.719L51.9503 15.7265L51.8418 16.9385L53.3231 17.0732L53.4278 15.8425C53.9441 15.8986 54.4528 15.9622 54.9615 16.037L54.752 17.2452L55.2645 17.335ZM55.2645 84.6181C55.2912 84.6104 55.319 84.6066 55.3468 84.6068L55.2645 84.1468V84.6181ZM57.3967 81.1767V84.2103C57.1994 84.2571 57.0011 84.2995 56.8019 84.3375L56.5924 83.1405L55.2645 83.3687V81.6218C55.9827 81.4946 56.7009 81.3487 57.3967 81.1767ZM57.3967 16.4896V19.5233C56.6911 19.3512 55.98 19.2027 55.2645 19.0781V17.335L56.2034 17.4996L56.4204 16.2839C56.7495 16.3512 57.075 16.4148 57.3967 16.4896ZM59.4054 80.6193V82.4261L57.9877 82.8076L58.3131 83.9971C58.0064 84.0719 57.7034 84.1468 57.3967 84.2103V81.1767C58.0775 81.0121 58.7433 80.8288 59.4054 80.6193ZM59.4054 16.9909V20.0844C58.7425 19.8742 58.0725 19.687 57.3967 19.5233V16.4896C57.5762 16.527 57.7558 16.5644 57.9316 16.6093L57.6136 17.7914L59.0425 18.1767L59.368 16.9834L59.4054 16.9909ZM59.5326 80.5744V82.845L59.4241 82.4261H59.4054V80.6193L59.5326 80.5744ZM59.5326 17.0283V20.1293C59.4919 20.1098 59.4493 20.0948 59.4054 20.0844V16.9909L59.5326 17.0283ZM62.5475 79.4373V82.4709L62.1809 81.4684L60.7894 81.9772L61.2084 83.133C60.7258 83.3051 60.2358 83.4622 59.742 83.6081L59.5326 82.845V80.5744C60.5612 80.249 61.5637 79.8674 62.5475 79.4373ZM62.5475 18.0569V21.2589C61.5632 20.8293 60.5568 20.4523 59.5326 20.1293V17.0283C59.9777 17.1554 60.4079 17.2938 60.8418 17.4397L60.4266 18.5919L61.8181 19.0968L62.2371 17.9372C62.338 17.9821 62.4465 18.0195 62.5475 18.0569ZM72.2769 72.8088V75.6143L72.0787 75.3787L70.949 76.3325L71.7383 77.2714C71.3385 77.5954 70.9319 77.911 70.5188 78.2178L69.8118 77.2191L68.5999 78.0719L69.3031 79.0744C68.88 79.3663 68.4484 79.6457 68.0089 79.9123L67.3991 78.8575L66.1161 79.5944L66.7333 80.6605C66.2841 80.9133 65.8288 81.1553 65.368 81.3862L64.848 80.2827L63.5089 80.9036L64.0288 82.0221C63.5575 82.2315 63.0824 82.4335 62.5999 82.6243L62.5475 82.4709V79.4373C66.1742 77.8512 69.4736 75.6034 72.2769 72.8088ZM72.2769 24.4834L71.7794 25.0744L70.6498 24.1205L71.4315 23.1891C71.0312 22.8647 70.6207 22.5528 70.2009 22.254L69.4939 23.2564L68.2819 22.4073L68.9814 21.4086C68.5534 21.1251 68.1194 20.8507 67.6797 20.5856L67.0625 21.6517L65.7794 20.9073L66.3892 19.8487C65.939 19.6012 65.4825 19.3654 65.0201 19.1417L64.4927 20.2602L63.1535 19.6318L63.666 18.5208C63.2957 18.3601 62.9229 18.2054 62.5475 18.0569V21.2589C66.1746 22.8476 69.474 25.0979 72.2769 27.8949V24.4834ZM74.0014 70.9348V73.5196L73.1261 74.3949L73.9976 75.259C73.6273 75.6218 73.2495 75.9697 72.8679 76.3138L72.2769 75.6143V72.8088C72.8792 72.2028 73.459 71.5819 74.0014 70.9348ZM74.0014 26.9784V29.7689C73.459 29.118 72.8792 28.4971 72.2769 27.8949V24.4834L72.5762 24.1355C72.9615 24.4722 73.343 24.8126 73.7171 25.1679L72.853 26.032L73.9004 27.0794L74.0014 26.9784ZM77.4203 66.0832V69.3151L76.949 69.9884L77.4203 70.3176V71.4098L77.0275 71.926L76.0849 71.1442L75.1348 72.2739L76.0812 73.0669C75.7445 73.456 75.3929 73.8375 75.0375 74.2041L74.1809 73.3475L74.0014 73.5196V70.9348C75.2881 69.431 76.4365 67.8113 77.4203 66.0832ZM77.4203 29.2864V29.9073L76.7283 30.3973L77.4203 31.3849V34.6168C76.4364 32.8965 75.2916 31.2733 74.0014 29.7689V26.9784L74.7719 26.2116C75.1273 26.5856 75.4752 26.9597 75.8193 27.3487L74.8879 28.1268L75.838 29.2639L76.7769 28.4784C77.0014 28.744 77.2108 29.0096 77.4203 29.2864ZM77.4203 29.9073V29.2864L77.7308 29.6904L77.4203 29.9073ZM77.4203 71.4098V70.3176L77.959 70.6916C77.7836 70.9342 77.604 71.1736 77.4203 71.4098ZM81.2058 55.3064V62.0432L81.1086 62.3051L81.2058 62.3425V63.936L80.5774 63.6442L79.949 64.9834L81.0712 65.5034C80.843 65.9672 80.6073 66.431 80.3679 66.8836L79.2981 66.2664L78.5575 67.5495L79.631 68.1667C79.3659 68.6084 79.0903 69.0437 78.8043 69.4722L77.8019 68.7727L77.4203 69.3151V66.0832C79.3296 62.7522 80.6126 59.0996 81.2058 55.3064ZM81.2058 36.3375L80.4091 36.7078L79.7881 35.3687L80.8991 34.8487C80.6675 34.3889 80.4268 33.9337 80.1772 33.4834L79.1036 34.0969L78.3667 32.8138L79.4253 32.2003C79.1547 31.7621 78.8753 31.3294 78.5874 30.9023L77.5774 31.6093L77.4203 31.3849V34.6168C79.2944 37.8899 80.5999 41.5258 81.2058 45.3936V38.6567L80.9777 38.0283L81.2058 37.946V36.3375ZM81.2058 37.946V36.3375L81.535 36.1879C81.7445 36.6517 81.9427 37.1268 82.1298 37.6093L81.2058 37.946ZM82.1747 62.6904V62.9821C82.0193 63.3764 81.8572 63.768 81.6884 64.1567L81.2058 63.936V62.3425L82.1747 62.6904ZM82.1747 39.1729V40.729L81.9353 40.7889L82.1747 41.6941V59.0133L82.0288 59.537L82.1747 59.5744V61.1156L81.6173 60.9136L81.2058 62.0432V55.3064C81.7225 52.0223 81.7225 48.6776 81.2058 45.3936V38.6567L81.4826 39.4235L82.1747 39.1729ZM82.1747 40.729V39.1729L82.646 39.0008C82.8181 39.4834 82.9714 39.9772 83.1173 40.4747L82.1747 40.729ZM82.1747 61.1156V59.5744L83.2295 59.8587C83.0911 60.3562 82.9303 60.8425 82.7732 61.3325L82.1747 61.1156ZM82.1747 62.9821V62.6904L82.2719 62.7278L82.1747 62.9821ZM83.9664 44.8924V46.4298L83.1098 46.5046L83.237 47.9784L83.9664 47.9148V49.4148L83.3193 49.4185L83.3118 50.8999H83.9664V52.3999L83.2707 52.3363L83.1435 53.8101L83.9664 53.8849V55.4148L82.9714 55.2427L82.7096 56.6979L83.929 56.9148C83.828 57.4198 83.7195 57.9248 83.6036 58.4261L82.4178 58.1081L82.1747 59.0133V41.6941L82.3168 42.2178L83.5101 41.9036C83.6373 42.3974 83.7495 42.8986 83.8542 43.4073L82.646 43.6243L82.9003 45.0757L83.9664 44.8924ZM83.9664 46.4298V44.8924L84.1123 44.8662C84.1946 45.3749 84.2657 45.8836 84.3218 46.3961L83.9664 46.4298ZM83.9664 55.4148V53.8849L84.3667 53.9148C84.3146 54.4287 84.251 54.9412 84.1759 55.4522L83.9664 55.4148ZM84.5051 50.8999V52.0744C84.5012 52.1968 84.4937 52.319 84.4826 52.441L83.9664 52.3999V50.8999H84.5051ZM84.5051 48.5994V49.4148H83.9664V47.9148L84.4639 47.8699L84.5051 48.5994ZM84.5051 49.4148V48.5994C84.52 48.8724 84.5313 49.1417 84.5387 49.4148H84.5051ZM84.5051 52.0744V50.8999H84.5462C84.5388 51.2926 84.5238 51.6816 84.5051 52.0744ZM53.8505 77.5221C53.8505 77.7353 53.8992 77.9036 54.0002 78.0233C54.04 78.0763 54.0914 78.1196 54.1503 78.1501C54.2092 78.1805 54.2743 78.1973 54.3406 78.1991C54.464 78.1991 54.565 78.1505 54.6473 78.0532C54.7296 77.9597 54.7707 77.7989 54.7707 77.5819C54.7707 77.3537 54.7258 77.1892 54.6398 77.0844C54.5998 77.0348 54.549 76.9949 54.4914 76.9677C54.4337 76.9405 54.3706 76.9267 54.3069 76.9273C54.245 76.9266 54.1836 76.9397 54.1274 76.9656C54.0711 76.9915 54.0213 77.0295 53.9815 77.0769C53.8917 77.1779 53.8505 77.3238 53.8505 77.5221ZM55.358 76.0707L54.7146 76.1418C54.6997 76.0071 54.6585 75.9098 54.5912 75.8463C54.5209 75.7821 54.4281 75.7485 54.3331 75.7527C54.2632 75.7533 54.1945 75.7705 54.1327 75.8031C54.0709 75.8356 54.0177 75.8825 53.9777 75.9398C53.8805 76.067 53.8169 76.3288 53.7907 76.729C53.8654 76.6366 53.9601 76.5623 54.0676 76.5118C54.1752 76.4612 54.2928 76.4358 54.4116 76.4373C54.6884 76.4373 54.9278 76.542 55.1261 76.7552C55.329 76.9785 55.4353 77.273 55.4216 77.5744C55.4288 77.7301 55.4051 77.8856 55.3518 78.032C55.2985 78.1784 55.2167 78.3127 55.1111 78.4273C55.0069 78.534 54.8815 78.6178 54.743 78.6732C54.6045 78.7286 54.456 78.7544 54.3069 78.749C54.1411 78.7529 53.9766 78.7181 53.8266 78.6473C53.6766 78.5766 53.5452 78.4718 53.4428 78.3413C53.2146 78.0682 53.1024 77.6231 53.1024 77.0021C53.1024 76.3662 53.2221 75.9061 53.4578 75.6256C53.5677 75.4896 53.7077 75.3809 53.8667 75.3082C54.0257 75.2355 54.1995 75.2008 54.3742 75.2066C54.6121 75.1976 54.845 75.2761 55.0288 75.4273C55.2122 75.5953 55.3291 75.8237 55.358 76.0707ZM50.9553 76.4335C50.9665 76.2557 50.9149 76.0796 50.8094 75.936C50.7084 75.8163 50.5962 75.7565 50.4653 75.7565C50.4064 75.7557 50.3481 75.7685 50.2949 75.7938C50.2418 75.8191 50.1951 75.8562 50.1585 75.9024C50.0762 75.9996 50.0351 76.1605 50.0351 76.3812C50.0351 76.6056 50.08 76.7665 50.1697 76.8749C50.2096 76.9247 50.2603 76.9648 50.318 76.992C50.3757 77.0192 50.4389 77.0329 50.5027 77.032C50.5643 77.0322 50.6253 77.0185 50.681 76.992C50.7367 76.9654 50.7857 76.9267 50.8244 76.8787C50.9104 76.7777 50.9553 76.6318 50.9553 76.4335ZM49.4478 77.8886L50.0949 77.8176C50.1002 77.9264 50.144 78.0298 50.2184 78.1093C50.2535 78.1417 50.2948 78.1667 50.3398 78.1828C50.3848 78.1988 50.4325 78.2057 50.4802 78.2029C50.6186 78.2029 50.7346 78.1393 50.8318 78.0121C50.9254 77.8887 50.9889 77.6268 51.0151 77.2265C50.9391 77.3193 50.8431 77.3938 50.7343 77.4443C50.6255 77.4948 50.5067 77.5201 50.3867 77.5183C50.253 77.519 50.1207 77.4909 49.9987 77.436C49.8768 77.3812 49.768 77.3008 49.6797 77.2004C49.4768 76.9771 49.3705 76.6826 49.3842 76.3812C49.3842 76.0258 49.4889 75.7453 49.6984 75.5283C49.8014 75.422 49.9255 75.3384 50.0627 75.283C50.1999 75.2276 50.3473 75.2016 50.4952 75.2066C50.8468 75.2066 51.1386 75.3413 51.363 75.6143C51.5912 75.8874 51.7034 76.3325 51.7034 76.9572C51.7034 77.5931 51.5837 78.0495 51.348 78.3301C51.2385 78.4667 51.0987 78.5761 50.9396 78.6494C50.7806 78.7228 50.6067 78.7582 50.4316 78.7527C50.1927 78.7652 49.9579 78.6878 49.7732 78.5358C49.5907 78.366 49.4752 78.1364 49.4478 77.8886ZM46.4777 76.1493C46.4777 76.2802 46.5151 76.3849 46.59 76.4597C46.6301 76.4968 46.6773 76.5254 46.7287 76.5441C46.78 76.5627 46.8346 76.5709 46.8892 76.5682C47.0126 76.5682 47.1136 76.5308 47.1922 76.456C47.267 76.3812 47.3044 76.2764 47.3044 76.1455C47.3044 76.0221 47.267 75.9211 47.1922 75.8463C47.1527 75.808 47.1057 75.7783 47.0543 75.759C47.0028 75.7397 46.9479 75.7312 46.8929 75.734C46.8375 75.7313 46.782 75.7399 46.73 75.7592C46.6779 75.7784 46.6303 75.8081 46.59 75.8463C46.5518 75.8866 46.5221 75.9342 46.5029 75.9863C46.4836 76.0383 46.475 76.0938 46.4777 76.1493ZM46.4141 77.6343C46.4141 77.8176 46.4628 77.9597 46.5563 78.0645C46.6004 78.1138 46.6547 78.1531 46.7153 78.1795C46.776 78.206 46.8417 78.2191 46.9079 78.2178C46.9722 78.2194 47.036 78.2068 47.0948 78.181C47.1536 78.1551 47.206 78.1166 47.2483 78.0682C47.3381 77.9709 47.383 77.8288 47.383 77.6417C47.3897 77.4978 47.3401 77.3569 47.2446 77.249C47.2006 77.2009 47.1468 77.1629 47.0867 77.1377C47.0266 77.1125 46.9618 77.1007 46.8967 77.1031C46.7358 77.1031 46.6124 77.1592 46.5338 77.2714C46.4568 77.3768 46.4149 77.5038 46.4141 77.6343ZM46.3393 76.8188C46.1855 76.7605 46.0535 76.6559 45.9615 76.5196C45.886 76.3928 45.846 76.2481 45.8456 76.1006C45.8456 75.8425 45.9353 75.6255 46.1186 75.4572C46.2982 75.2889 46.5563 75.2066 46.8892 75.2066C47.2184 75.2066 47.4727 75.2889 47.656 75.4572C47.7452 75.5385 47.8157 75.638 47.8629 75.7491C47.91 75.8601 47.9326 75.98 47.9291 76.1006C47.9314 76.2531 47.8885 76.4028 47.8057 76.5308C47.7167 76.6583 47.5935 76.7582 47.4503 76.8188C47.6448 76.8936 47.7907 77.0096 47.8917 77.1555C47.9931 77.3082 48.0453 77.4884 48.0413 77.6717C48.0469 77.8161 48.0225 77.9601 47.9697 78.0947C47.917 78.2292 47.8369 78.3514 47.7346 78.4535C47.6254 78.555 47.497 78.6338 47.357 78.6852C47.217 78.7366 47.0681 78.7596 46.9191 78.7527C46.6355 78.7636 46.3567 78.6764 46.1299 78.5059C46.0086 78.4101 45.9118 78.2869 45.8474 78.1465C45.783 78.006 45.7529 77.8523 45.7595 77.6979C45.7513 77.509 45.8029 77.3223 45.907 77.1644C46.0111 77.0066 46.1624 76.8856 46.3393 76.8188ZM43.8032 78.6929H43.1373V76.1829C42.8912 76.4125 42.5975 76.585 42.277 76.6879V76.0819C42.4833 76.0075 42.6755 75.8987 42.8456 75.7602C43.0344 75.6187 43.1796 75.4268 43.2645 75.2066H43.8032V78.6929ZM74.0014 65.638V59.148L74.8654 58.8001V56.1181L74.0088 55.6318H74.0014V51.0644L74.8654 50.7166V48.0345L74.0088 47.5407L74.0014 47.5482V43.0071H74.9552V45.128C74.8093 45.1392 74.6709 45.158 74.5288 45.1729V46.0594L75.6921 46.7216L75.6847 52.022L74.5288 52.4934V54.1467L75.6921 54.8126L75.6847 60.1056L74.5288 60.5769V65.638H74.0014ZM74.0014 43.0071V47.5482L73.1448 48.0345V50.7166L74.0014 51.0644V55.6318L73.1448 56.1181V58.8001L74.0014 59.148V65.638H73.4066V60.5657L72.2882 60.1056V54.8051L73.4066 54.1692V52.4747L72.2882 52.022V46.7216L73.4066 46.0856V45.3113C73.0281 45.3659 72.6514 45.432 72.2769 45.5096V43.0071H74.0014ZM72.2769 43.0071V45.5096C69.5079 46.1072 66.8464 47.1239 64.3842 48.5245V43.0071H72.2769ZM62.5475 49.6355V42.2814H63.3854V49.0969C63.0937 49.2802 62.8131 49.4597 62.5475 49.6355ZM62.5475 41.2864V34.2427L64.9677 39.446L63.0039 41.2864H62.5475ZM62.5475 34.2427V41.2864L59.5326 41.2976V27.7789L62.5475 34.2427ZM62.5475 42.2814V49.6355C62.2558 49.8188 61.9752 50.0096 61.7021 50.1929V42.2814H62.5475ZM59.5326 51.7677V42.2814H60.3331V51.1654L59.5326 51.7677ZM59.5326 27.7789V41.2976H59.4054V27.5058L59.5326 27.7789ZM59.5326 42.2814V51.7677C59.4952 51.8013 59.4503 51.8313 59.4054 51.8649V42.2814H59.5326ZM59.4054 27.5058V41.2976L59.1622 41.3051L57.3967 37.0445V26.4323L58.661 25.9123L59.4054 27.5058ZM59.4054 42.2814V51.8649C58.5862 52.5083 57.9241 53.0769 57.3967 53.5482V42.2814H59.4054ZM57.3967 65.0096V61.542L58.5525 62.9709V65.0096H57.3967ZM57.3967 26.4323V37.0445L55.676 32.8774L55.7021 27.1392L57.3967 26.4323ZM57.3967 42.2814V53.5482C56.3717 54.4871 55.8929 55.0595 55.8929 55.0595H55.2645V42.2814H57.3967ZM57.3967 61.542V65.0096H55.2645V60.2029H56.3119L57.3967 61.542ZM55.2645 56.5707H56.1473V58.9385H55.2645V56.5707ZM51.8156 55.0595H55.2645V42.2814H51.8156V55.0595ZM51.8156 56.5707H55.2645V58.9385H51.8156V56.5707ZM51.8156 65.0096H55.2645V60.2029H51.8156V65.0096ZM51.8156 24.128H54.9316V41.2415H51.8156V24.128Z" fill="white"/>
<path fill-rule="evenodd" clip-rule="evenodd" d="M51.8081 41.2415H51.8156V24.128H51.8081V41.2415ZM48.2845 42.2814H51.8156V55.0595H48.2845V42.2814ZM48.2845 56.5707H51.8156V58.9385H48.2845V56.5707ZM48.2845 60.2029H51.8156V65.0096H48.2845V60.2029ZM48.2845 24.0382H50.6897V41.2415H48.2845V24.0382ZM46.1785 41.2415H48.2845V24.0382H46.1785V41.2415Z" fill="white"/>
<path fill-rule="evenodd" clip-rule="evenodd" d="M45.5239 42.2814H48.2882V55.0595H45.5239V42.2814ZM45.5239 56.5707H48.2882V58.9385H45.5239V56.5707ZM45.5239 60.2029H48.2882V65.0096H45.5239V60.2029ZM45.5239 39.229H45.6436V41.825H45.5239V39.229ZM45.5239 36.2814H45.6436V38.8774H45.5239V36.2814ZM45.5239 33.2926H45.6436V36.0158H45.5239V33.2926ZM45.5239 32.522V25.5308C45.5718 25.4839 45.618 25.4353 45.6623 25.3849V32.522H45.5239ZM45.5239 25.5308V32.522H42.7558V27.4796C43.6648 27.0569 44.6298 26.4397 45.5239 25.5308ZM42.7558 33.2926H45.5239V36.0158H42.7558V33.2926ZM42.7558 36.2814H45.5239V38.8774H42.7558V36.2814ZM42.7558 39.229H45.5239V41.825H42.7558V39.229ZM42.7558 42.2814H45.5239V55.0595H42.7558V42.2814ZM42.7558 56.5707H45.5239V58.9385H42.7558V56.5707ZM42.7558 60.2029H45.5239V65.0096H42.7558V60.2029ZM42.7558 27.4796V32.522H39.9615V28.3138C40.6423 28.2165 41.6486 27.9959 42.7558 27.4796ZM39.9615 33.2926H42.7558V36.0158H39.9615V33.2926ZM39.9615 36.2814H42.7558V38.8774H39.9615V36.2814ZM42.7558 39.229V41.825H42.3817L42.3855 41.8063L39.9615 40.83V39.229H42.7558ZM42.7558 42.2814V55.0595H40.9079L39.9615 54.5133V50.0358L42.2994 42.2814H42.7558ZM41.8917 56.5707H42.7558V58.9385H41.8917V56.5707ZM42.7558 60.2029V65.0096H39.9615V61.8899L41.2745 60.2029H42.7558ZM39.9615 45.9659L41.1099 42.2814L39.9615 41.7988V45.9659ZM39.9615 28.3138V32.522H34.373V30.8986C34.9453 30.3749 36.9054 28.7328 39.09 28.3886C39.09 28.3886 39.4229 28.3961 39.9615 28.3138ZM36.3481 33.2926H39.9615V36.0158H36.3481V33.2926ZM36.3481 36.2814H39.9615V38.8774H36.3481V36.2814Z" fill="white"/>
<path fill-rule="evenodd" clip-rule="evenodd" d="M39.9615 39.229V40.83L38.9067 40.4111L38.4391 41.825H36.3481V39.229H39.9615ZM39.9615 41.7988L39.5613 41.6343L34.373 58.0108V63.7976L39.9615 45.9659V41.7988ZM39.9615 50.0358V54.5133L38.8057 53.8587L39.9615 50.0358ZM39.9615 61.8899V65.0096H39.1236V62.9709L39.9615 61.8899ZM39.9615 72.1654H37.0663V66.2664H39.9615V72.1654ZM42.7558 72.1654H39.9615V66.2664H42.7558V72.1654ZM45.5239 72.1654H42.7558V66.2664H45.5239V72.1654ZM48.2845 72.1654H45.5239V66.2664H48.2845V72.1654ZM51.8156 72.1654H48.2845V66.2664H51.8156V72.1654ZM55.2645 72.1654H51.8156V66.2664H55.2645V72.1654ZM57.3967 72.1654H55.2645V66.2664H57.3967V72.1654ZM59.4054 72.1654H57.3967V66.2664H59.4054V72.1654ZM59.5326 72.1654H59.4054V66.2664H59.5326V72.1654ZM59.5326 66.2664H60.9652V72.1654H59.5326V66.2664ZM34.373 70.3624V68.7502L35.267 69.1505L34.7845 70.2989C34.7845 70.2989 34.6349 70.3325 34.373 70.3624ZM34.373 51.3188V42.2814H38.2147L35.2483 51.82L34.373 51.3188ZM34.373 30.8986V32.522H34.2084V31.0482C34.2084 31.0482 34.2645 30.9921 34.373 30.8986ZM34.373 42.2814V51.3188L32.3531 50.1629V42.2814H34.373ZM34.373 58.0108V63.7976L33.0152 68.133L34.373 68.7502V70.3624C33.58 70.4597 31.7808 70.5607 30.3144 69.8612L29.0089 69.2403V67.9946L29.5663 66.7639L31.3842 67.4747L34.373 58.0108ZM29.0089 48.2851V42.2889H31.6611V49.8599L29.0089 48.2851ZM29.0089 42.2889V48.2851L28.6461 48.0682V42.2889H29.0089ZM29.0089 67.9946V69.2403L28.6461 69.0607V68.8063L29.0089 67.9946ZM28.6461 42.2889V48.0682L26.8431 47.0021L26.8356 42.2889H28.6461ZM28.6461 68.8063V69.0607L28.5488 69.0158L28.6461 68.8063Z" fill="white"/>
</svg>
