<svg xmlns="http://www.w3.org/2000/svg" xmlns:xlink="http://www.w3.org/1999/xlink" width="168" height="168" viewBox="0 0 168 168" fill="none"><defs><rect id="path_0" x="0" y="0" width="168" height="168" /></defs><g opacity="1" transform="translate(0 0)  rotate(0 84 84)"><mask id="bg-mask-0" fill="white"><use xlink:href="#path_0"></use></mask><g mask="url(#bg-mask-0)" ><path id="分组 1" fill-rule="evenodd" style="fill:#006CFF" transform="translate(27.000000000000007 40.99999999999995)  rotate(0 57.5 43.47560983306066)" opacity="1" d="M9.82 0C4.49 0 0 4.49 0 9.82L0 77.13C0 82.46 4.49 86.95 9.82 86.95L105.18 86.95C110.51 86.95 115 82.46 115 77.13L115 9.82C115 4.49 110.51 0 105.18 0L9.82 0Z M8.41463 9.81463L8.41463 13.1846L57.5046 44.0346L106.585 13.1846L106.585 9.81463C106.585 8.97463 106.025 8.41463 105.185 8.41463L9.81463 8.41463C8.97463 8.41463 8.41463 8.97463 8.41463 9.81463Z M8.41463 77.13C8.41463 77.98 8.97463 78.54 9.81463 78.54L105.185 78.54C106.025 78.54 106.585 77.98 106.585 77.13L106.585 23L59.7446 52.45C59.1846 52.73 58.3446 53.01 57.5046 53.01C56.6546 53.01 55.8146 53.01 55.2546 52.45L8.41463 23L8.41463 77.13Z " /></g></g></svg>