<svg xmlns="http://www.w3.org/2000/svg" xmlns:xlink="http://www.w3.org/1999/xlink" width="135" height="135" viewBox="0 0 135 135" fill="none"><defs><rect id="path_0" x="0" y="0" width="135" height="135" /></defs><g opacity="1" transform="translate(0 0)  rotate(0 67.5 67.5)"><mask id="bg-mask-0" fill="white"><use xlink:href="#path_0"></use></mask><g mask="url(#bg-mask-0)" ><path  id="路径 1" style="stroke:#006CFF; stroke-width:9; stroke-opacity:1; stroke-dasharray:0 0" transform="translate(22.5 13.877113396638977)  rotate(0 45 36.17974017668051)" d="M60.03,71.84C66.79,70.43 72.93,68 77.69,64.42C85.84,58.31 90,48.88 90,39.56C90,33.02 87.52,26.92 83.23,21.75C80.84,18.87 87.83,-2.63 81.62,0.27C75.4,3.16 66.29,9.57 61.52,8.16C56.4,6.64 50.83,5.81 45,5.81C39.94,5.81 35.07,6.44 30.52,7.59C23.92,9.28 17.6,3 11.25,0.27C4.9,-2.46 8.36,19.77 6.48,22.11C2.37,27.2 0,33.17 0,39.56C0,48.88 5.04,58.31 13.18,64.42C18.6,68.49 25.41,71.08 33.02,72.36 " /><path  id="路径 2" style="stroke:#006CFF; stroke-width:9; stroke-opacity:1; stroke-dasharray:0 0" transform="translate(50.63062499999999 86.23659375)  rotate(0 2.443640625 17.365359374999993)" d="M4.89,0C1.63,3.59 0,6.99 0,10.22C0,13.44 0,21.61 0,34.73 " /><path  id="路径 3" style="stroke:#006CFF; stroke-width:9; stroke-opacity:1; stroke-dasharray:0 0" transform="translate(82.53168749999999 85.71543750000001)  rotate(0 2.315531249999999 17.626078124999996)" d="M0,0C3.09,4.05 4.63,7.69 4.63,10.92C4.63,14.14 4.63,22.25 4.63,35.25 " /><path  id="路径 4" style="stroke:#006CFF; stroke-width:9; stroke-opacity:1; stroke-dasharray:0 0" transform="translate(16.875 87.79359375)  rotate(0 16.878375 8.862890625000002)" d="M0,0C2.53,0.31 4.4,1.47 5.62,3.49C7.46,6.51 14.27,17.73 22.01,17.73C27.17,17.73 31.08,17.73 33.76,17.73 " /></g></g></svg>