<svg xmlns="http://www.w3.org/2000/svg" xmlns:xlink="http://www.w3.org/1999/xlink" width="135" height="135" viewBox="0 0 135 135" fill="none"><defs><rect id="path_0" x="0" y="0" width="135" height="135" /></defs><g opacity="1" transform="translate(0 0)  rotate(0 67.5 67.5)"><mask id="bg-mask-0" fill="white"><use xlink:href="#path_0"></use></mask><g mask="url(#bg-mask-0)" ><path id="分组 1" fill-rule="evenodd" style="fill:#006CFF" transform="translate(28.7350558945898 16.9713720703125)  rotate(0 38.234622069806484 30.418523573120577)" opacity="1" d="M38.2436 20.06L38.9336 19.54C39.3236 19.25 42.0036 17.11 44.9136 14.79C47.8136 12.48 50.3536 10.47 50.5436 10.36C50.7636 10.22 50.9136 10.07 50.9136 9.99C50.9136 9.93 49.6436 8.85 48.0836 7.64C46.4936 6.4 45.0936 5.28 44.9336 5.15C42.8336 3.43 38.3836 0 38.2436 0C38.1636 0.02 35.6236 1.97 32.5936 4.36C29.5636 6.75 26.7536 8.99 26.3436 9.33L25.5736 9.95L27.0236 11.09C27.8136 11.73 28.5836 12.34 28.7336 12.48C28.8936 12.61 31.1036 14.37 33.6336 16.39L38.2436 20.06Z M9.66 25.4193C8.89 24.7993 8.16 24.2993 8.06 24.2993C7.97 24.2993 6.62 25.3193 5.07 26.5593C3.53 27.8093 2.08 28.9693 1.87 29.1193C1.64 29.2793 1.2 29.6393 0.89 29.9293C0.58 30.2393 0.25 30.4693 0.17 30.4693C-0.23 30.4693 0.08 30.8793 1.02 31.6293C1.56 32.0493 2.18 32.5393 2.35 32.6893C2.53 32.8293 3.7 33.7493 4.96 34.7293C6.21 35.7193 8.02 37.1493 8.97 37.8993C11.51 39.8993 13.17 41.2293 25.82 51.2193C32.13 56.1993 37.53 60.4193 37.8 60.5993C38.28 60.9193 38.32 60.9193 38.78 60.5593C39.5 60.0093 40.2 59.4493 40.91 58.8793C41.81 58.1693 42.85 57.3393 43.22 57.0493C47.19 53.9193 53.77 48.7393 54 48.5393C54.15 48.4093 55.64 47.2493 57.28 45.9593C58.92 44.6693 62.27 42.0393 64.7 40.1193C67.15 38.1893 70.8 35.3093 72.84 33.7093C74.89 32.1093 76.51 30.7393 76.47 30.6493C76.35 30.4893 68.87 24.4393 68.56 24.2793C68.46 24.2193 66.11 25.9593 63.35 28.1393C38.17 48.0593 38.36 47.9093 37.9 47.6193C37.49 47.3693 36.37 46.4993 29.45 41.0193C28.25 40.0793 27 39.0693 26.63 38.7993C26.27 38.5093 25.48 37.8993 24.88 37.4193C24.26 36.9293 23.47 36.3193 23.12 36.0293C21.39 34.6793 13.75 28.6393 9.66 25.4193Z " /><path id="路径 3" fill-rule="evenodd" style="fill:#006CFF" transform="translate(3.6142211908637325 61.54026792862783)  rotate(0 63.48470336941189 28.225725412868687)" opacity="1" d="M115.76,15.27C116.09,15 119.91,12 121.65,10.63C122.28,10.14 122.84,9.68 122.9,9.62C122.96,9.55 123.69,8.99 124.54,8.33C125.39,7.7 126.28,6.98 126.53,6.77L126.97,6.38L125.66,5.36C124.94,4.78 124.31,4.28 124.25,4.22C124.1,4.05 121.3,1.79 120.28,1.02C119.76,0.62 119.31,0.23 119.27,0.14C119.1,-0.27 118.39,0.15 115.42,2.51C113.64,3.9 112.02,5.17 111.81,5.34C111.6,5.54 110.42,6.44 109.21,7.41C107.99,8.35 106.95,9.18 106.89,9.24C106.84,9.3 106.03,9.95 105.06,10.68C104.12,11.42 103.06,12.23 102.73,12.5C102.07,13.04 102.01,13.08 100.05,14.64C99.31,15.22 98.56,15.8 98.41,15.93C98.25,16.07 95.73,18.05 92.81,20.33C89.9,22.62 87.34,24.65 87.13,24.82C86.91,25.01 85.22,26.34 83.36,27.79C81.51,29.24 77.98,32.01 75.52,33.96C73.07,35.91 69.94,38.36 68.59,39.42C67.24,40.48 65.53,41.83 64.77,42.43L63.4,43.53L62.83,43.12C62.52,42.89 62.21,42.66 62.15,42.6C62.09,42.54 61.49,42.06 60.8,41.54C59.24,40.33 58.89,40.06 58.6,39.81C58.49,39.69 58.04,39.34 57.62,39.03C57.19,38.71 56.81,38.42 56.75,38.36C56.69,38.3 55.84,37.61 54.84,36.82C53.84,36.05 52.87,35.29 52.72,35.16C52.55,35 50.46,33.36 48.07,31.49C45.7,29.62 43.44,27.85 43.06,27.56C42.31,26.94 38.64,24.05 26.57,14.54C22.02,10.95 16.98,6.98 15.38,5.73C8.83,0.52 8.11,-0.02 7.88,0C7.76,0 6.03,1.35 4.02,2.97L4.02,2.97C2.02,4.59 0.26,6.06 0.11,6.21C-0.2,6.5 -0.61,6.15 10.66,15.02C15.04,18.48 14.96,18.42 18.26,21.02C19.63,22.1 23.04,24.8 25.87,27.02C30.91,30.99 31.79,31.69 32.82,32.5C33.09,32.73 35.84,34.89 38.93,37.32C42,39.75 48.71,45.03 53.82,49.06C58.95,53.09 63.19,56.41 63.29,56.45C63.38,56.49 64.27,55.87 65.26,55.08C68.13,52.84 77.15,45.73 78.64,44.55C79.39,43.95 80.34,43.2 80.74,42.89C81.15,42.56 81.59,42.22 81.71,42.12C81.82,42 83.27,40.87 84.91,39.57C87.65,37.45 92.7,33.48 93.39,32.9C93.55,32.77 94.07,32.36 94.55,32C95.03,31.63 95.59,31.17 95.8,30.99C96.02,30.82 97.75,29.45 99.66,27.95C103.5,24.94 105.23,23.57 111.33,18.77C113.6,16.97 115.61,15.41 115.76,15.27Z " /></g></g></svg>