<svg width="24" height="24" viewBox="0 0 24 24" fill="none" xmlns="http://www.w3.org/2000/svg">
<path d="M9.49993 22C11.5029 22 13.3869 21.22 14.8129 19.793L21.7169 12.697C21.8539 12.556 21.9464 12.3778 21.9827 12.1846C22.019 11.9914 21.9975 11.7918 21.921 11.6108C21.8445 11.4297 21.7163 11.2752 21.5525 11.1666C21.3887 11.0579 21.1965 11 20.9999 11H17.6989L21.8739 3.48598C21.9785 3.29605 22.0186 3.07732 21.9881 2.86266C21.9577 2.64801 21.8583 2.44904 21.7051 2.29569C21.5519 2.14233 21.353 2.04287 21.1383 2.01226C20.9237 1.98166 20.7049 2.02156 20.5149 2.12598L13.4049 6.07598L13.9809 3.19698C14.0216 2.99325 13.9978 2.78191 13.9128 2.59234C13.8278 2.40276 13.6859 2.24435 13.5068 2.13912C13.3277 2.03389 13.1202 1.98706 12.9133 2.00514C12.7063 2.02321 12.5101 2.10529 12.3519 2.23998L4.19593 9.19698C1.27193 12.121 1.27193 16.879 4.19593 19.803C4.89084 20.5017 5.71744 21.0556 6.62787 21.4328C7.5383 21.8099 8.51449 22.0027 9.49993 22ZM5.55193 10.665L11.4539 5.63398L11.2059 6.87398L11.0199 7.80398L10.5959 9.92398L18.4259 5.57398L15.1259 11.514L15.1249 11.515L14.3009 13H18.6319L13.3889 18.389C12.3499 19.428 10.9689 20 9.49993 20C8.03093 20 6.64893 19.428 5.60993 18.389C3.46693 16.245 3.46693 12.755 5.55193 10.665Z" fill="#F44336"/>
<path d="M9.50006 18C10.2964 18.003 11.0699 17.7336 11.6922 17.2366C12.3144 16.7397 12.7482 16.0449 12.9214 15.2676C13.0946 14.4903 12.9969 13.6771 12.6446 12.963C12.2922 12.2488 11.7063 11.6765 10.9841 11.341C10.9891 11.394 11.0001 11.446 11.0001 11.5C11.0001 11.8978 10.842 12.2794 10.5607 12.5607C10.2794 12.842 9.89788 13 9.50006 13C9.10223 13 8.7207 12.842 8.4394 12.5607C8.15809 12.2794 8.00006 11.8978 8.00006 11.5C8.00006 11.446 8.01106 11.394 8.01606 11.341C7.2938 11.6765 6.7079 12.2488 6.35554 12.963C6.00317 13.6771 5.90551 14.4903 6.07873 15.2676C6.25196 16.0449 6.68568 16.7397 7.30796 17.2366C7.93023 17.7336 8.70369 18.003 9.50006 18Z" fill="#F44336"/>
</svg>
