<svg xmlns="http://www.w3.org/2000/svg" xmlns:xlink="http://www.w3.org/1999/xlink" width="181" height="181" viewBox="0 0 181 181" fill="none"><defs><rect id="path_0" x="0" y="0" width="181" height="181" /></defs><g opacity="1" transform="translate(0 0)  rotate(0 90.5 90.5)"><mask id="bg-mask-0" fill="white"><use xlink:href="#path_0"></use></mask><g mask="url(#bg-mask-0)" ><path id="分组 1" fill-rule="evenodd" style="fill:#2A82E4" transform="translate(0.009053373434504103 0.07064007887153367)  rotate(0 90.4915716957794 90.43221468877815)" opacity="1" d="M92.42 25.04L117.72 50.31C119.56 52.15 122.05 53.19 124.66 53.19C127.26 53.19 129.76 52.15 131.6 50.31C135.45 46.49 135.45 40.28 131.6 36.45L117.48 22.33L117.5 22.34L98.24 3.11C93.92 -1.08 87.04 -1.03 82.78 3.21L3.21 82.74C1.16 84.78 0 87.56 0 90.46C0 93.35 1.16 96.13 3.21 98.17L82.77 177.66C87.04 181.93 93.96 181.93 98.23 177.66L131.59 144.33C133.43 142.49 134.46 140 134.46 137.4C134.46 134.8 133.43 132.3 131.59 130.47C127.75 126.65 121.55 126.65 117.71 130.47L92.44 155.76C91.95 156.27 91.28 156.55 90.58 156.55C89.88 156.55 89.2 156.27 88.71 155.76L25.16 92.27C24.65 91.78 24.37 91.11 24.37 90.4C24.37 89.7 24.65 89.03 25.16 88.54L88.69 25.04C88.76 24.96 88.87 24.9 88.95 24.82C89.99 23.98 91.5 24.08 92.42 25.04Z M90.8995 112.314C102.76 112.314 112.38 102.704 112.38 90.8543C112.38 79.0043 102.76 69.3843 90.8995 69.3843C79.0495 69.3843 69.4195 79.0043 69.4195 90.8543C69.4195 102.704 79.0495 112.314 90.8995 112.314Z M180.983 90.7641C180.983 87.8641 179.823 85.0841 177.773 83.0441L177.783 83.0541L152.933 58.3241C149.093 54.5041 142.883 54.5141 139.053 58.3441C137.213 60.1841 136.173 62.6741 136.173 65.2741C136.173 67.8841 137.213 70.3741 139.053 72.2041L155.823 88.9641C156.883 90.0141 156.883 91.6541 155.823 92.7041L139.293 109.214C137.453 111.054 136.423 113.544 136.423 116.144C136.423 118.744 137.453 121.234 139.293 123.074C143.133 126.884 149.333 126.884 153.173 123.074L177.783 98.4841C179.833 96.4341 180.983 93.6541 180.983 90.7641Z " /></g></g></svg>