<svg xmlns="http://www.w3.org/2000/svg" xmlns:xlink="http://www.w3.org/1999/xlink" width="310" height="310" viewBox="0 0 310 310" fill="none"><defs><rect id="path_0" x="0" y="0" width="310" height="310" /></defs><g opacity="1" transform="translate(0 0)  rotate(0 155 155)"><mask id="bg-mask-0" fill="white"><use xlink:href="#path_0"></use></mask><g mask="url(#bg-mask-0)" ><path id="分组 1" fill-rule="evenodd" style="fill:#F4D44B" transform="translate(19.85937499999963 105.90374999999996)  rotate(0 135.63953125000018 52.046093750000026)" opacity="1" d="M264.316 60.39C265.096 60.33 265.846 60.09 266.526 59.68C266.746 59.82 266.346 59.95 266.526 59.91L266.886 59.91C267.106 59.91 267.196 59.73 267.196 59.37L266.966 58.89C265.876 58.89 264.796 59.16 263.826 59.68L263.826 59.42L262.146 59.6C262.146 59.06 261.966 58.84 261.746 58.84L260.866 58.93C259.846 59.02 259.366 58.93 258.866 59.37C258.866 59.2 258.786 59.11 258.696 59.11L257.726 59.2L257.156 59.51C257.156 59.34 257.066 59.25 256.976 59.25L256.626 59.56L256.626 59.3L255.266 59.17L254.956 59.17L254.956 59.66L255.666 59.83L256.286 59.83C256.516 59.96 256.776 60.02 257.036 60L257.606 59.74L257.606 59.97C255.866 60.41 254.086 60.75 252.306 60.98C252.186 60.89 252.056 60.82 251.906 60.79C251.846 60.84 251.606 60.93 251.756 60.77C251.666 60.76 251.586 60.73 251.516 60.67C251.396 60.59 251.336 60.46 251.336 60.31L252.436 60.18C252.686 60.27 252.936 60.34 253.196 60.4C254.076 59.96 254.166 59.78 254.606 59.73L254.606 59.25C252.716 59.62 250.786 59.8 248.856 59.78L248.676 59.78L248.676 59.3C253.676 58.68 252.006 59.04 253.676 58.54C253.676 58.72 253.766 58.8 253.856 58.8C254.036 58.61 254.296 58.5 254.556 58.49L254.916 58.49C256.886 58.57 258.846 58.31 260.726 57.74L260.726 57.96L261.306 57.7L261.836 57.7C261.836 57.17 262.586 57.13 262.806 57.08L262.806 56.55C256.736 57.79 255.146 57.43 253.466 57.92L253.466 57.7C252.796 57.86 252.116 57.92 251.426 57.87C251.236 57.92 251.066 58.03 250.946 58.18C250.946 58.01 250.856 57.92 250.726 57.92L250.366 58.23C250.546 58.05 250.576 57.96 250.656 57.93L245.466 58.76C245.466 58.7 245.446 58.65 245.396 58.6C245.356 58.56 245.296 58.54 245.236 58.54C243.436 59.07 241.586 59.4 239.706 59.51C239.466 59.53 239.236 59.62 239.036 59.77C239.036 59.64 238.956 59.55 238.776 59.55L236.566 59.72L235.106 60.08C235.106 59.95 235.016 59.86 234.846 59.86C234.146 60.05 233.436 60.19 232.726 60.26C232.366 60.26 232.896 60.17 232.636 60.03L232.016 60.28L229.496 60.28C225.626 60.76 226.046 60.81 225.626 60.85L224.156 60.76C224.156 60.9 224.156 60.98 223.936 61.02C222.306 60.8 221.466 60.54 221.416 60.23C221.636 58.68 221.986 57.88 222.566 57.8L222.836 57.8L222.566 58.33L222.836 58.33C223.366 58.07 223.586 57.8 223.586 57.53L223.586 57L223.056 57L223.056 56.52C223.006 56.17 223.056 55.82 223.186 55.5L224.386 53.56L224.386 54.05L224.956 54.05L224.956 53.56L224.646 53.08C224.916 52.78 225.266 52.58 225.656 52.51L225.656 52.24L224.906 52.24L224.906 51.49C225.876 49.75 226.616 47.89 227.116 45.96L227.646 46.18C228.006 46.18 228.176 45.96 228.136 45.61L227.596 45.61L227.596 45.42C227.566 45.05 227.626 44.68 227.776 44.35C228.536 43.68 228.946 42.7 228.876 41.7C228.946 41.69 229.026 41.71 229.076 41.76C229.126 41.81 229.146 41.88 229.136 41.96C229.846 41.56 230.376 40.49 230.776 38.73C232.866 34.36 234.636 29.85 236.086 25.24C238.276 20.1 239.906 14.75 240.926 9.26L240.396 9.26C240.436 9.62 240.356 9.97 240.176 10.28C239.906 10.16 239.616 10.09 239.326 10.06L239.326 9.83C239.346 8.48 239.816 7.17 240.656 6.11L240.736 6.11L241.176 7.84L241.716 7.84C241.716 7.7 241.846 7.04 242.106 5.75C242.106 5.49 241.886 5.36 241.486 5.31L241.006 5.62L241.006 2.79L240.526 2.88L240.546 2.9C240.106 5.57 238.926 8.06 237.136 10.1L236.036 9.4C236.816 7.72 237.386 5.95 237.756 4.14L237.446 3.65C237.056 3.65 236.486 4.76 235.866 6.88L235.286 6.88C235.256 6.52 235.156 6.17 234.976 5.86L234.716 5.86C229.496 20.39 227.156 27.17 222.326 38.38C221.446 41.29 220.696 42.85 220.036 43.16C220.036 43.3 220.096 43.43 220.216 43.52C220.326 43.6 220.466 43.64 220.606 43.6C220.716 45.06 220.376 46.51 219.636 47.76C218.626 51.47 217.126 55.03 215.166 58.34L215.656 61.39C215.686 61.53 215.646 61.68 215.556 61.78C215.456 61.89 215.316 61.94 215.166 61.92L214.636 61.92C214.546 61.08 214.226 60.69 213.666 60.73L213.406 60.73C212.696 61.88 212.176 63.14 211.856 64.45L212.386 64.45C213.006 64.15 213.396 63.5 213.356 62.81L214.426 62.73L214.996 62.95C214.586 63.47 214.356 64.1 214.326 64.76L214.586 65.25L213.916 66.83L213.916 67.1C214.626 67.07 215.326 67.27 215.916 67.67C216.486 67.58 217.026 67.37 217.506 67.05C218.126 67.05 220.336 66.96 224.226 66.96L226.166 66.29C228.556 66.29 228.906 66.29 231.006 66.16L231.856 66.07L232.296 65.76L232.296 66.02C233.626 65.87 234.966 65.93 236.276 66.19L236.276 66.46L235.086 66.54L235.086 67.03C235.436 67.01 235.776 66.89 236.056 66.67C236.366 66.67 236.536 66.81 236.586 67.15C236.036 67.22 235.486 67.34 234.956 67.51L234.416 67.34C234.036 67.49 233.636 67.59 233.226 67.65L232.386 67.47C232.396 67.59 232.326 67.7 232.206 67.74C232.206 68.05 232.386 68.22 232.696 68.18L233.396 68.12C233.306 68.09 233.266 68.01 233.266 67.92L233.716 68.09L233.396 68.12C233.436 68.13 233.476 68.14 233.526 68.14L237.906 67.74L239.766 67.5C239.766 67.56 239.786 67.62 239.826 67.66C239.866 67.71 239.926 67.73 239.986 67.73L240.786 67.42L242.286 67.28C243.476 67.19 243.436 67.11 245.956 66.71C245.956 66.57 245.956 66.49 246.126 66.49L246.126 66.71C247.966 66.56 249.776 66.19 251.526 65.6L251.306 65.07C250.636 65.22 249.956 65.3 249.266 65.29L245.596 65.47L245.596 65.21L247.636 64.95L248.386 64.95L248.786 64.64L248.786 64.9C254.626 64.83 260.436 64.04 266.086 62.55C266.796 62.55 266.756 61.88 267.196 60.61C266.946 60.63 266.696 60.56 266.486 60.44C265.236 60.75 263.966 60.94 262.676 61.01C262.506 61.01 262.366 60.88 262.276 60.53L262.276 60.3L264.316 60.39Z M251.756 60.77C251.786 60.77 251.806 60.77 251.836 60.77C251.816 60.77 251.796 60.76 251.766 60.76C251.766 60.76 251.766 60.77 251.756 60.77Z M251.906 60.79C251.886 60.78 251.866 60.78 251.836 60.77C251.806 60.77 251.786 60.77 251.756 60.77C251.606 60.93 251.846 60.84 251.906 60.79Z M251.906 60.76C251.886 60.77 251.856 60.77 251.836 60.77C251.866 60.78 251.886 60.78 251.906 60.79C251.926 60.77 251.936 60.76 251.906 60.76Z M250.656 57.93L250.726 57.92C250.696 57.92 250.676 57.93 250.656 57.93Z M250.656 57.93C250.576 57.96 250.546 58.05 250.366 58.23L250.726 57.92L250.656 57.93Z M233.396 68.12L233.716 68.09L233.266 67.92C233.266 68.01 233.306 68.09 233.396 68.12Z M233.42 10.9497L233.42 11.6997C233.73 11.6497 234.04 11.2597 234.44 10.5497L234.18 10.5497C233.96 10.7397 233.7 10.8697 233.42 10.9497Z M231.922 15.7884C231.742 16.3184 231.472 16.6284 231.212 16.6284L231.352 18.4084L231.612 18.4084C231.642 17.8184 231.872 17.2484 232.282 16.8184L232.192 15.5384C232.812 15.4484 233.252 14.4384 233.522 12.3984L233.522 12.1384C233.032 12.4484 232.502 13.6884 231.972 15.8584L231.922 15.7884Z M231.121 18.7356C230.851 18.7756 230.541 19.2156 230.291 20.0956L230.291 20.8456L230.551 20.8456C230.861 20.1956 231.051 19.4856 231.121 18.7656L231.121 18.7356Z M216.853 51.4072C217.253 51.3672 217.433 51.1872 217.383 50.8772L217.383 50.6172L217.123 50.6172L216.643 50.8772L216.593 50.9272L216.853 51.4072Z M223.587 56.9666C223.987 56.9666 224.377 56.2066 224.737 54.8366L224.207 54.6666C223.917 55.3366 223.707 56.0366 223.587 56.7466L223.587 56.7366L223.587 56.9666Z M268.368 58.4797C268.388 58.4497 268.438 58.4197 268.497 58.3797L268.658 58.2497L268.728 58.2497C268.878 58.1497 268.948 58.0497 268.568 57.9797C268.378 58.1497 268.728 58.1897 268.338 58.2397L268.368 58.2897L268.368 58.4797Z M268.368 58.4997L268.497 58.3797C268.438 58.4197 268.388 58.4497 268.368 58.4797L268.368 58.4997Z M268.348 58.5097L268.368 58.4997L268.368 58.4797C268.348 58.4897 268.348 58.4997 268.348 58.5097Z M268.368 58.5097L267.918 59.0497L268.758 58.7397L268.828 58.7397L268.828 58.2497L268.728 58.2497C268.658 58.2997 268.568 58.3397 268.497 58.3797L268.368 58.4997L268.368 58.5097Z M268.658 58.2497L268.497 58.3797C268.568 58.3397 268.658 58.2997 268.728 58.2497L268.658 58.2497Z M271.279 59.7941C271.279 59.4841 270.489 59.3941 270.209 59.3941L270.039 59.3941L270.039 59.8741L270.089 59.8741L271.279 59.7941Z M248.914 60.2756C248.644 60.3256 248.484 60.4956 248.634 60.8956L249.734 61.0356L249.474 60.5456C249.294 60.5456 249.294 60.6356 249.294 60.7656L248.944 60.3256L248.914 60.2756Z M245.276 60.721C245.116 60.881 244.926 61.001 244.706 61.071L244.706 61.291L245.986 61.291C245.986 61.121 245.916 60.961 245.786 60.841C245.656 60.731 245.486 60.691 245.316 60.721L245.276 60.721Z M247.128 60.6756L247.128 60.9356L248.148 60.8456L248.148 60.5856L247.128 60.6756Z M237.879 61.6484C237.879 61.6584 237.879 61.6684 237.879 61.6784L237.969 61.6584L237.879 61.6484Z M238.139 61.8784C237.979 61.8784 237.889 61.7984 237.879 61.6784L236.559 61.9684L235.009 62.1084L235.009 62.3684L236.719 62.2384L240.839 61.8784C240.789 61.5684 240.659 61.4284 240.399 61.4284C239.599 61.5184 239.779 61.5684 238.139 61.8784Z M236.729 62.2284L236.719 62.2384L236.289 62.2684L236.729 62.4984L236.729 62.2284Z M241.015 61.3841L241.015 61.6041C241.595 61.5941 242.175 61.6341 242.735 61.7341C243.015 61.4741 242.425 61.4741 242.565 61.4741L242.565 61.2541L241.015 61.3841Z M242.875 61.2084L242.875 61.4284L243.715 61.3384L243.715 61.1184L242.875 61.2084Z M215.36 65.6828L214.83 65.6828L214.83 65.9028C214.92 66.2528 215.14 66.3928 215.4 66.3928L215.4 65.6328L215.36 65.6828Z M253.793 65.3947L253.793 65.1347L254.043 65.2947L254.673 65.0447C260.743 64.3747 261.453 64.6447 261.363 63.9347L261.363 63.7147C258.683 64.4347 255.943 64.8547 253.173 64.9547L253.273 64.9647L253.273 65.4447L253.793 65.3947Z M253.803 65.3947L254.043 65.2947L253.793 65.1347L253.793 65.3947L253.803 65.3947Z M253.793 65.4047L253.803 65.3947L253.793 65.3947L253.793 65.4047Z M254.153 65.3647L254.043 65.2947L253.803 65.3947L254.153 65.3647Z M263.615 64.2972L263.615 63.8072L262.735 63.6372L262.735 64.1172L263.615 64.2972Z M236.452 66.3372L237.783 66.2072C237.852 66.1972 237.923 66.2172 237.973 66.2672C238.023 66.3172 238.053 66.3972 238.042 66.4672C238.542 66.1972 239.113 66.0672 239.682 66.0672L239.682 65.8072L236.583 66.0672C236.572 66.0672 236.572 66.0672 236.572 66.0672C236.592 66.0772 236.572 66.0772 236.452 66.0772L236.452 66.3372Z M236.523 66.0472C236.473 66.0772 236.452 66.0872 236.572 66.0672C236.562 66.0672 236.542 66.0572 236.523 66.0472Z M236.583 65.8472L236.542 65.8572C236.413 65.9572 236.473 66.0172 236.523 66.0472C236.592 66.0072 236.732 65.9272 236.583 65.8472Z M251.176 65.9734C252.196 65.7534 251.626 65.7934 251.886 65.5734C251.886 65.7534 251.976 65.8334 252.056 65.8334L252.766 65.8334L252.766 65.3034L250.906 65.3034L250.906 65.5634L250.916 65.4834L251.176 65.9734Z M233.387 66.9406L233.217 66.9406L233.217 67.4206L233.387 67.4206L233.387 66.9406Z M219.548 69.3694L227.688 68.6994L227.688 68.2194L221.188 68.7494L219.748 68.4694L219.548 69.1094L219.548 69.3694Z M228.705 68.6219L228.705 68.1419L228.615 68.1419L228.615 68.6219L228.705 68.6219Z M97.9281 87.7613C98.2681 85.8112 98.8681 83.9313 99.7081 82.1413C100.898 77.9013 101.738 75.6813 102.308 75.5513L102.448 76.0813L101.598 78.3413C100.468 83.7513 98.9281 89.0612 96.9981 94.2313L97.4481 96.1712L97.7081 96.1712C104.058 80.5813 109.458 64.6312 113.858 48.3913C114.028 46.3812 115.148 44.5813 116.868 43.5413L116.468 43.1513L116.468 42.9212C117.138 42.8213 117.738 42.4812 118.158 41.9613C118.118 41.7812 117.408 41.5212 116.038 41.1612L120.188 23.3713C121.308 18.7513 122.148 14.0712 122.708 9.35125L122.708 9.09125C121.778 8.48125 120.958 7.72125 120.278 6.83125L120.278 5.54125L120.058 5.54125C117.488 9.42125 112.358 16.2013 104.788 25.8813L104.678 25.8412C101.418 29.4113 98.4281 33.2113 95.7281 37.2213C93.3881 39.6513 92.2381 41.0912 92.3681 41.6012C91.7481 41.9912 91.4881 42.3913 91.5781 42.8412C91.4981 42.8613 91.4081 42.8512 91.3481 42.8112C91.2781 42.7712 91.2281 42.7012 91.2181 42.6113C90.2181 44.2312 88.6081 45.3613 86.7481 45.7513L84.6681 46.2412C84.4081 46.2412 84.2681 46.5013 84.2681 46.8613L84.2681 47.1213L85.0681 46.9413L85.0681 47.1712L83.2881 47.8412L80.1581 48.5413L78.5181 48.6312C78.2981 48.8512 79.7981 48.6312 79.2281 48.7712L77.1881 49.2513C75.9481 49.5612 75.2481 49.4212 75.1581 48.9413L74.9281 48.9413C75.0081 49.1913 74.9981 49.4013 74.9281 49.5512L74.9681 49.7312L74.5781 49.8213C74.7481 49.7812 74.8681 49.6913 74.9281 49.5512L74.7981 48.9812L71.0781 49.8613L71.0881 49.8613C71.3281 49.8313 71.4781 49.8913 71.4781 50.0312L71.0881 49.8613C71.0281 49.8713 70.9681 49.8812 70.8981 49.9013L70.4181 50.3012L69.8481 50.1612C69.5481 50.3613 69.2181 50.5212 68.8781 50.6513L68.3081 50.5113C66.7581 51.3913 67.9081 51.3913 67.8181 51.3913L67.9581 51.8812L68.8381 51.6513L70.2181 51.5713L70.0781 52.1413C65.0281 53.4613 68.7081 52.7113 67.3381 53.0212L67.0781 53.0212L67.2081 53.5013L68.0081 53.3313L68.0081 53.5912C67.3681 53.6612 66.7581 53.8913 66.2381 54.2613L66.2381 54.0013C64.6081 54.5312 63.2081 55.5912 62.2481 57.0113C62.4781 57.9812 59.5981 59.1813 73.1281 56.0413C74.0981 56.0413 74.5981 56.0413 74.7181 55.9512C74.7181 55.7812 74.7181 55.6913 74.9381 55.6413C76.4481 55.4713 75.7381 55.7312 76.6681 55.5113L79.0581 54.9613C79.0781 54.9512 79.0981 54.9413 79.1281 54.9413C79.1281 54.9413 79.1381 54.9413 79.1381 54.9413L79.5681 54.8412L79.3381 54.9812C79.6381 55.0212 79.9381 55.0113 80.2281 54.9413L80.4081 55.6913L68.9781 74.0312L66.3581 77.1913L65.1181 81.3913L65.3381 81.3913L66.5781 80.8613L66.1881 82.5013L66.3181 82.9813L66.6781 83.4313C66.5081 83.4313 66.4581 83.5612 66.5081 83.7412L66.5081 84.0013L67.0381 83.8613C67.7881 83.2013 68.0981 82.5813 68.0081 82.0513C68.5481 82.1712 69.0981 82.2113 69.6481 82.1913L69.6481 82.4513C69.1581 82.5813 68.8981 82.9813 68.8481 83.6413L68.8481 83.9013L69.1081 83.9013C73.3181 79.3512 83.5381 63.7213 91.7581 53.1113C91.4981 51.9613 95.7881 50.3613 104.638 48.3313L104.898 48.3313C104.858 51.7913 104.168 55.2113 102.858 58.4112C102.188 60.1213 101.668 61.8812 101.308 63.6712C100.438 65.9212 99.7681 68.2513 99.3181 70.6213L96.3881 80.8013C94.3181 86.1913 92.7581 91.7613 91.7381 97.4413C91.9981 97.4212 92.2681 97.4513 92.5181 97.5312L92.9581 97.1413C92.9581 97.3112 93.0981 97.3613 93.3181 97.3613L93.1481 96.6012L94.5181 96.6012C94.9181 96.5213 95.2781 95.9813 95.5381 95.0513C95.5381 93.6813 95.7581 92.9313 96.3781 92.7613C96.6981 91.0413 97.2181 89.3613 97.9281 87.7613Z M79.0581 54.9613L79.1381 54.9413C79.1381 54.9413 79.1281 54.9413 79.1281 54.9413C79.0981 54.9413 79.0781 54.9512 79.0581 54.9613Z M79.3381 54.9812L79.5681 54.8412L79.1381 54.9413C79.2081 54.9512 79.2681 54.9713 79.3381 54.9812Z M79.0581 54.9613C78.9481 55.0013 78.9481 55.0813 78.9481 55.2012L79.3381 54.9812C79.2681 54.9713 79.2081 54.9512 79.1381 54.9413L79.0581 54.9613Z M74.9681 49.7312L74.9281 49.5512C74.8681 49.6913 74.7481 49.7812 74.5781 49.8213L74.9681 49.7312Z M71.0881 49.8613L71.4781 50.0312C71.4781 49.8913 71.3281 49.8313 71.0881 49.8613Z M109.951 29.7213C107.171 33.1113 104.611 36.6813 102.281 40.4113L102.451 41.1113C102.811 41.2213 103.201 41.2213 103.561 41.1113L104.351 40.9412L106.131 40.2713L106.131 40.5312C108.121 40.0513 109.271 38.2412 109.541 35.0513C110.281 33.4313 110.631 31.6613 110.551 29.8713L110.571 29.8113L109.951 29.7213Z M106.496 40.9837C102.496 41.9137 100.546 42.6237 100.686 43.1138C101.386 42.9338 101.786 42.9338 101.786 43.1138C102.006 42.9037 102.256 42.7537 102.546 42.6637C102.856 42.5637 104.406 42.1338 107.196 41.2837L107.056 40.8037L106.486 40.9437L106.496 40.9837Z M79.6356 48.2312L79.4956 47.7012L78.8756 47.8412L79.0156 48.3712L79.6356 48.2312Z M87.1084 46.2581L87.1584 46.2481L87.1084 46.2481L87.1084 46.2581Z M85.9184 46.5581L85.9184 46.8181L87.2484 46.7281L87.1084 46.2581L85.9184 46.5581Z M70.7672 51.5041L70.7672 51.7741L71.6072 51.5941L71.6072 51.3341L70.7672 51.5041Z M70.0072 54.5213L68.9072 54.5213L69.0472 55.0013L70.0572 54.7812L70.0572 54.5613L70.0072 54.5213Z M70.6316 54.4772L70.6316 54.6972L72.4916 54.2472L72.4916 54.0272L70.6316 54.4772Z M75.6881 53.4944C73.2581 54.0644 73.5681 53.8944 70.7381 54.3744L70.8781 54.8644L75.7181 53.7544L75.7181 53.4944L75.6881 53.4944Z M98.6797 48.7172L99.2497 48.8072C99.6097 48.5272 100.04 48.3472 100.49 48.2772L100.09 47.8272L100.09 47.8372L98.8497 48.4072L95.1797 49.2472C95.2197 49.3872 95.3097 49.5072 95.4397 49.5772C95.5597 49.6472 95.7097 49.6572 95.8497 49.6072L96.3797 49.4772C97.1697 49.2872 97.9297 49.0272 98.6797 48.7172Z M102.7 47.2556C102.71 47.2456 102.72 47.2356 102.73 47.2256L102.7 47.2556L102.7 47.2556Z M101.98 47.7056L101.98 47.9656C103.04 47.4756 104.16 47.1156 105.3 46.8956L105.3 46.6356L102.7 47.2556C102.5 47.4556 102.25 47.6056 101.98 47.7056Z M72.7919 55.5344L72.7919 55.8044C73.7919 55.5244 74.8119 55.3744 75.8419 55.3544C76.5019 55.0444 76.1019 55.0444 76.6419 54.9044L76.5019 54.4244L75.2619 54.6844L72.7919 55.5344Z M78.6097 54.1135L77.8197 54.2935C77.9597 54.6435 78.1797 54.7735 78.4897 54.6835L79.2397 54.5135C79.1997 54.1135 78.9797 54.0235 78.6197 54.1135L78.6097 54.1135Z M64.821 82.2937C65.181 82.2038 65.301 82.0338 65.221 81.6738L65.221 81.4137C65.081 81.4337 64.951 81.5137 64.881 81.6338C64.801 81.7537 64.781 81.8938 64.821 82.0338L64.821 82.2937Z M66.1047 86.7978C66.2247 86.8678 66.3747 86.8778 66.5047 86.8178C66.8647 86.7278 66.9847 86.5578 66.9047 86.1978L66.9047 85.9378L66.3647 86.0778L65.9247 86.4678L65.8847 86.4578C65.9047 86.5978 65.9847 86.7278 66.1047 86.7978Z M212.531 10.0122L214.041 9.93219L216.041 9.37219C216.831 9.45219 217.231 9.63219 217.231 9.85219C218.041 9.56219 218.891 9.38219 219.751 9.32219L219.751 9.01219L217.721 8.92219L213.731 9.59219L212.011 9.45219C212.011 9.59219 212.181 9.77219 212.531 10.0122Z M94.0269 94.0995L93.7169 94.0995C93.7769 94.3595 93.7769 94.6295 93.7169 94.8895L94.7369 94.6695L94.7369 94.4095C94.7169 94.2595 94.6369 94.1395 94.5169 94.0695C94.3969 93.9995 94.2469 93.9895 94.1169 94.0495L94.0269 94.0995Z M131.649 34.4034C125.769 48.8734 118.979 62.9534 111.309 76.5634C111.359 76.8434 111.479 77.1034 111.669 77.3134C112.579 77.1734 113.459 76.8434 114.239 76.3434L114.459 76.3434L114.459 76.8334L115.029 76.8334L115.509 76.5734C115.509 76.7034 115.689 76.7934 116.049 76.7434L116.049 77.2734C115.959 78.1034 115.669 78.8934 115.199 79.5734C114.349 80.7534 113.739 82.0934 113.389 83.5034L113.389 83.7634L113.929 83.7634C115.919 81.5934 117.609 79.1534 118.919 76.5134C123.979 75.1334 128.899 73.2834 133.609 70.9834C136.399 70.8934 139.099 69.9634 141.359 68.3234L141.359 68.0634L140.029 68.4634L139.769 68.4634L139.769 68.2034C141.609 68.0734 143.389 67.4934 144.949 66.5134C149.789 62.7534 153.479 60.1034 156.009 58.5534C163.709 52.8834 167.329 47.4834 166.889 42.2634C165.489 39.9234 163.779 37.7834 161.799 35.8934C161.759 35.1834 162.909 34.1634 165.249 32.8434L171.969 27.0234C173.749 24.2534 174.669 21.0234 174.629 17.7334L174.539 16.7734C174.279 13.8034 172.109 11.4134 168.039 9.56339C164.009 7.55339 159.529 6.62339 155.029 6.86339C148.099 7.71339 141.329 9.55339 134.919 12.3134C132.449 14.0534 129.889 15.6734 127.259 17.1434L127.259 17.6334C127.539 17.5734 127.819 17.4534 128.049 17.2734C128.189 17.2434 128.329 17.2734 128.439 17.3634C128.549 17.4434 128.619 17.5734 128.619 17.7234L129.109 17.4534L129.329 17.4534L129.329 17.6834C127.699 19.3134 125.869 20.7434 123.879 21.9234L124.149 22.4534L123.919 22.4534L123.349 22.2334C123.349 22.4034 123.129 22.5434 122.599 22.5934L122.599 22.8134L123.169 23.5234C122.869 23.5134 122.589 23.4334 122.319 23.3034C120.839 23.6034 119.559 24.5434 118.829 25.8634L119.089 26.3534C119.599 25.7834 120.199 25.3134 120.859 24.9334L120.859 25.6934C120.569 25.7434 120.299 25.8734 120.069 26.0534L120.739 27.0234C121.899 25.7334 123.219 24.6034 124.669 23.6534C125.379 23.8834 125.769 24.1034 125.769 24.3234L126.309 24.3234C129.859 21.6334 133.819 19.5134 138.029 18.0334L138.029 18.5234C137.319 19.5834 136.839 20.1134 136.569 20.1634C136.599 20.5034 136.709 20.8334 136.879 21.1334C135.469 25.6734 133.729 30.1134 131.649 34.4034Z M134.919 12.3134C134.969 12.2734 135.029 12.2334 135.079 12.1934L134.849 12.3434C134.869 12.3334 134.899 12.3234 134.919 12.3134Z M171.109 12.5591C170.979 11.0191 168.409 10.1691 163.409 9.94906L170.839 13.0891L171.099 12.5591L171.109 12.5591Z M164.655 21.6726L164.835 20.1726L165.365 20.1726C165.405 20.6526 165.575 20.8726 165.935 20.8726C166.575 20.1326 166.945 19.2026 167.005 18.2226C166.815 17.0726 166.045 16.0926 164.965 15.6526L164.435 15.6526L164.525 16.8426L163.985 16.8426C163.815 14.7226 161.515 13.7926 157.095 14.1926C156.505 14.2426 155.015 14.4626 152.625 14.8626L152.625 14.1026L151.835 14.1926C149.405 14.6326 148.295 15.2526 148.295 16.0026L142.675 28.5926C142.055 28.9426 141.485 30.4926 140.955 33.2826L140.925 33.3126C140.135 34.3626 139.685 35.6326 139.645 36.9426L139.645 37.4226C140.005 37.3726 140.375 37.4226 140.715 37.5626C144.455 35.7326 148.345 34.2226 152.335 33.0426C154.415 31.8526 156.355 30.4126 158.085 28.7526C158.355 28.7526 158.925 28.1326 159.815 26.8926C160.785 26.8026 162.405 25.0826 164.655 21.6726Z M171.787 17.8011C171.267 16.2111 170.737 15.4111 170.287 15.4411L170.287 15.9311C171.077 17.5211 171.577 18.3211 171.837 18.3211L171.837 17.7911L171.787 17.8011Z M121.801 23.8922L121.801 24.3722L122.021 24.3722C122.271 24.2222 122.541 24.1222 122.821 24.0622L122.821 23.8022L121.801 23.8922Z M138.717 23.4344C138.627 23.9344 138.397 24.3944 138.047 24.7644L138.047 25.2444C138.447 24.5744 138.757 24.1844 139.017 24.1844L139.017 23.4244L138.717 23.4344Z M136.235 28.6459L136.325 29.6159L136.585 29.6159L136.495 28.6459L136.235 28.6459Z M135.347 30.4575C135.347 30.9275 135.207 31.3875 134.947 31.7875L135.207 31.7875C135.607 31.7375 135.827 31.2975 135.877 30.4575L135.347 30.4575Z M134.506 33.015C134.536 33.545 134.276 33.855 133.746 33.855L133.746 34.115L134.276 34.115L134.726 33.325L134.726 33.065L134.506 33.015Z M133.116 35.4078L133.206 36.6878L133.446 36.6878L133.616 35.4078L133.116 35.4078Z M160.866 36.4266L160.386 36.4266L160.386 37.1766C160.786 37.1866 161.176 37.3266 161.486 37.5766C161.636 37.5966 161.776 37.5466 161.876 37.4366C161.966 37.3366 162.006 37.1866 161.976 37.0466L160.866 36.3766L160.866 36.4266Z M138.492 39.2953L138.492 39.7753L139.562 39.6853L139.562 39.2053L138.492 39.2953Z M155.93 41.1069C156.36 41.7969 157.11 42.2069 157.93 42.2069L157.93 41.9869C157.88 41.6869 157.53 41.3769 156.77 41.0169L155.93 41.1069Z M134.63 46.4615C134.64 46.4415 134.65 46.4215 134.66 46.4015L134.61 46.4615C134.61 46.4615 134.62 46.4615 134.63 46.4615Z M124 68.2215L124.26 68.2215C129.5 66.6415 134.5 64.3615 139.12 61.4415C141.96 59.9915 144.68 58.3415 147.26 56.4915L153.94 51.0915C155.4 50.4715 156.73 48.4415 157.93 44.9915L157.84 44.0215C155.79 42.3415 153.11 41.6315 150.5 42.0815L148.86 42.2215C144.31 44.2315 139.53 45.6515 134.63 46.4615C127.72 60.0415 124.17 67.2915 124 68.2215Z M140.75 43.645L140.75 43.905L141.82 43.815L141.82 43.555L140.75 43.645Z M165.906 42.4506C165.906 42.2306 165.596 42.0006 165.036 41.8306L165.346 45.2806C165.616 45.2406 165.836 44.9706 166.106 44.4806L165.926 42.4506L165.906 42.4506Z M124.008 62.0925L124.008 62.3225C124.368 62.3225 124.718 61.4425 125.078 59.7525C124.328 60.2925 123.918 61.1825 124.008 62.0925Z M120.696 74.1184C121.106 74.3784 121.586 74.5184 122.076 74.5184C124.806 73.0984 127.626 71.8584 130.516 70.7984C130.476 70.3984 132.846 69.3384 137.686 67.6584C140.166 65.9384 142.806 64.4584 145.566 63.2284C147.116 62.1784 147.826 61.5184 147.826 61.2884L147.826 60.8084C142.796 64.1984 137.406 67.0184 131.756 69.2184L131.746 69.2284C131.746 69.3284 131.266 69.7584 130.166 70.2884C130.026 70.3284 129.876 70.2884 129.766 70.2084C129.656 70.1184 129.596 69.9884 129.586 69.8484C129.766 69.1384 130.506 68.7384 131.886 68.6084L131.886 68.3884L131.096 68.4684C129.466 68.9684 127.916 69.6984 126.486 70.6184L128.126 70.4884L128.126 70.9684C126.706 71.3084 125.316 71.7684 123.966 72.3484C123.296 72.0884 122.566 71.9784 121.846 72.0384C121.066 72.4184 120.606 73.2484 120.696 74.1184Z M123.482 63.1628C123.502 63.1628 123.522 63.1528 123.532 63.1528L123.482 63.1528L123.482 63.1628Z M123.002 63.6828L123.002 63.9428C123.152 63.9628 123.302 63.9028 123.392 63.7928C123.492 63.6728 123.522 63.5228 123.482 63.3728L123.482 63.1628C123.162 63.2628 123.002 63.4728 123.002 63.6828Z M136.124 66.5656C136.094 66.2556 135.914 66.1656 135.554 66.1656C134.654 67.0356 133.484 67.5656 132.234 67.6656L132.234 68.1556L132.494 68.1556C133.594 67.4456 134.804 66.9156 136.084 66.6056L136.124 66.5656Z M123.017 70.1775C122.677 70.2675 122.537 70.4475 122.537 70.7075L123.067 70.7075C123.317 70.5575 123.587 70.4575 123.867 70.3975L123.867 70.1375L123.067 70.2275L123.017 70.1775Z M117.703 73.2391C117.173 73.7291 116.703 74.2791 116.293 74.8691C116.253 74.3791 116.063 74.0691 115.713 74.1591C115.373 74.2491 115.233 74.4291 115.233 74.6891L115.233 75.4491C115.803 75.4291 116.363 75.5491 116.873 75.8091C117.573 75.7591 118.073 74.9591 118.243 73.4091L117.713 73.1891L117.703 73.2391Z M14.19 24.664C12.24 25.084 10.56 26.324 9.59 28.074L9.99 28.694C10.65 27.974 11.43 27.364 12.28 26.884L12.37 27.854C12.01 27.924 11.67 28.054 11.35 28.244L12.2 29.484C13.74 27.794 15.51 26.324 17.46 25.114C18.43 25.374 18.92 25.644 18.92 25.994L19.63 25.994C24.29 22.434 29.49 19.624 35.02 17.674L35.02 18.334C34.05 19.754 33.43 20.464 33.08 20.504C33.13 20.974 33.3 21.414 33.57 21.784C31.73 27.774 29.43 33.604 26.67 39.224C18.95 58.284 10.04 76.834 0 94.784C0.07 95.124 0.2 95.454 0.4 95.754C1.61 95.554 2.77 95.124 3.81 94.474L4.2 94.474L4.2 95.144L4.87 95.144L5.62 94.624C5.62 94.854 5.88 94.934 6.33 94.894L6.33 95.554C6.23 96.664 5.83 97.724 5.17 98.614C4.09 100.174 3.29 101.934 2.83 103.784L2.83 104.094L3.5 104.094C6.12 101.234 8.33 98.034 10.08 94.584C16.77 92.784 23.26 90.334 29.46 87.274C33.14 87.174 36.71 85.954 39.68 83.774L39.68 83.424L37.99 83.904L37.6 83.904L37.6 83.544C40 83.354 42.32 82.594 44.38 81.334C50.79 76.384 55.62 72.884 58.91 70.804C69.04 63.374 73.82 56.204 73.25 49.394C71.4 46.324 69.15 43.514 66.56 41.034C66.48 40.064 68.03 38.784 71.12 37.004L79.92 29.254C82.23 25.604 83.46 21.374 83.46 17.054L83.32 15.724C82.96 11.794 80.14 8.604 74.74 6.174C69.44 3.534 63.54 2.364 57.64 2.764C48.47 3.994 39.49 6.434 30.96 10.014L30.92 10.014C27.63 12.404 24.19 14.574 20.62 16.514L20.62 17.184C20.98 17.124 21.32 16.984 21.63 16.784C22.08 16.784 22.34 16.924 22.34 17.364L23.05 16.964L23.41 16.964L23.41 17.274C21.23 19.414 18.81 21.304 16.2 22.894L16.59 23.514L16.24 23.514L15.48 23.254C15.48 23.474 15.17 23.604 14.46 23.644L14.46 24.004L15.26 24.884C14.89 24.884 14.53 24.804 14.19 24.664Z M78.3769 10.5897C78.2069 8.54969 74.8469 7.39969 68.2969 7.13969L78.1269 11.2597L78.3869 10.5897L78.3769 10.5897Z M52.9569 12.8387C49.7369 13.3687 48.1869 14.1587 48.2769 15.1788L40.9269 31.6488C40.0869 32.1287 39.3369 34.2188 38.6769 37.8387L38.7069 37.8587C37.6269 39.2487 37.0269 40.9487 36.9869 42.6987L36.9869 43.3187C37.4669 43.2588 37.9569 43.3387 38.3969 43.5487C43.3169 41.1488 48.4269 39.1688 53.6669 37.6188C56.4169 36.0288 58.9769 34.1287 61.2869 31.9487C61.5969 31.9087 62.3469 31.0687 63.5369 29.4287C64.8669 29.3288 66.9869 27.0788 69.9569 22.6488L70.1269 20.6587L70.8369 20.6587C70.8869 21.3587 71.1469 21.6187 71.5869 21.6187C72.5069 20.6987 73.0469 19.4688 73.0969 18.1787C72.8569 16.6187 71.8169 15.2987 70.3469 14.7288L69.6469 14.7288L69.7769 16.4088L69.1069 16.4088C68.8369 13.5387 65.8069 12.3888 59.9969 12.8787C59.2469 12.9587 57.2969 13.2287 54.1169 13.7188L54.0269 12.7487L52.9569 12.8387Z M79.2844 17.4957C78.5744 15.3257 77.9044 14.2257 77.3644 14.3557L77.3644 14.9757C78.3444 17.0957 79.0044 18.1157 79.3644 18.1157L79.3644 17.4957L79.2844 17.4957Z M13.3881 25.4616L13.3881 26.0816L13.7481 26.0816C14.0581 25.8916 14.4081 25.7516 14.7681 25.6816L14.7681 25.3716L13.3881 25.4616Z M35.8353 24.8678C35.6953 25.5278 35.3553 26.1278 34.8653 26.5878L34.8653 27.2578C35.3853 26.3278 35.8353 25.8478 36.1453 25.8478L36.0553 24.8778L35.8353 24.8678Z M32.4531 31.785L32.5631 33.105L32.9231 33.105L32.7831 31.775L32.4531 31.785Z M31.1825 34.2078C31.1525 34.8078 30.9525 35.3878 30.6125 35.8878L30.9725 35.8878C31.5825 35.8578 31.8525 35.2678 31.9425 34.1678L31.1825 34.2078Z M30.5184 37.6166L30.1584 37.6166C30.2184 37.8966 30.1384 38.1866 29.9484 38.3966C29.7584 38.6166 29.4684 38.7166 29.1884 38.6866L29.1884 38.9966L29.8584 38.9966L30.4784 37.9266L30.4784 37.6166L30.5184 37.6166Z M28.3069 40.7166L28.4469 42.3566L28.7969 42.3566L28.9769 40.7166L28.3069 40.7166Z M64.1119 42.0081L64.2019 42.9781C64.7319 43.0281 65.2319 43.2281 65.6619 43.5481C65.8519 43.5481 66.0319 43.4681 66.1519 43.3181C66.2819 43.1681 66.3219 42.9781 66.2819 42.7881L64.8219 41.9081L64.1119 42.0081Z M35.3497 45.8069L35.3497 46.4269L36.7297 46.2869L36.7297 45.6669L35.3497 45.8069Z M58.3091 48.0528C58.8391 48.9728 59.8191 49.5328 60.8791 49.5128L60.8791 49.2028C60.8391 48.8428 60.3391 48.4128 59.3791 47.9628L58.3091 48.0528Z M30.1784 55.1274L30.1984 55.0974C21.1684 73.0674 16.5284 82.6174 16.1684 83.8574L16.5684 83.8574C23.4684 81.7674 30.0484 78.7474 36.1284 74.8774C39.8284 72.9474 43.3884 70.7674 46.7784 68.3274L55.6284 61.2974C57.5284 60.4474 59.2984 57.7974 60.8884 53.1974L60.7484 51.8674C58.0284 49.6774 54.4984 48.7674 51.0584 49.3874L48.9784 49.5574C42.9684 52.2074 36.6584 54.0774 30.1784 55.1274Z M38.3141 51.5128L38.3141 51.8228L39.7241 51.6828L39.7241 51.3728L38.3141 51.5128Z M71.5406 49.9184C71.4906 49.6084 71.1406 49.2984 70.3506 49.0284L70.7506 53.6284C71.1006 53.6284 71.4106 53.2684 71.7206 52.5684L71.4906 49.9584L71.5406 49.9184Z M17.6915 72.8031C17.7115 72.7831 17.7315 72.7631 17.7515 72.7531L17.7015 72.7531C17.6915 72.7731 17.6915 72.7831 17.6915 72.8031Z M16.2815 75.8931L16.2815 76.2031C16.7315 76.1631 17.2415 75.0231 17.6915 72.8031C16.7615 73.5431 16.2315 74.6931 16.2815 75.8931Z M24.5436 86.7275C24.3736 86.7675 24.1936 86.7275 24.0536 86.6175C23.9236 86.5075 23.8436 86.3375 23.8436 86.1575C24.0636 85.2275 25.0836 84.6575 26.8536 84.5275L26.8536 84.2175L25.7836 84.2975C23.6636 85.0175 21.6336 85.9575 19.7236 87.1275L21.8036 86.9575L21.8036 87.6275C19.9236 88.0175 18.0836 88.6175 16.3236 89.3975C15.4336 89.0075 14.4636 88.8575 13.4936 88.9475C12.4536 89.4975 11.8436 90.6075 11.9436 91.7775C12.5036 92.0775 13.1236 92.2475 13.7536 92.2675C17.3736 90.4175 21.1036 88.7775 24.9036 87.3475C24.8536 86.8175 27.9936 85.4475 34.3736 83.2375C37.5936 80.8975 41.0636 78.9275 44.7236 77.3575C46.7236 75.8875 47.6936 75.0475 47.6936 74.7875L47.6936 74.1675C41.0536 78.5875 33.9636 82.2975 26.5436 85.2275L26.4836 85.2275C25.9136 85.8175 25.2636 86.3275 24.5436 86.7275Z M15.1874 77.43C15.0674 77.57 15.0174 77.76 15.0474 77.95L15.0474 78.26C15.2374 78.26 15.4174 78.18 15.5374 78.03C15.6574 77.88 15.7074 77.69 15.6674 77.5L15.6674 77.19C15.4774 77.2 15.3074 77.29 15.1874 77.43Z M32.2053 81.7028C32.2053 81.7128 32.2053 81.7228 32.2153 81.7328L32.2153 81.7028C32.2053 81.7028 32.2053 81.7028 32.2053 81.7028Z M31.4553 81.1228C30.3053 82.3028 28.7553 83.0128 27.1153 83.1228L27.1153 83.7828L27.4753 83.7828C28.9253 82.8328 30.5253 82.1328 32.2053 81.7028C32.1453 81.3228 31.8953 81.1128 31.4553 81.1228Z M14.3956 87.1822L15.0656 87.1822C15.3756 86.9822 15.7156 86.8422 16.0856 86.7822L16.0856 86.4222L15.0156 86.5122C14.5956 86.6422 14.4256 86.8822 14.3956 87.1822Z M7.98094 90.4825C7.26094 91.1425 6.62094 91.8625 6.04094 92.6525C6.00094 91.9425 5.78094 91.5425 5.29094 91.6825C4.79094 91.8225 4.62094 92.0425 4.62094 92.4425L4.71094 93.4025C5.46094 93.3725 6.20094 93.5225 6.88094 93.8525C7.89094 93.7625 8.48094 92.7525 8.74094 90.7525L7.98094 90.4425L7.98094 90.4825Z M186.248 7.57C186.598 7.52 186.928 7.4 187.218 7.21L188.808 7.34L188.588 8.84C187.288 9.31 186.318 10.4 186.018 11.75C183.808 12.73 182.698 13.43 182.698 13.87L182.698 14.13L183.058 14.13L183.678 13.82L184.378 14.67L184.468 15.82C184.518 16.17 180.768 24.08 173.228 39.53C166.728 54.39 163.308 62.55 162.958 64.01C160.758 64.63 159.428 65.56 159.088 66.75C159.088 67.14 159.798 67.37 161.088 67.5L161.088 68.07L160.508 69.04L160.598 70.2C160.598 70.82 162.288 71.26 165.438 71.61C165.438 71.39 165.528 71.3 165.748 71.25C165.718 72.69 165.508 74.11 165.138 75.49L165.488 75.49C166.478 74.45 167.148 73.15 167.428 71.74L167.688 71.74C167.998 71.74 168.358 72.09 168.758 72.89C167.008 75.93 165.598 79.15 164.548 82.49L164.908 83.06L165.268 83.06C166.738 78.75 168.608 74.59 170.838 70.63C174.718 70.27 181.418 69.61 190.968 68.6L191.538 68.24C191.538 68.46 191.678 68.55 191.898 68.5L192.518 68.5L193.088 68.14C193.088 68.36 193.228 68.45 193.448 68.4L200.658 67.78C202.598 67.61 203.488 67.03 203.398 66.06C203.398 65.8 204.498 65.49 206.808 65.18C207.138 65.19 207.468 65.25 207.778 65.35C207.778 65.18 208.878 64.99 211.188 64.78C211.188 63.59 211.628 62.92 212.338 62.84L212.338 62.27C211.588 62.35 210.848 62.51 210.128 62.76C209.148 62.76 208.178 62.64 207.228 62.4C206.938 62.59 206.598 62.71 206.258 62.76L201.208 62.93L200.588 63.24C200.588 63.07 200.458 62.98 200.228 63.02L199.968 63.02L199.298 63.33C199.298 63.15 198.768 63.02 197.708 62.88L197.088 63.24L195.848 63.33L195.848 63.02C202.318 62.31 205.538 61.43 205.448 60.36C205.848 60.36 206.068 60.54 206.118 60.93L208.058 60.45L208.058 59.88L192.558 60.32C192.558 60.55 192.468 60.63 192.248 60.68L190.308 60.51C189.878 60.53 189.458 60.68 189.118 60.95L188.408 60.69C186.928 60.78 185.468 61.02 184.038 61.4C182.558 61.29 181.078 61.29 179.608 61.4L176.108 61.71L174.518 61.53C175.998 56.3 178.018 51.23 180.538 46.4C181.148 44.27 182.298 42.32 183.858 40.74C184.198 40.75 184.518 40.82 184.828 40.96L187.308 40.12L188.588 40.34C191.128 40.05 193.628 39.45 196.018 38.53C196.548 38.47 197.088 38.51 197.608 38.66L199.538 38.22L205.158 37.73C207.788 37.46 210.388 36.93 212.908 36.14L212.908 35.57C211.848 35.66 211.318 35.49 211.278 35.09C211.188 34.29 210.428 33.98 208.978 34.12L208.978 33.55L210.528 33.1L214.598 32.74L214.598 32.17L212.078 32.17L212.078 31.55L213.668 31.42C214.068 31.42 214.288 31.15 214.238 30.8C212.118 30.8 211.048 30.8 211.048 30.49C203.698 31.21 196.308 31.34 188.938 30.88C188.578 30.92 188.248 31.06 187.968 31.28L187.448 30.5C189.108 26.01 191.418 21.79 194.308 17.98C194.288 18.53 194.118 19.06 193.828 19.53L193.828 19.79L194.448 19.79C195.998 16.07 197.278 14.17 198.378 14.09C202.978 13.69 197.708 13.38 207.618 11.83C207.888 11.98 208.198 12.06 208.508 12.05C212.378 11.26 217.798 10.46 224.738 9.62L224.738 9.05L221.018 9.41L221.018 8.84C221.428 8.81 221.808 8.65 222.128 8.39L222.128 8.7C222.438 8.66 222.738 8.52 222.968 8.3C223.458 8.23 223.968 8.29 224.428 8.48C225.448 8.19 226.478 7.98 227.528 7.86L229.828 7.63C230.398 7.28 230.668 6.97 230.618 6.67L230.618 6.4C229.938 6.44 229.258 6.39 228.588 6.27C228.588 5.96 228.718 5.74 229.118 5.65L233.408 5.25L235.408 4.77C235.408 4.99 235.538 5.08 235.668 5.08C235.978 5.03 236.278 4.89 236.508 4.68C237.098 4.79 237.688 4.83 238.288 4.81C239.078 4.05 240.008 3.45 241.028 3.04C240.678 2.76 240.438 2.37 240.318 1.94L237.408 2.2C237.358 1.89 237.258 1.59 237.098 1.32C237.098 1.06 237.718 0.78 239.038 0.52L239.608 0.75L240.148 0.44C240.138 0.51 240.168 0.59 240.238 0.63C240.298 0.68 240.378 0.69 240.458 0.66L240.988 0.35C240.978 0.43 241.018 0.5 241.078 0.55C241.138 0.59 241.228 0.6 241.298 0.57L241.558 0.57L241.558 0L238.418 0L237.888 0.36L237.888 0.05C224.388 1.15 216.738 1.77 214.928 1.99L212.098 1.99C212.098 2.21 211.928 2.34 211.528 2.34L210.958 2.08L208.958 2.57C208.178 2.59 207.398 2.57 206.618 2.48C206.308 2.71 205.948 2.86 205.578 2.92C206.058 2.88 208.698 2.73 211.178 2.56C211.198 2.55 211.208 2.54 211.228 2.53C211.278 2.53 211.318 2.54 211.368 2.55C213.238 2.42 214.988 2.29 215.618 2.2L215.868 2.13C215.908 2.15 215.808 2.17 215.618 2.2L214.138 2.62L213.878 2.62C213.048 2.67 212.208 2.64 211.368 2.55C211.308 2.55 211.238 2.55 211.178 2.56C210.768 2.82 210.298 2.96 209.808 2.97C209.418 3.02 209.008 2.94 208.658 2.75C208.178 2.89 206.718 3.24 204.368 3.72L204.238 3.51L203.668 3.28L194.248 4.75C193.848 4.56 193.408 4.48 192.968 4.52C192.118 4.64 191.268 4.82 190.448 5.06L185.898 6.99L186.248 7.57Z M205.578 2.92C205.508 2.92 205.478 2.93 205.508 2.93C205.528 2.92 205.558 2.92 205.578 2.92Z M211.368 2.55C211.318 2.54 211.278 2.53 211.228 2.53C211.208 2.54 211.198 2.55 211.178 2.56C211.238 2.55 211.308 2.55 211.368 2.55Z M213.878 2.62L214.138 2.62L215.618 2.2C214.988 2.29 213.238 2.42 211.368 2.55C212.208 2.64 213.048 2.67 213.878 2.62Z M215.868 2.13L215.618 2.2C215.808 2.17 215.908 2.15 215.868 2.13Z M204.944 5.28125L205.034 5.23125C203.844 5.62125 202.614 5.84125 201.364 5.90125L201.364 6.16125L202.814 6.32125C203.174 6.27125 203.514 6.12125 203.794 5.89125C204.144 6.08125 204.554 6.16125 204.944 6.11125L205.524 6.11125L205.524 5.54125C205.174 5.59125 204.944 5.50125 204.944 5.28125Z M202.814 6.32125C202.774 6.33125 202.734 6.33125 202.694 6.33125L202.954 6.33125L202.814 6.32125Z M206.426 5.15406C206.266 5.15406 206.096 5.21406 205.986 5.34406C205.876 5.46406 205.816 5.63406 205.836 5.80406L206.726 5.71406L206.726 5.14406L206.416 5.14406L206.426 5.15406Z M209.773 4.74687L207.253 5.00688L206.993 5.62687L207.303 5.62687C208.123 5.35687 208.963 5.17687 209.823 5.09687L209.823 4.78687L209.773 4.74687Z M185.662 7.60313L185.662 7.03312L184.692 7.12313L184.692 7.69312L185.662 7.60313Z M191.656 7.0525C191.256 7.1925 191.036 7.3625 191.126 7.7325L191.126 8.0425L192.096 7.9525C192.256 7.9725 192.426 7.9125 192.546 7.7925C192.656 7.6725 192.706 7.5025 192.666 7.3325L191.996 7.0725L191.636 7.0725L191.656 7.0525Z M211.924 8.52063L211.924 8.79062L213.924 8.61063L213.924 8.35063L211.924 8.52063Z M207.061 9.28344L207.061 9.59344L208.211 9.50344L208.211 9.19344L207.061 9.28344Z M209.798 10.5206L209.798 10.5206L209.768 10.5206C209.778 10.5206 209.788 10.5206 209.798 10.5206Z M208.698 10.6606L208.698 11.2306L210.388 11.0506C210.338 10.6706 210.168 10.5306 209.798 10.5206L208.698 10.6606Z M212.906 10.3022L212.496 10.0422L206.266 10.3322L206.266 10.6422L216.626 10.1622L216.626 9.85219L214.046 9.98219L212.906 10.3022Z M204.629 11.3106L204.629 11.6206L206.889 11.4006L206.889 11.1406L204.629 11.3106Z M192.064 23.1722L192.734 23.1722C192.734 22.8322 192.814 22.5022 192.954 22.2022L192.954 21.6322C192.594 21.6322 192.284 22.0822 192.074 22.8722L192.064 22.8622L192.064 23.1722Z M169.273 55.9356C168.823 56.0756 168.613 56.2456 168.663 56.6256L168.663 56.8856C169.103 56.8356 169.283 56.6156 169.283 56.2156L169.283 55.9556L169.273 55.9356Z M168.086 57.285C167.416 58.645 166.916 60.085 166.586 61.575L167.556 61.485C168.136 60.115 168.526 58.675 168.706 57.195L168.086 57.285Z M179.425 66.3884L175.305 66.7484L175.305 67.3184L175.925 67.3184L177.865 67.4584C178.875 67.1084 179.365 66.7484 179.365 66.4384L179.425 66.3884Z M179.713 66.7513L179.713 67.0113L181.303 66.8713L181.303 66.6113L179.713 66.7513Z " /></g></g></svg>