<svg xmlns="http://www.w3.org/2000/svg" xmlns:xlink="http://www.w3.org/1999/xlink" width="234" height="234" viewBox="0 0 234 234" fill="none"><defs><rect id="path_0" x="0" y="0" width="234" height="234" /></defs><g opacity="1" transform="translate(0 0)  rotate(0 117 117)"><mask id="bg-mask-0" fill="white"><use xlink:href="#path_0"></use></mask><g mask="url(#bg-mask-0)" ><path id="分组 1" fill-rule="evenodd" style="fill:#2979E3" transform="translate(0 0)  rotate(0 117 117)" opacity="1" d="M0 117C0 181.82 52.18 234 117 234C181.82 234 234 181.82 234 117C234 52.18 181.82 0 117 0C52.18 0 0 52.18 0 117Z M145.964 44.9559C146.714 43.5759 145.564 42.2059 144.304 42.2459L144.314 42.2459C143.844 42.2659 143.414 42.4559 143.094 42.7959L63.3344 121.996C62.8144 122.516 62.6544 123.296 62.9344 123.976C63.2144 124.666 63.8744 125.106 64.6144 125.116L118.894 125.116C119.574 125.116 120.194 125.496 120.504 126.106C120.814 126.716 120.764 127.446 120.364 127.996L77.8144 186.706C76.5244 188.486 78.9144 190.606 80.5244 189.106L170.424 105.206C171.624 104.076 170.834 102.056 169.174 102.056L117.884 102.056C117.244 102.056 116.654 101.716 116.324 101.166C115.994 100.606 115.984 99.9259 116.284 99.3659L145.964 44.9559Z " /></g></g></svg>