<svg xmlns="http://www.w3.org/2000/svg" xmlns:xlink="http://www.w3.org/1999/xlink" width="215" height="215" viewBox="0 0 215 215" fill="none"><defs><rect id="path_0" x="0" y="0" width="215" height="215" /></defs><g opacity="1" transform="translate(0 0)  rotate(0 107.5 107.5)"><mask id="bg-mask-0" fill="white"><use xlink:href="#path_0"></use></mask><g mask="url(#bg-mask-0)" ><path id="路径 1" fill-rule="evenodd" style="fill:#2979E3" transform="translate(143.33333333333331 100.33333333333334)  rotate(0 7.166666666666666 7.166666666666666)" opacity="1" d="M14.33,14.33L14.33,0L0,0L0,14.33L14.33,14.33Z " /><path id="分组 1" fill-rule="evenodd" style="fill:#2979E3" transform="translate(14.333333333333332 6.019999999999999)  rotate(0 93.16666666666669 101.48)" opacity="1" d="M93.17 0L0 54.37L0 148.59L93.17 202.96L186.33 148.59L186.33 54.37L93.17 0.01L93.17 0Z M58.8467 70.6633C68.6967 64.5733 80.9967 64.0133 91.3567 69.1833L97.1267 72.0633L103.547 59.2533L97.7667 56.3733C91.1367 53.0533 83.8267 51.3233 76.4167 51.3133C50.0567 51.3233 28.6667 72.7133 28.6667 99.0733L28.6667 103.883C28.6667 120.433 37.2367 135.803 51.3167 144.503C65.3867 153.203 82.9667 153.993 97.7667 146.603L103.547 143.733L97.1267 130.903L91.3567 133.773C81.0067 138.953 68.7067 138.403 58.8567 132.323C49.0067 126.233 43.0067 115.483 42.9967 103.903L42.9967 99.0833C42.9967 87.5033 48.9967 76.7533 58.8467 70.6633Z M76.4067 51.3133C76.4067 51.3133 76.4167 51.3133 76.4167 51.3133C76.4167 51.3133 76.4167 51.3133 76.4267 51.3133L76.4067 51.3133Z M157.663 65.6467L143.333 65.6467L143.333 79.9767L129.003 79.9767L129.003 65.6467L114.663 65.6467L114.663 79.9767L100.333 79.9767L100.333 94.3167L114.663 94.3167L114.663 108.647L100.333 108.647L100.333 122.977L114.663 122.977L114.663 137.317L129.003 137.317L129.003 122.977L143.333 122.977L143.333 137.317L157.663 137.317L157.663 122.977L172.003 122.977L172.003 108.647L157.663 108.647L157.663 94.3167L172.003 94.3167L172.003 79.9767L157.663 79.9767L157.663 65.6467Z " /></g></g></svg>