<svg xmlns="http://www.w3.org/2000/svg" xmlns:xlink="http://www.w3.org/1999/xlink" width="115" height="115" viewBox="0 0 115 115" fill="none"><defs><rect id="path_0" x="0" y="0" width="115" height="115" /></defs><g opacity="1" transform="translate(0 0)  rotate(0 57.5 57.5)"><mask id="bg-mask-0" fill="white"><use xlink:href="#path_0"></use></mask><g mask="url(#bg-mask-0)" ><path id="路径 1" fill-rule="evenodd" style="fill:#1572B6" transform="translate(13.138750000000002 7.1875)  rotate(0 44.36125 50.3125)" opacity="1" d="M44.31,100.63L80.64,90.55L88.72,0L0,0L8.07,90.57L44.31,100.63Z " /><path id="路径 2" fill-rule="evenodd" style="fill:#33A9DC" transform="translate(57.49999999999999 14.59421875)  rotate(0 18.134062500000006 42.760234375)" opacity="1" d="M29.36,77.38L36.27,0L0,0L0,85.52L29.36,77.38Z " /><path id="路径 3" fill-rule="evenodd" style="fill:#FFFFFF" transform="translate(57.5 24.922656249999996)  rotate(0 13.92578125 16.795390625000003)" opacity="1" d="M27.85,0L0,0L0,11.11L15.71,11.11L14.7,22.48L0,22.48L0,33.59L24.86,33.59L27.59,2.98L27.85,0Z " /><path id="路径 4" fill-rule="evenodd" style="fill:#EBEBEB" transform="translate(33.20625 64.06578125000001)  rotate(0 12.181015625000002 11.879140624999996)" opacity="1" d="M24.31,12.2L11.94,8.86L11.15,0L0,0L1.56,17.44L24.31,23.76L24.36,23.74L24.36,12.19L24.31,12.2Z " /><path id="路径 5" fill-rule="evenodd" style="fill:#FFFFFF" transform="translate(57.52875000000001 58.04265625000001)  rotate(0 12.434374999999998 14.887109375)" opacity="1" d="M12.39,14.87L0,18.22L0,29.77L22.77,23.46L22.94,21.59L24.87,0L13.72,0L12.39,14.87Z " /><g opacity="1" transform="translate(29.713125000000005 24.922656249999996)  rotate(0 13.913203124999997 16.795390625000003)"><path id="路径 6" fill-rule="evenodd" style="fill:#EBEBEB" transform="translate(0 0)  rotate(0 13.913203124999997 5.554140625)" opacity="1" d="M0,0L0.27,2.98L0.77,8.61L1,11.11L27.83,11.11L27.83,0L0,0Z " /><path id="路径 7" fill-rule="evenodd" style="fill:#EBEBEB" transform="translate(14.579843749999995 22.482499999999995)  rotate(0 6.603515625000001 5.554140625000002)" opacity="1" d="M0,0L0.27,2.98L0.77,8.61L0.99,11.11L13.21,11.11L13.21,0L0,0Z " /></g></g></g></svg>