<svg xmlns="http://www.w3.org/2000/svg" xmlns:xlink="http://www.w3.org/1999/xlink" width="174" height="174" viewBox="0 0 174 174" fill="none"><defs><rect id="path_0" x="0" y="0" width="174" height="174" /></defs><g opacity="1" transform="translate(0 0)  rotate(0 87 87)"><mask id="bg-mask-0" fill="white"><use xlink:href="#path_0"></use></mask><g mask="url(#bg-mask-0)" ><path id="分组 1" fill-rule="evenodd" style="fill:#D43030" transform="translate(0.0016838419748766273 9.389804897480284)  rotate(0 86.99893092707718 77.60802837586239)" opacity="1" d="M79.34 37.64C77.57 31.77 68.13 29.92 62.91 27.56C57.88 27.22 56.04 22.71 50.68 22.34C50.93 16.04 40.83 19.52 37.15 15.03C40.77 5.69 25.18 15.26 26.39 7.18C31.46 -3.34 10.87 -1.56 19.45 7.71C27.69 12.36 11.31 15.79 16.09 18.91C17.62 22.18 15.98 25.83 11.53 26.43C5 26.98 5.62 35.89 11.98 31.22C19.08 28.97 13.19 32.12 9.86 32.75C2.35 34.94 -2.76 42.44 1.61 49.28C5.77 58.72 6.89 69.26 10.12 79.08C15.47 94.18 23.3 108.55 33.46 120.97C38.29 128 45.37 133 52 138.22L52 138.22C58.53 142.45 65.78 146.68 73.2 148.83C86.39 153.66 100.55 154.13 114.41 155.21C122.88 155.26 131.33 154.55 139.67 153.11C147.17 153.92 152.57 147.51 159.35 150.89C163.46 147.25 169.45 148.85 173.56 146.21C176.59 135.87 163.12 144.16 158.86 139.1C154.23 144.56 150.33 138.51 144.7 140.21C135.12 140.69 145.43 135.91 145.19 131.54C140.13 127.64 134.38 136.88 131.14 139.37C123.12 137.92 115.19 135.62 107.84 132.16C99.46 127.79 91.24 122.61 85.17 115.24C78.83 107.72 71.8 100.12 68.9 90.46C62.78 74.52 63.18 57.27 61.62 40.53C62.2 29.19 74.17 41.74 79.34 37.64Z M106.933 150.869C100.083 152.339 92.7429 150.499 85.7829 149.589C77.8629 146.069 69.3229 143.639 61.9229 139.059C52.6629 135.679 66.7029 143.399 69.2029 144.029C74.9929 147.309 62.8529 142.339 61.1329 140.979C56.2829 138.259 55.6629 138.819 60.6529 141.589C61.6629 142.169 62.6529 142.789 63.6929 143.289L63.7029 143.299C70.9529 146.429 78.0429 149.729 85.9929 150.729C98.6029 152.469 111.633 155.189 124.293 152.719C118.563 150.129 112.633 153.739 106.933 150.869Z M19.4957 93.4653C18.6757 90.4453 12.9357 81.7753 16.4657 89.8453C19.4657 97.6153 24.7457 104.265 29.1457 110.915C32.5557 117.245 36.5957 123.865 42.8157 127.805C44.9157 129.825 46.9357 132.905 49.8957 133.535C56.9357 136.135 49.8757 128.595 46.6357 129.025C45.2157 126.555 41.1957 124.985 44.0257 123.665C38.9257 125.435 38.6857 116.915 36.2657 118.135C30.8757 116.425 34.1657 110.375 27.7457 106.675C27.1557 102.765 21.3457 99.3653 19.4957 93.4653Z M88.9506 147.349C87.5006 147.649 72.7806 143.189 80.8606 146.599L80.8606 146.599C83.7406 148.419 97.6806 150.589 88.9506 147.349Z M54.2169 119.218C50.3769 117.168 41.6968 115.768 47.6068 120.448L49.0468 120.758C52.4268 123.358 62.6768 121.098 54.2169 119.218Z M63.3643 128.566L64.4543 129.066L65.3943 129.426L65.4043 129.426C73.6643 131.766 58.4543 124.206 63.3643 128.566Z M21.7051 72.6977C20.9751 72.9077 29.5251 76.6677 24.1651 78.5277C28.8851 79.2477 29.0151 83.3777 29.9651 85.9877C32.7951 88.9377 32.2151 82.7277 35.6151 86.2777C33.4751 83.1177 24.2551 77.3777 31.6751 79.2177C31.6351 76.0277 30.3351 73.4677 32.6051 73.5377C34.8551 69.4577 30.2551 83.5877 35.3251 78.4077C36.7251 77.7877 37.0651 74.3277 39.6051 78.7377C43.2651 82.3477 40.9251 84.9577 35.7551 81.6577C36.6751 84.7977 42.6751 85.9077 41.5451 90.8277C42.7451 95.1377 44.4151 93.5577 45.8651 93.3077C47.0151 97.4977 47.6551 94.4177 47.7151 92.4177C52.9351 93.5377 51.7151 96.6177 53.3551 98.7977C56.9651 100.418 48.1951 87.7577 54.3851 94.9777C60.3651 100.378 57.4251 102.898 52.3651 102.538C55.0651 103.418 56.5051 107.358 60.4951 107.188C64.7151 109.198 67.5651 116.908 60.3051 113.698C57.7851 111.428 48.8451 108.618 56.1451 112.938C62.8851 116.058 68.2251 117.928 74.7151 121.838C79.3551 125.158 81.3751 128.958 83.1251 129.708C79.2251 131.568 71.3551 128.218 77.2051 127.188C73.5551 126.528 69.4651 124.688 72.9451 129.218C75.9251 131.698 83.4651 131.438 84.8151 131.718C83.6651 134.238 81.6951 134.448 84.8551 134.638C81.3351 136.528 85.9951 136.818 86.3151 137.888L86.3151 137.878C91.9251 134.528 90.0751 145.728 95.8251 138.818C101.495 134.688 90.9251 143.948 97.9251 139.568C102.965 136.188 110.435 141.168 115.145 142.798C118.545 142.628 121.845 145.728 125.325 143.848C132.015 142.038 112.225 141.168 117.415 137.978C111.295 139.748 106.765 135.838 103.755 131.918C96.8751 130.328 88.9351 126.828 85.5051 120.738C84.1151 118.458 87.5351 121.058 84.3051 117.338C80.1651 113.648 78.0951 109.468 75.3151 104.998C71.9951 103.228 71.6151 98.0077 71.2751 104.818C71.3051 100.518 67.2651 97.6277 66.2851 98.8277C66.2751 94.6877 70.5951 96.7677 67.5651 93.7077C66.9051 89.4177 64.7651 84.9277 64.1151 80.0977C63.1151 77.7577 63.9751 72.7677 60.6851 78.0477C59.4951 83.6377 60.2851 71.1877 62.1551 75.2977C64.5051 71.2477 61.5151 71.5677 61.1651 72.1177C61.1551 72.1377 61.1451 72.1577 61.1351 72.1777C61.1451 72.1577 61.1551 72.1377 61.1651 72.1177C62.7251 68.5877 62.1451 63.6377 60.7251 65.5377C61.5751 61.7877 62.0651 51.7477 59.4551 53.5377C61.0351 49.6177 62.4551 35.6077 55.5851 40.9477C52.7951 40.9877 47.9851 41.9577 45.7051 43.0977C52.8551 47.0277 44.9751 44.5177 42.0751 43.8877C41.7051 47.5277 38.8151 45.9577 35.2151 45.9977C40.9651 46.7077 32.4251 51.8677 29.1251 49.8677C24.8451 51.9077 32.8151 57.0177 29.2051 58.5977C29.6451 60.9777 22.6451 57.7277 23.1951 63.2377C19.0351 61.4977 22.6251 69.7677 24.7051 66.9677C31.7751 68.8777 29.6751 73.2477 29.8551 77.3877C28.7051 79.7977 24.1651 71.7077 28.8351 72.0877C25.1651 66.0877 24.7751 69.9077 21.7051 72.6977Z M61.1351 72.1777C61.1451 72.1577 61.1551 72.1377 61.1651 72.1177C61.1551 72.1377 61.1451 72.1577 61.1351 72.1777Z M50.9851 102.378C51.4551 102.458 51.9251 102.508 52.3651 102.538C51.9451 102.398 51.4851 102.338 50.9851 102.378Z M78.725 114.729C76.405 111.069 76.965 115.269 79.115 117.519C82.535 121.599 79.915 115.209 78.725 114.729Z M46.6211 81.1964C44.8711 77.2764 47.4511 79.3964 47.0911 77.7364C46.2711 76.0564 38.4211 67.1164 42.0011 73.8664C45.2411 81.9064 39.9611 72.8464 39.4111 70.1064C38.8011 71.7864 40.6811 77.2964 41.8311 79.1864C44.7411 83.6664 43.4311 76.7264 46.6211 81.1964Z M30.5195 65.7259C25.9795 61.8959 31.9395 67.6159 30.0895 67.5359C25.2895 64.0359 27.2495 66.5259 29.9595 69.2059C32.8895 73.5759 35.3095 66.5959 30.5195 65.7259Z M54.1384 78.1864C55.1884 81.2164 56.2984 79.9764 56.6784 76.5564C54.2184 76.5964 57.7084 71.1764 54.3984 72.2464C53.2384 63.8064 50.7184 76.1464 54.1284 78.1864L54.1384 78.1864Z M36.376 64.5522C47.826 69.8422 28.076 55.8022 33.126 62.7822C33.736 64.1222 35.176 64.2422 36.376 64.5522Z M37.6693 61.8174C46.3593 65.3974 36.9093 59.4774 33.8993 60.1174C34.6493 61.2374 36.7093 60.7374 37.6693 61.8174Z M38.8401 58.5686C41.6601 58.0086 38.4701 57.0986 36.7801 55.7586C32.8801 49.9086 37.3601 56.2286 36.1401 58.0286C37.7501 59.6186 43.2601 62.4686 38.8401 58.5686Z M55.7214 54.8134C58.3114 58.9234 60.8914 44.6934 58.7714 49.4834C57.6214 55.5634 56.4514 53.0234 58.0914 48.4934C57.7014 42.6734 54.1614 52.0434 55.7314 54.8034L55.7214 54.8134Z M62.602 120.631C60.432 118.601 53.572 116.461 59.702 120.381C60.112 121.411 61.402 121.391 62.192 121.871L62.202 121.861C66.662 123.021 66.642 121.171 62.602 120.631Z M47.9816 107.042C43.2016 104.112 44.2116 104.382 47.5616 104.462C41.8116 101.902 48.3916 102.082 48.0716 100.762C45.8616 100.332 37.0516 96.8518 42.2416 101.052C36.9816 98.3718 40.9916 102.062 39.4016 101.662C34.0116 100.202 44.1916 105.762 38.5516 104.382C41.6316 106.832 46.8516 110.652 39.8516 106.972C38.9216 108.302 44.8516 110.312 46.3216 111.322C48.7816 113.162 55.6016 116.532 49.8316 112.022C51.7816 109.752 46.1016 108.552 47.9816 107.042Z M106.138 143.551C106.178 140.541 106.018 138.761 101.748 142.421C100.568 143.071 100.048 145.851 102.228 144.111C104.578 141.821 102.318 147.751 106.138 143.551Z M66.7758 119.592C65.4558 117.632 58.4258 118.112 63.5858 119.302C66.2058 121.622 75.6258 121.012 66.7758 119.592Z M14.2814 77.9205C13.5814 74.5105 7.97141 66.8105 11.3814 74.9805C14.5014 79.7605 15.4214 87.1505 20.3314 90.2505C16.5214 84.8105 17.9614 82.3605 14.2814 77.9205Z M41.4796 93.2658C38.0896 92.2658 40.1296 83.9658 36.6596 85.4358C38.9796 89.3158 38.5796 90.9758 33.6896 88.5258C27.5596 85.5358 30.2496 90.0058 31.4396 91.2358C29.8196 91.6158 33.6096 92.6658 33.1296 92.6858C36.8796 93.5358 48.1096 101.926 41.4796 93.2658Z M12.8146 72.9452C13.8746 74.8252 13.7546 78.4052 16.0546 79.2052C16.7146 76.4252 9.86462 63.9252 12.8146 72.9452Z M146.855 142.971C142.355 142.861 131.265 139.791 130.745 143.691L131.735 143.861L133.325 143.951C137.035 143.201 145.495 145.841 146.855 142.971Z M19.7117 39.8841C15.6217 41.3141 24.5817 42.2641 19.1817 43.7641C15.8517 43.1241 12.3717 41.9741 13.7917 38.4641C6.29172 39.4341 -0.308279 42.5541 5.62172 50.1841L6.06172 50.1841L6.06172 50.1941C5.39172 46.3141 5.48172 39.5041 11.9517 41.8141C3.32172 43.5241 17.9317 52.5441 16.0817 45.4241C19.7117 45.5941 23.1917 43.2741 21.2817 46.7941C28.4317 46.0041 33.3817 39.8041 40.3017 40.6741C45.6817 39.9641 51.5717 39.4241 57.3717 37.2541C62.1417 36.9041 66.7217 31.7741 64.1117 28.7341C57.6117 28.1841 50.8017 28.9941 43.6117 30.4241C35.6517 32.0841 28.4217 35.2241 20.3817 36.5841C12.5517 37.6341 21.9517 39.4841 19.7117 39.8841Z M24.1481 40.9724C24.1481 40.9724 24.1481 40.9724 24.1481 40.9724L24.1481 40.9824C24.1481 40.9824 24.1481 40.9724 24.1481 40.9724Z M27.0381 41.8424C33.5681 46.3124 25.9181 34.5224 24.1481 40.9724C24.9681 40.7824 26.2481 41.2624 27.0381 41.8424Z M39.2841 35.0554C48.4441 33.3154 35.9341 32.1454 33.2541 35.3654C34.9541 36.1354 36.8341 33.2054 39.2841 35.0554Z M54.9866 31.9274C60.7766 31.0474 55.8966 28.3874 54.2066 32.8174C54.8166 34.2174 55.1166 32.3974 54.9866 31.9274Z M166.536 142.759C165.156 142.979 158.496 142.929 163.086 144.009L163.096 144.009C167.136 144.009 175.336 142.759 166.536 142.759Z M23.2166 52.1555C14.3066 51.2355 31.0766 55.1955 22.0766 54.0655C20.8666 54.8655 23.7866 55.7855 23.8466 55.5655L23.8466 55.5655C27.1166 55.3455 28.9666 51.9555 23.2166 52.1555Z M19.2768 29.727C19.2768 29.727 19.2768 29.727 19.2668 29.727C19.2668 29.727 19.2668 29.727 19.2668 29.727L19.2768 29.727Z M35.0568 29.557C33.4368 26.677 35.0268 24.577 37.3768 28.947C40.6568 33.337 42.5068 28.267 41.2468 25.827C41.0168 25.567 40.7768 25.287 40.5468 24.997C40.8468 25.197 41.0768 25.487 41.2468 25.827C43.8068 28.677 46.1468 29.667 42.4068 25.217C46.8368 19.897 33.5468 25.917 30.5168 25.857C29.0668 26.507 15.5168 29.307 19.2668 29.727C24.6268 27.907 31.7768 25.887 35.0568 29.557Z M35.8468 30.707C35.6168 30.277 35.3568 29.897 35.0568 29.557C35.2668 29.937 35.5268 30.327 35.8468 30.707Z M40.5468 24.997C40.7768 25.287 41.0168 25.567 41.2468 25.827C41.0768 25.487 40.8468 25.197 40.5468 24.997Z M28.9511 20.683C28.4511 20.233 17.4611 23.713 22.6911 23.183C26.0211 20.673 34.2011 24.673 28.9511 20.683Z M37.7959 20.8532C37.0359 18.3732 32.3859 17.9032 30.1059 16.9132C28.8359 19.1932 32.7159 23.7132 34.8159 23.6832L34.8259 23.6832C38.7259 23.7832 33.1559 18.4532 37.7959 20.8532Z M24.3457 1.52558C20.5557 -1.48442 16.9257 4.92558 20.5257 6.60558C16.0957 0.835582 28.8357 7.57558 24.3457 1.52558Z M75.8827 35.8981C76.5327 36.1081 76.3927 37.4181 77.2427 37.1581C79.2727 33.5681 68.8727 32.3181 75.8827 35.8981Z M29.6508 111.298C30.9308 113.598 29.8908 110.238 29.6508 111.298 M58.3174 136.655C56.0674 135.785 59.8774 135.955 58.3174 136.655 M62.1329 138.046C60.3929 139.116 61.7429 136.126 62.1329 138.046 M66.9132 140.036C63.4032 138.676 69.1732 137.866 66.9132 140.036 M75.0848 144.611C70.6648 143.831 76.4748 142.561 75.0848 144.611 M59.3786 133.637C54.8086 133.607 62.9086 131.357 59.3786 133.637 M62.957 135.419C61.677 135.969 62.857 134.219 62.957 135.419 M52.4366 124.462C47.9666 123.122 52.1466 123.252 52.4366 124.462 M60.7782 129.317C56.2682 128.157 62.9482 127.797 60.7782 129.317 M67.7781 133.613C62.7281 132.433 70.8981 132.443 67.7781 133.613 M72.533 135.104C66.623 133.724 73.933 132.714 72.533 135.104 M79.7018 137.693C72.6318 136.623 87.5318 137.763 79.7018 137.693 M46.0369 116.235C44.1069 116.365 45.7269 114.785 46.0369 116.235 M92.9397 145.124C90.3797 147.084 93.1497 142.494 92.9397 145.124 M59.3725 124.418C56.9425 124.358 58.9125 123.028 59.3725 124.418 M46.7784 115.322C40.6284 113.342 51.2684 115.052 46.7784 115.322 M31.8391 105.664C26.9491 101.794 31.2791 103.514 31.8391 105.664 M71.0406 130.574C70.6506 130.774 70.2106 129.624 71.0406 130.574 M95.4485 145.543C94.1185 146.083 95.3685 144.113 95.4485 145.543 M68.8819 128.338C65.0519 127.778 69.3119 126.488 68.8819 128.338 M50.7076 116.799C45.3476 114.539 54.0476 116.439 50.7076 116.799 M81.458 135.917C76.388 134.897 86.668 133.847 81.458 135.917 M65.4637 125.062C71.4637 125.832 58.3237 120.982 64.1537 124.622 M102.586 132.43C102.626 133.451 103.926 132.35 102.586 132.43 M75.7129 112.019C76.4929 114.629 75.6429 108.629 75.7129 112.019 M73.3831 108.875C76.7931 110.355 70.6831 103.655 73.3831 108.875 M45.1078 89.3604C45.8878 92.0704 46.6978 88.9304 45.1078 89.3604 M67.6118 101.557C68.7618 104.627 68.5818 97.9073 67.6118 101.557 M51.7187 90.5048C54.0587 92.3848 50.5987 88.4848 51.7187 90.5048 M65.3685 94.8801C62.8085 89.1501 67.1785 91.7501 65.9285 95.8201 M34.5591 74.1688C36.2291 77.1688 34.8491 69.7988 34.5591 74.1688 M37.8216 75.2959C40.4716 79.8959 39.3916 71.9959 37.8216 75.2959 M34.0951 69.0964C34.9251 70.6364 35.6651 67.5364 34.0951 69.0964 M36.6374 69.9156C39.5374 71.7857 34.2574 65.4457 36.6374 69.9156 M31.5817 65.0833C23.7017 58.0833 41.4717 68.7533 32.8617 66.3833 M62.4643 83.1167C63.1843 85.6567 62.8143 79.3967 62.4643 83.1167 M61.0143 81.6817C61.0643 83.5517 61.4043 80.0917 61.0143 81.6817 M49.1921 71.3056C50.2621 72.2756 48.7221 65.4256 49.1921 71.3056 M61.3913 79.1227C61.4613 81.3327 62.3313 75.7727 61.3913 79.1227 M59.7093 72.9855C60.0293 66.9655 61.5093 69.3955 59.7193 73.8355 M58.4333 71.1034C59.1833 75.1134 59.2833 64.2634 58.4333 71.1034 M33.5803 51.702C34.0703 52.952 34.5203 51.312 33.5803 51.702 M39.3948 55.1693C42.1448 58.6693 40.8848 52.0293 39.3948 55.1693 M55.8011 64.2994C56.1111 66.0494 55.7911 63.0894 55.8011 64.2994 M54.8474 62.1997C56.9674 65.1697 52.5774 56.5697 54.8474 62.1997 M53.4542 58.4985C54.7542 61.4285 53.0642 56.1785 53.4542 58.4985 M58.0636 40.8564C58.2036 41.8664 58.7436 40.0264 58.0636 40.8564 M54.158 117.806C54.268 118.316 53.228 116.996 54.158 117.806 M54.7262 116.161C49.7162 112.131 64.9462 119.451 54.7262 116.161 M97.7927 142.246C96.3927 143.986 97.9427 140.216 97.7927 142.246 M31.9608 99.9777C26.8808 97.1477 31.2308 97.1277 31.9608 99.9777 M36.687 103.076C30.417 100.436 34.927 100.166 36.687 103.076 M100.538 142.124C96.6175 143.634 104.578 138.734 100.538 142.124 M108.946 147.896C107.206 148.376 108.966 146.816 108.946 147.896 M108.954 146.381C104.614 146.661 113.424 141.631 108.954 146.381 M107.547 144.87C104.177 142.55 115.777 139.55 107.547 144.87 M113.831 147.333C111.221 146.593 117.961 143.793 113.831 147.333 M30.561 93.9568C27.511 93.7368 31.741 92.2068 30.561 93.9568 M112.518 145.645C116.518 143.075 111.608 143.465 111.798 145.875 M58.3601 111.495C56.2501 111.645 58.2201 109.755 58.3601 111.495 M61.6913 113.437C60.0714 113.777 60.6413 111.277 61.6913 113.437 M118.925 147.391C124.035 143.691 115.825 146.681 117.855 148.091 M116.974 146.447C112.574 147.997 121.134 142.957 116.974 146.447 M126.976 153.103C123.576 152.503 129.776 151.233 126.976 153.103 M47.4004 98.5307C47.3004 98.3008 45.4704 96.9208 47.4004 98.5307 M52.1587 99.6346C46.8987 98.4446 52.1587 96.6946 52.1587 99.6346 M93.3419 125.617C90.2419 125.567 92.5619 123.597 93.3419 125.617 M95.3246 127.051C94.1846 127.271 95.0346 125.931 95.3246 127.051 M111.649 137.351C109.689 137.201 113.219 136.191 111.649 137.351 M24.5716 81.3775C19.7617 80.1475 29.0716 79.6375 24.5716 81.3775 M89.7057 122.434C86.8457 123.154 89.6557 119.524 89.7057 122.434 M22.788 77.2572C20.128 76.6072 25.688 76.2772 22.788 77.2572 M31.1687 81.3164C30.2887 81.6764 31.1187 80.3464 31.1687 81.3164 M33.837 81.986C31.537 81.876 33.897 79.036 33.837 81.986 M11.8191 66.7005C8.00914 65.8405 10.8191 61.0805 11.8191 66.7005 M17.0629 68.0188C12.2629 66.3988 17.1329 66.2088 17.0629 68.0188 M20.0624 69.4948C19.3824 70.3748 19.1924 68.7848 20.0624 69.4948 M38.9562 81.5946C36.8462 80.9946 39.8362 80.7846 38.9562 81.5946 M18.0696 66.1647C11.9796 65.5347 17.5696 61.9247 18.0696 66.1647 M7.30113 59.1835C6.25113 59.9235 7.15113 57.2235 7.30113 59.1835 M8.89146 57.9703C7.52146 58.2603 8.64146 55.6503 8.89146 57.9703 M17.7356 63.2533C21.4956 61.7833 10.9256 60.2132 16.9856 62.9632 M136.157 136.404C133.117 135.714 138.557 134.204 136.157 136.404 M150.469 143.821C148.049 144.181 151.429 140.971 150.469 143.821 M18.6557 58.613C15.6757 59.163 19.0557 55.863 18.6557 58.613 M24.4888 37.8402C25.8388 38.9002 27.0288 35.9502 24.4888 37.8402 M27.7151 37.8966C27.9451 34.9166 35.0951 39.4766 28.8951 38.9666 M32.1231 36.1204C32.5831 37.7904 33.7331 34.2304 32.1231 36.1204 M49.5629 32.8464C57.6829 35.9764 49.1629 24.0464 49.5629 32.8464 M16.8376 56.3463C11.4576 53.6663 21.8876 53.2463 16.8376 56.3463 M20.5682 57.3941C16.7182 56.6241 22.3382 55.5041 20.5682 57.3941 M9.54264 49.5625C6.13264 48.7225 12.4426 47.3525 9.54264 49.5625 M158.911 143.017C156.711 144.177 159.001 140.437 158.911 143.017 M143.736 132.648C141.776 132.918 144.176 129.688 143.736 132.648 M26.7375 57.0269C25.7175 58.1469 26.3875 54.9269 26.7375 57.0269 M30.1472 47.9156C28.1872 47.4456 31.5672 46.1556 30.1472 47.9156 M24.8247 12.6636C22.4547 13.5936 26.1747 10.8336 24.8247 12.6636 M29.7795 13.8574C36.0595 13.0174 28.1895 11.1474 28.5195 13.7774 " /></g></g></svg>