<svg xmlns="http://www.w3.org/2000/svg" xmlns:xlink="http://www.w3.org/1999/xlink" width="120" height="120" viewBox="0 0 120 120" fill="none"><defs><rect id="path_0" x="0" y="0" width="120" height="120" /></defs><g opacity="1" transform="translate(0 0)  rotate(0 60 60)"><mask id="bg-mask-0" fill="white"><use xlink:href="#path_0"></use></mask><g mask="url(#bg-mask-0)" ><path id="路径 1" fill-rule="evenodd" style="fill:#E44F26" transform="translate(13.706249999999997 7.5)  rotate(0 46.29375 52.5)" opacity="1" d="M46.24,105L84.15,94.49L92.59,0L0,0L8.43,94.5L46.24,105Z " /><path id="路径 2" fill-rule="evenodd" style="fill:#F1662A" transform="translate(59.99999999999999 15.22875)  rotate(0 18.922500000000003 44.619375)" opacity="1" d="M30.64,80.74L37.85,0L0,0L0,89.24L30.64,80.74Z " /><path id="分组 1" fill-rule="evenodd" style="fill:#EBEBEB" transform="translate(30.9375 26.81625)  rotate(0 14.53125 32.818125)" opacity="1" d="M29.06 0L0 0L0.28 3.11L3.12 35.05L29.06 35.05L29.06 23.46L13.73 23.46L12.67 11.59L29.06 11.59L29.06 0Z M29.0113 53.5788L16.1012 50.0888L15.2812 40.8488L3.64125 40.8488L5.26125 59.0488L29.0113 65.6387L29.0613 65.6188L29.0613 53.5588L29.0113 53.5788Z " /><path id="分组 2" fill-rule="evenodd" style="fill:#FFFFFF" transform="translate(59.95875 26.81625)  rotate(0 14.518125000000005 32.816250000000004)" opacity="1" d="M23.76 59.04L23.94 57.09L26.66 26.57L26.94 23.46L0 23.46L0 35.05L14.27 35.05L12.93 50.09L0 53.57L0 65.63L23.76 59.04Z M0 11.59L28 11.59L28.23 8.99L28.76 3.11L29.04 0L0 0L0 11.59Z " /></g></g></svg>