<svg xmlns="http://www.w3.org/2000/svg" xmlns:xlink="http://www.w3.org/1999/xlink" width="118" height="118" viewBox="0 0 118 118" fill="none"><defs><rect id="path_0" x="0" y="0" width="118" height="118" /></defs><g opacity="1" transform="translate(0 0)  rotate(0 59 59)"><mask id="bg-mask-0" fill="white"><use xlink:href="#path_0"></use></mask><g mask="url(#bg-mask-0)" ><path id="分组 1" fill-rule="evenodd" style="fill:#FFC300" transform="translate(7.3173828125 7.3173828125)  rotate(0 51.6826171875 51.6826171875)" opacity="1" d="M0 103.37L103.37 103.37L103.37 0L0 0L0 103.37Z M81.9647 66.3436C78.7947 64.8536 75.2747 63.8136 74.2247 61.4336C73.8347 60.0136 73.7747 59.2336 74.0247 58.3936C74.6747 55.6136 77.9647 54.7736 80.5447 55.5436C82.2347 56.0636 83.7747 57.3536 84.7547 59.4136C89.2047 56.5036 89.2047 56.5036 92.3147 54.5736C91.1547 52.7636 90.5747 51.9836 89.7947 51.2136C87.0847 48.1836 83.4647 46.6236 77.5847 46.7636L74.5447 47.1436C71.6347 47.8536 68.8647 49.4036 67.1847 51.4736C62.2747 57.0436 63.6947 66.7236 69.6347 70.7336C75.5147 75.1236 84.1047 76.0936 85.2147 80.2236C86.2547 85.2636 81.4747 86.8736 76.7447 86.3036C73.2547 85.5236 71.3147 83.7736 69.1847 80.5536L61.3047 85.0736C62.2047 87.1436 63.2447 88.0536 64.7947 89.8436C72.2847 97.4036 91.0247 97.0236 94.3847 85.5236C94.5147 85.1336 95.4247 82.4836 94.7147 78.4136L94.8947 78.7136C94.1447 74.0036 91.0747 70.0436 81.9647 66.3436Z M32.8838 93.1011C36.5738 95.3011 41.5238 96.0011 46.7038 94.8411C50.0838 93.8711 52.9838 91.8611 54.5038 88.7611C56.7038 84.7511 56.2338 79.8411 56.2138 74.3511C56.2538 65.5011 56.2138 56.6511 56.2138 47.7411L56.2138 47.5111L46.5338 47.5111C46.5338 55.8511 46.4938 64.1511 46.4938 72.5211C46.4938 77.8211 46.7738 82.6911 45.8938 84.1911C44.4838 87.1611 40.8138 86.7811 39.1538 86.2511C37.4538 85.4111 36.5838 84.2511 35.5838 82.5611C35.3038 82.1111 35.1138 81.7211 35.0438 81.7211L27.1838 86.5611C28.4938 89.2711 30.4138 91.6111 32.8838 93.1011Z " /></g></g></svg>