<svg xmlns="http://www.w3.org/2000/svg" xmlns:xlink="http://www.w3.org/1999/xlink" width="208" height="208" viewBox="0 0 208 208" fill="none"><defs><rect id="path_0" x="0" y="0" width="208" height="208" /></defs><g opacity="1" transform="translate(0 0)  rotate(0 104 104)"><mask id="bg-mask-0" fill="white"><use xlink:href="#path_0"></use></mask><g mask="url(#bg-mask-0)" ><g opacity="1" transform="translate(46.94966933123394 138.06090173410402)  rotate(0 53.984416056926385 19.942321625056888)"><path id="路径 1" fill-rule="evenodd" style="fill:#5382A1" transform="translate(8.32653779828667 22.73211560693643)  rotate(0 47.334490907783035 8.576263821588674)" opacity="1" d="M94.67,9.93C85.67,7.34 79.23,4.35 79.23,4.35C54.72,7.78 43.36,8.05 21.12,6.18C2.77,4.61 13.49,0 13.49,0C-29.66,8.92 39.74,27.35 94.67,9.93Z " /><path id="路径 2" fill-rule="evenodd" style="fill:#5382A1" transform="translate(0 1.7085883125792005e-14)  rotate(0 53.984416056926385 8.406851034452222)" opacity="1" d="M107.97,10.54C100.91,8.7 96.42,5.33 96.42,5.33C63.96,9.95 45.2,9.81 21.44,7.99C3.08,6.59 15.1,0 15.1,0C-32.43,11.67 41.55,24.91 107.97,10.54Z " /></g><path id="路径 3" fill-rule="evenodd" style="fill:#E76F00" transform="translate(106.22823479650445 42.63038150289017)  rotate(0 31.299727074291123 39.388046242774564)" opacity="1" d="M8.86,78.78C8.86,78.78 43.23,65.65 27.44,49.21C12.7,33.88 1.4,26.26 62.6,0C62.6,0 -33.47,17.75 12.42,56.87L12.42,56.87C25.95,68.4 8.86,78.78 8.86,78.78Z " /><path id="分组 2" fill-rule="evenodd" style="fill:#5382A1" transform="translate(2.1106468027693213 112.50232361985172)  rotate(0 103.42175600509894 42.7143524334357)" opacity="1" d="M180.45 73.6883C148.74 80.7883 48.47 82.9383 20.62 73.9683C10.61 70.7483 29.38 66.2683 35.29 65.3383C41.45 64.3483 44.97 64.5283 44.97 64.5283C33.83 58.7283 -27 75.9283 14.07 80.8483C126.07 94.2883 218.24 74.7983 189.19 65.1083C189.19 65.1083 197.12 69.9383 180.45 73.6883Z M162.246 40.86C232.566 27.19 206.706 -7.34 173.096 1.4C170.146 2.18 168.596 3.97 168.596 3.97C168.596 3.97 170.456 3.41 174.616 2.77C191.606 0.15 215.956 19.6 163.306 39.84C163.066 40.33 162.246 40.86 162.246 40.86Z M162.246 40.86C162.246 40.86 162.246 40.86 162.246 40.86C162.246 40.86 162.246 40.86 162.246 40.86Z M71.8161 2.00209C71.8161 2.00209 20.8061 10.9721 53.7461 14.2221C67.6561 15.6021 95.3861 15.2921 121.216 13.6921C142.316 12.3721 163.516 9.57209 163.516 9.57209C163.516 9.57209 156.076 11.9321 150.686 14.6521C98.8961 24.7321 -1.15385 20.0421 27.6461 9.73209C52.0061 1.02209 71.8161 2.00209 71.8161 2.00209 " /><path id="路径 7" fill-rule="evenodd" style="fill:#E76F00" transform="translate(68.80412586415814 0.22242774566473986)  rotate(0 36.17472311326604 56.953225433526)" opacity="1" d="M37.19 113.91C10.6 96.15 -8.91 80.53 4.18 65.98C10.5724 58.8755 20.7331 52.989 31.0129 47.0334C51.6252 35.0919 72.7167 22.8728 64.87 0C64.8707 0.000553937 64.8728 0.00213773 64.8762 0.00474808C65.3669 0.379127 93.5373 21.8694 37.21 54.77C1.98998 75.353 15.0236 89.0905 27.5404 102.283C31.2115 106.153 34.8383 109.975 37.19 113.91Z" /><path id="路径 8" fill-rule="evenodd" style="fill:#5382A1" transform="translate(39.422438945086704 188.1768786127168)  rotate(0 84.82621875000001 9.836687277584309)" opacity="1" d="M169.65,0C169.65,0 166.12,6.71 127.89,12.03C84.75,18.04 31.55,17.34 0,13.49C0,13.49 6.46,17.44 39.67,19.02L39.67,19.02C90.21,21.41 167.81,17.69 169.65,0Z " /></g></g></svg>