<svg xmlns="http://www.w3.org/2000/svg" xmlns:xlink="http://www.w3.org/1999/xlink" width="111" height="111" viewBox="0 0 111 111" fill="none"><defs><rect id="path_0" x="0" y="0" width="111.00000000000001" height="111.00000000000001" /></defs><g opacity="1" transform="translate(0 0)  rotate(0 55.50000000000001 55.50000000000001)"><mask id="bg-mask-0" fill="white"><use xlink:href="#path_0"></use></mask><g mask="url(#bg-mask-0)" ><path id="分组 1" fill-rule="evenodd" style="fill:#43D292" transform="translate(0 0)  rotate(0 55.50000000000001 55.50000000000001)" opacity="1" d="M0 55.5C0 86.13 24.87 111 55.5 111C86.13 111 111 86.13 111 55.5C111 24.87 86.13 0 55.5 0C24.87 0 0 24.87 0 55.5Z M52.3445 42.3169L52.3445 68.6669C52.2745 71.8769 50.4645 74.7969 47.6145 76.2969C45.9245 77.2469 44.0145 77.7469 42.0645 77.7569C36.3845 77.7569 31.7745 73.6469 31.7745 68.6669C31.7745 67.1469 32.1845 65.6569 32.9745 64.3669C34.3745 62.1869 36.5345 60.6069 39.0345 59.9269C39.2645 59.8369 39.4945 59.7869 39.7345 59.7969C40.8645 59.8069 41.9145 59.2069 42.4845 58.2269C43.0545 57.2469 43.0545 56.0369 42.4845 55.0569C41.9145 54.0869 40.8645 53.4869 39.7345 53.4869C38.8345 53.5069 37.9445 53.6569 37.0845 53.9369C33.1545 55.0569 29.7845 57.5969 27.6145 61.0569C26.2345 63.3469 25.4945 65.9569 25.4745 68.6269C25.4745 77.1469 32.9745 84.0269 42.1245 84.0269C45.1545 84.0569 48.1345 83.2869 50.7745 81.8069C55.5745 79.2169 58.5945 74.2169 58.6545 68.7569L58.6545 42.2769C58.7345 39.0669 60.5445 36.1469 63.3945 34.6469C65.0845 33.6969 66.9945 33.1969 68.9445 33.1869C74.5545 33.1869 79.1645 37.2969 79.1645 42.2769C79.1745 43.7969 78.7545 45.2869 77.9645 46.5769C76.6045 48.7969 74.4345 50.3869 71.9045 51.0169C71.6845 51.1069 71.4445 51.1569 71.2045 51.1469C69.4745 51.1569 68.0745 52.5669 68.0745 54.2969C68.0745 56.0369 69.4745 57.4469 71.2045 57.4569C72.1045 57.4369 73.0045 57.2869 73.8545 57.0069C77.7945 55.8869 81.1645 53.3469 83.3245 49.8869L83.3245 49.8869C84.7145 47.5969 85.4545 44.9869 85.4745 42.3169C85.4745 33.7969 77.9645 26.9169 68.8245 26.9169C65.8045 26.8869 62.8345 27.6969 60.2445 29.2469C55.4345 31.8469 52.4045 36.8469 52.3445 42.3169Z " /></g></g></svg>