<svg xmlns="http://www.w3.org/2000/svg" xmlns:xlink="http://www.w3.org/1999/xlink" width="115" height="115" viewBox="0 0 115 115" fill="none"><defs><rect id="path_0" x="0" y="0" width="115" height="115" /></defs><g opacity="1" transform="translate(0 0)  rotate(0 57.5 57.5)"><mask id="bg-mask-0" fill="white"><use xlink:href="#path_0"></use></mask><g mask="url(#bg-mask-0)" ><path id="分组 1" fill-rule="evenodd" style="fill:#0477C9" transform="translate(7.165771825513983 7.1888815907703325)  rotate(0 50.334478216279265 50.3122588132849)" opacity="1" d="M55.31 0.15C54.37 0.06 47.87 -0.05 47.05 0.03C46.83 0.03 46.14 0.11 45.52 0.16C31.02 1.57 17.84 9.17 9.37 21.01C4.68 27.52 1.63 35.06 0.49 42.99C0.1 45.41 -0.06 47.86 0.02 50.31C-0.06 52.76 0.09 55.22 0.47 57.64C3.29 76.63 16.62 92.38 34.88 98.29C38.34 99.39 41.9 100.13 45.5 100.5C48.71 100.67 51.93 100.67 55.14 100.5C61.46 99.88 67.61 98.08 73.27 95.2C74.14 94.76 74.3 94.64 74.19 94.54C74.07 94.44 70.42 89.53 65.99 83.55L57.95 72.69L47.88 57.76C42.33 49.56 37.77 42.86 37.73 42.86C37.69 42.86 37.65 49.47 37.63 57.57C37.89 62.6 37.82 67.64 37.42 72.66C37.25 73.06 36.94 73.37 36.55 73.56C36.24 73.72 35.96 73.75 34.48 73.75L32.78 73.75L32.32 73.46C32.04 73.29 31.81 73.04 31.66 72.74L31.46 72.3L31.47 52.58L31.51 32.85L31.81 32.47C32.01 32.23 32.26 32.03 32.53 31.87C32.93 31.67 33.09 31.65 34.79 31.65C36.8 31.65 37.13 31.73 37.66 32.3C37.81 32.46 43.27 40.68 49.8 50.58C56.33 60.49 65.25 74.01 69.65 80.65L77.61 92.72L78.01 92.45C81.85 89.9 85.33 86.85 88.35 83.37C94.69 76.12 98.8 67.19 100.19 57.66C100.58 55.23 100.73 52.77 100.65 50.31C100.73 47.86 100.58 45.41 100.19 42.99C97.38 24.01 84.05 8.26 65.79 2.35C62.38 1.26 58.87 0.53 55.31 0.15Z M62.4344 57.7872L65.5644 62.5672L68.6844 67.3472L68.7044 49.6572C68.7244 37.3372 68.7044 31.8672 68.6344 31.6072C68.4644 31.0972 68.1144 30.6772 67.6344 30.4472C67.3144 30.2672 67.0344 30.2472 65.6044 30.2472C64.0544 30.2472 63.9044 30.2672 63.5044 30.4772C63.0244 30.7372 62.6744 31.1872 62.5344 31.7172C62.4744 31.9372 62.4344 36.6072 62.4344 44.9172L62.4344 57.7872Z " /></g></g></svg>