<svg xmlns="http://www.w3.org/2000/svg" xmlns:xlink="http://www.w3.org/1999/xlink" width="204" height="204" viewBox="0 0 204 204" fill="none"><defs><rect id="path_0" x="0" y="0" width="204" height="204" /></defs><g opacity="1" transform="translate(0 0)  rotate(0 102 102)"><mask id="bg-mask-0" fill="white"><use xlink:href="#path_0"></use></mask><g mask="url(#bg-mask-0)" ><path id="路径 1" fill-rule="evenodd" style="fill:#009639" transform="translate(0.7667525773195878 -0.0007010309278350522)  rotate(0 102 101.94505670103092)" opacity="1" d="M198.04,47.13L108.02,1.47C104.28,-0.49 99.72,-0.49 96.1,1.47L6.08,47.13C2.22,48.98 0,52.48 0,56.28L0,147.71C0,149.56 0.47,151.31 1.64,152.96C2.69,154.6 4.21,155.84 6.08,156.76L96.1,202.42C99.84,204.38 104.4,204.38 108.02,202.42L198.04,156.76C201.78,154.91 204,151.41 204,147.61L204,56.28C204,52.48 201.78,48.98 198.04,47.13Z " /><path id="路径 2" fill-rule="evenodd" style="fill:#FFFFFF" transform="translate(50.80243074968984 57.00143508075799)  rotate(0 51.96432182762975 44.99470924913889)" opacity="1" d="M75.05,83.72C78.91,87.93 85.34,89.89 90.84,89.89C98.43,89.89 103.93,85.46 103.93,80.01L103.93,10.18C103.94,7.48 102.73,4.88 100.55,2.97C98.38,1.06 95.43,-0.01 92.36,0C89.28,-0.01 86.33,1.06 84.16,2.97C81.98,4.88 80.77,7.48 80.78,10.18L80.78,60.88L32.38,9.98L28.88,6.27C25.02,2.06 18.59,0.1 13.09,0.1C5.49,0.1 0,4.53 0,9.98L0,79.81C-0.01,82.51 1.2,85.11 3.38,87.02C5.55,88.93 8.5,90 11.57,89.99C14.65,90 17.6,88.93 19.77,87.02C21.94,85.11 23.16,82.51 23.15,79.81L23.15,79.81L23.15,29.21L75.05,83.72Z " /></g></g></svg>