<svg xmlns="http://www.w3.org/2000/svg" xmlns:xlink="http://www.w3.org/1999/xlink" width="182" height="182" viewBox="0 0 182 182" fill="none"><defs><rect id="path_0" x="0" y="0" width="181.3375796178344" height="181.3375796178344" /></defs><g opacity="1" transform="translate(0 0)  rotate(0 90.6687898089172 90.6687898089172)"><mask id="bg-mask-0" fill="white"><use xlink:href="#path_0"></use></mask><g mask="url(#bg-mask-0)" ><path id="路径 1" fill-rule="evenodd" style="fill:#689F63" transform="translate(72.39336186305734 100.16510592904055)  rotate(0 17.34571867535827 19.548244209046594)" opacity="1" d="M1.51,30.42L5.26,32.58C7.08,33.48 7.74,33.48 8.57,33.48C11.28,33.48 12.82,31.84 12.82,29L12.82,12.68C12.82,12.44 12.64,12.27 12.41,12.27L10.61,12.27C10.38,12.27 10.2,12.44 10.2,12.68L10.2,29C10.2,30.26 8.89,31.52 6.76,30.45L2.83,28.19C2.69,28.1 2.6,27.96 2.6,27.8L2.6,11.26C2.6,11.1 2.69,10.94 2.83,10.87L17.14,2.58C17.28,2.51 17.46,2.51 17.58,2.58L31.91,10.85C32.05,10.92 32.14,11.08 32.14,11.24L32.14,27.78C32.14,27.94 32.05,28.1 31.93,28.17L17.6,36.44C17.48,36.51 17.28,36.51 17.16,36.44L13.48,34.26C13.37,34.21 13.23,34.19 13.12,34.24C12.11,34.83 11.92,34.9 10.96,35.24C10.71,35.31 10.38,35.45 11.09,35.86L15.87,38.69C16.33,38.95 16.84,39.1 17.37,39.1C17.89,39.08 18.42,38.95 18.86,38.67L33.19,30.4C34.11,29.87 34.69,28.88 34.69,27.8L34.69,11.26C34.69,10.2 34.11,9.19 33.19,8.66L18.86,0.39C17.96,-0.13 16.75,-0.13 15.85,0.39L1.51,8.66C0.57,9.19 0,10.18 0,11.26L0,27.8C0,28.88 0.58,29.89 1.51,30.42Z " /><path id="分组 1" fill-rule="evenodd" style="fill:#689F63" transform="translate(86.6134865147293 107.77544038614651)  rotate(0 14.105017789609871 10.040860121417184)" opacity="1" d="M25.4848 2.57004C25.8748 2.57004 25.9648 2.28004 25.9648 2.13004C25.9648 1.70004 25.6748 1.70004 25.5048 1.70004L25.0048 1.70004L25.0048 2.57004L25.4848 2.57004Z M26.0004 4.3219L26.6504 4.3219C26.5604 4.1819 26.5304 3.7519 26.4904 3.5019C26.4404 3.1019 26.4004 2.8319 25.9804 2.8019C26.1904 2.7319 26.5604 2.6019 26.5604 2.0319C26.5604 1.2219 25.8504 1.2219 25.4804 1.2219L24.4204 1.2219L24.4204 4.3219L25.0004 4.3219L25.0004 3.0819L25.5504 3.0819C25.7704 3.0819 25.8404 3.1719 25.8704 3.3519C25.8704 3.3819 25.9804 4.1819 26.0004 4.3219Z M25.4451 5.0802C26.7451 5.0802 27.7651 4.0202 27.7651 2.7602C27.7651 1.4702 26.7251 0.460198 25.4451 0.460198C24.1951 0.440198 23.1251 1.4502 23.1451 2.7602C23.1451 4.0602 24.1951 5.0802 25.4451 5.0802Z M25.4449 0C23.9749 0 22.6849 1.2 22.6849 2.76C22.6849 4.3 23.9449 5.53 25.4449 5.53C26.9749 5.53 28.2149 4.29 28.2149 2.76C28.2149 1.2 26.9349 0 25.4449 0Z M7.58 20.0847C1.31 20.0847 0 17.1947 0 14.7847C0 14.5547 0.18 14.3747 0.41 14.3747L2.27 14.3747C2.48 14.3747 2.64 14.5247 2.67 14.7347C2.96 16.6147 3.79 17.5647 7.58 17.5647C10.61 17.5647 11.88 16.8747 11.88 15.2847C11.88 14.3647 11.51 13.6747 6.82 13.2147C2.89 12.8247 0.46 11.9547 0.46 8.81468C0.46 5.93468 2.9 4.21468 6.98 4.21468C11.56 4.21468 13.83 5.80468 14.13 9.22468C14.15 9.35468 14.1 9.45468 14.03 9.54468C13.95 9.63468 13.83 9.66468 13.72 9.66468L11.86 9.66468C11.67 9.66468 11.51 9.52468 11.46 9.35468C11.01 7.36468 9.93 6.72468 6.98 6.72468C3.68 6.72468 3.29 7.88468 3.29 8.73468C3.29 9.77468 3.75 10.0747 8.2 10.6647C12.61 11.2447 14.7 12.0747 14.7 15.1547C14.7 18.2747 12.1 20.0647 7.56 20.0647 " /><path id="分组 2" fill-rule="evenodd" style="fill:#757474" transform="translate(11.33359872611465 42.08253863213037)  rotate(0 79.33519108280255 30.56644957077796)" opacity="1" d="M22.72 50.0515C22.72 50.7115 23.07 51.3115 23.64 51.6515L32.67 56.8215C32.96 57.0015 33.31 57.0015 33.59 56.8215C33.88 56.6615 34.05 56.3615 34.05 56.0215L34.05 32.4715C34.05 31.8115 33.7 31.2115 33.13 30.8815L17.94 22.1315C17.69 21.9715 17.39 21.9015 17.11 21.8815L16.95 21.8815C16.66 21.9015 16.36 21.9715 16.11 22.1315L0.92 30.8815C0.35 31.2115 0 31.8115 0 32.4715L0.04 56.0215C0.04 56.3415 0.21 56.6615 0.5 56.8215C0.78 57.0015 1.13 57.0015 1.4 56.8215L10.43 51.6515C11 51.3115 11.35 50.7115 11.35 50.0515L11.35 39.0615C11.35 38.4015 11.71 37.8015 12.27 37.4615L16.11 35.2515C16.4 35.0915 16.72 35.0015 17.04 35.0015C17.35 35.0015 17.67 35.0915 17.96 35.2515L21.8 37.4615C22.37 37.7815 22.72 38.4015 22.72 39.0615L22.72 50.0515Z M105.51 45.1183C105.65 45.0483 105.74 44.8883 105.74 44.7283L105.74 38.7083C105.74 38.5483 105.65 38.4083 105.51 38.3183L100.28 35.3083C100.14 35.2183 99.9699 35.2183 99.8199 35.3083L94.5999 38.3183C94.4599 38.3883 94.3699 38.5483 94.3699 38.7083L94.3699 44.7283C94.3699 44.8883 94.4599 45.0283 94.5999 45.1183L99.8199 48.1283C99.9699 48.2183 100.14 48.2183 100.28 48.1283L105.51 45.1183Z M83.974 31.37C83.404 31.69 83.054 32.31 83.054 32.97L83.054 50.52C83.054 51.17 83.404 51.77 83.974 52.11L99.164 60.89C99.734 61.21 100.424 61.21 101.014 60.89L116.204 52.11C116.774 51.77 117.124 51.17 117.124 50.52L117.124 6.76C117.124 6.09 116.774 5.48 116.184 5.15L107.154 0.12C106.874 -0.04 106.514 -0.04 106.234 0.14C105.954 0.29 105.774 0.6 105.774 0.93L105.774 24.25C105.774 24.48 105.654 24.7 105.454 24.8C105.264 24.91 105.014 24.91 104.814 24.8L101.014 22.61C100.444 22.27 99.754 22.27 99.164 22.61L83.974 31.37Z M147.297 38.7095L147.297 43.0295C147.297 43.3395 147.477 43.6595 147.757 43.8195C148.047 43.9795 148.397 43.9795 148.687 43.8195L157.747 38.5495C158.317 38.2095 158.667 37.6095 158.667 36.9495L158.667 32.6995C158.667 32.0495 158.317 31.4395 157.747 31.1095L142.647 22.3395C142.077 22.0095 141.367 22.0095 140.797 22.3395L125.607 31.1095C125.037 31.4395 124.687 32.0495 124.687 32.6995L124.687 50.2295C124.687 50.8895 125.037 51.5095 125.607 51.8295L140.717 60.4295C141.267 60.7495 141.957 60.7495 142.517 60.4495L151.657 55.3695C151.937 55.2095 152.137 54.9095 152.137 54.5695C152.137 54.2395 151.957 53.9295 151.677 53.7795L136.397 45.0095C136.107 44.8495 135.937 44.5495 135.937 44.2095L135.937 38.7095C135.937 38.3695 136.107 38.0695 136.397 37.9095L141.157 35.1595C141.437 34.9995 141.797 34.9995 142.077 35.1595L146.837 37.9095C147.127 38.0695 147.297 38.3695 147.297 38.7095Z " /><path id="分组 3" fill-rule="evenodd" style="fill:#689F63" transform="translate(52.96686529657644 64.30046402269105)  rotate(0 51.665272317874205 19.275972208399704)" opacity="1" d="M96.9583 21.1597L99.8783 22.8397C99.9883 22.9197 100.128 22.9197 100.228 22.8397L103.158 21.1597C103.258 21.1097 103.328 20.9897 103.328 20.8597L103.328 17.4997C103.328 17.3697 103.258 17.2697 103.158 17.1997L100.228 15.5097C100.128 15.4397 99.9883 15.4397 99.8783 15.5097L96.9583 17.1997C96.8483 17.2497 96.7783 17.3697 96.7783 17.4997L96.7783 20.8597C96.7783 20.9897 96.8483 21.0897 96.9583 21.1597Z M33.1 9.08L32.94 8.98L23.04 3.26L21.46 2.36L17.82 0.25C17.66 0.16 17.5 0.11 17.34 0.05C17.2 0.02 17.05 0 16.91 0L16.73 0L16.72 0C16.68 0 16.65 0.02 16.61 0.02C16.58 0.02 16.54 0.04 16.52 0.04C16.49 0.05 16.43 0.05 16.4 0.07C16.38 0.07 16.35 0.09 16.33 0.09C16.27 0.11 16.24 0.12 16.2 0.14L16.19 0.14C16.13 0.16 16.08 0.19 16.03 0.23L4.37 6.96L0.96 8.93L0.92 8.94C0.35 9.26 0 9.86 0 10.52L0 27.98C0 28.39 0.14 28.78 0.37 29.1C0.41 29.15 0.46 29.2 0.51 29.25L0.55 29.29C0.58 29.33 0.64 29.36 0.67 29.41L0.71 29.45C0.76 29.5 0.83 29.54 0.9 29.57L14.08 37.19L16.03 38.3C16.19 38.39 16.35 38.46 16.52 38.5C16.56 38.5 16.59 38.52 16.61 38.52C16.66 38.52 16.7 38.53 16.75 38.53C16.81 38.53 16.84 38.53 16.89 38.55L16.95 38.55C17.02 38.55 17.07 38.55 17.14 38.53L17.21 38.53C17.27 38.53 17.32 38.52 17.37 38.5C17.39 38.5 17.41 38.5 17.43 38.48L17.46 38.48L17.62 38.43C17.64 38.43 17.64 38.43 17.66 38.41L17.87 38.3L32.97 29.57C33.43 29.31 33.75 28.83 33.86 28.32C33.88 28.21 33.89 28.1 33.89 28L33.89 10.54C33.86 10.06 33.68 9.62 33.36 9.3L33.33 9.26C33.31 9.24 33.29 9.23 33.26 9.21C33.22 9.17 33.17 9.14 33.13 9.1C33.12 9.08 33.12 9.08 33.1 9.08Z " /></g></g></svg>