<svg xmlns="http://www.w3.org/2000/svg" xmlns:xlink="http://www.w3.org/1999/xlink" width="141" height="141" viewBox="0 0 141 141" fill="none"><defs><rect id="path_0" x="0" y="0" width="141" height="141" /></defs><g opacity="1" transform="translate(0 0)  rotate(0 70.5 70.5)"><mask id="bg-mask-0" fill="white"><use xlink:href="#path_0"></use></mask><g mask="url(#bg-mask-0)" ><path id="分组 1" fill-rule="evenodd" style="fill:#00DC82" transform="translate(8.809464862885658 26.418892243489093)  rotate(0 61.69024600698698 41.86867887825546)" opacity="1" d="M39.44 4.2L1.11 71.18C-1.17 75.18 0.18 80.27 4.15 82.61C5.41 83.35 6.84 83.74 8.3 83.74L37.09 83.74C48.49 83.74 56.91 78.68 62.69 68.82L76.75 44.27L84.27 31.13L106.86 70.6L76.75 70.6L69.21 83.74L69.22 83.74L115.08 83.74C118.05 83.72 120.79 82.13 122.27 79.55C123.75 76.96 123.75 73.77 122.27 71.18L91.46 17.36C90 14.76 87.25 13.16 84.27 13.16C81.3 13.16 78.55 14.76 77.09 17.36L69.21 31.13L53.82 4.2C52.36 1.61 49.61 0 46.63 0C43.65 0 40.9 1.61 39.44 4.2Z M51.6165 61.8609L61.6765 44.2709L46.6465 17.9609L16.5265 70.5809L36.6165 70.5809C43.3965 70.5809 47.7665 68.2509 51.6165 61.8609Z " /></g></g></svg>