<svg xmlns="http://www.w3.org/2000/svg" xmlns:xlink="http://www.w3.org/1999/xlink" width="139" height="139" viewBox="0 0 139 139" fill="none"><defs><rect id="path_0" x="0" y="0" width="138.99999999999997" height="138.99999999999997" /><linearGradient id="linear_0" x1="12.958999999999998%" y1="12.039%" x2="79.639%" y2="78.201%" gradientUnits="objectBoundingBox"><stop offset="0" stop-color="#387EB8" stop-opacity="1" /><stop offset="1" stop-color="#366994" stop-opacity="1" /></linearGradient><linearGradient id="linear_1" x1="19.128%" y1="20.578999999999997%" x2="90.742%" y2="88.429%" gradientUnits="objectBoundingBox"><stop offset="0" stop-color="#FFE052" stop-opacity="1" /><stop offset="1" stop-color="#FFC331" stop-opacity="1" /></linearGradient></defs><g opacity="1" transform="translate(0 0)  rotate(0 69.49999999999999 69.49999999999999)"><mask id="bg-mask-0" fill="white"><use xlink:href="#path_0"></use></mask><g mask="url(#bg-mask-0)" ><path id="分组 1" fill-rule="evenodd" fill="url(#linear_0)" transform="translate(0.07873046874999784 0.31057812500000054)  rotate(0 51.41448011467538 51.731214914866506)" opacity="1" d="M35.83 15.33L35.87 31.2L69.46 31.2L69.46 35.97L22.53 35.97C22.53 35.97 0 33.41 0 69.06C0 104.72 19.66 103.46 19.66 103.46L31.39 103.46L31.39 86.91C31.39 86.91 30.76 67.17 50.74 67.17L84.06 67.17C84.06 67.17 102.78 67.48 102.78 49.01L102.78 18.48C102.78 18.48 105.62 0 68.83 0C33.63 0 35.83 15.33 35.83 15.33Z M46.0366 12.4574C44.8966 13.5874 44.2666 15.1374 44.2666 16.7474C44.2666 18.3574 44.8966 19.8974 46.0366 21.0374C47.1666 22.1774 48.7066 22.8174 50.3066 22.8074C51.9166 22.8174 53.4466 22.1774 54.5866 21.0374C55.7166 19.8974 56.3566 18.3574 56.3566 16.7474C56.3566 15.1374 55.7166 13.5874 54.5866 12.4574C53.4466 11.3174 51.9166 10.6774 50.3066 10.6774C48.7066 10.6774 47.1666 11.3174 46.0366 12.4574Z " /><path id="分组 2" fill-rule="evenodd" fill="url(#linear_1)" transform="translate(35.91424083182276 35.19568106653424)  rotate(0 51.41446747471361 51.73121499405341)" opacity="1" d="M0.05 84.99C0.05 84.99 -2.79 103.46 34 103.46L34 103.46C69.2 103.46 67 88.14 67 88.14L66.96 72.26L33.37 72.26L33.37 67.49L80.3 67.49C80.3 67.49 102.83 70.06 102.83 34.4C102.83 -1.26 83.17 0.01 83.17 0.01L71.43 0.01L71.43 16.55C71.43 16.55 72.07 36.29 52.09 36.29L18.77 36.29C18.77 36.29 0.05 35.99 0.05 54.45L0.05 84.99Z M58.5664 86.7217C58.5664 85.1117 57.9264 83.5617 56.7964 82.4317C55.6564 81.2917 54.1264 80.6517 52.5164 80.6517C50.9164 80.6517 49.3764 81.2917 48.2464 82.4317C47.1064 83.5617 46.4764 85.1117 46.4764 86.7217C46.4764 88.3317 47.1064 89.8717 48.2464 91.0117C49.3764 92.1517 50.9164 92.7917 52.5164 92.7817L52.5164 92.7817C54.1264 92.7917 55.6564 92.1517 56.7964 91.0117C57.9264 89.8717 58.5664 88.3317 58.5664 86.7217Z " /></g></g></svg>