<svg xmlns="http://www.w3.org/2000/svg" xmlns:xlink="http://www.w3.org/1999/xlink" width="199" height="199" viewBox="0 0 199 199" fill="none"><defs><rect id="path_0" x="0" y="0" width="199" height="199" /></defs><g opacity="1" transform="translate(0 0)  rotate(0 99.5 99.5)"><mask id="bg-mask-0" fill="white"><use xlink:href="#path_0"></use></mask><g mask="url(#bg-mask-0)" ><g opacity="1" transform="translate(0 0)  rotate(0 99.5 99.5)"><path id="路径 1" fill-rule="evenodd" style="fill:#242938" transform="translate(0 0)  rotate(0 99.5 99.5)" opacity="1" d="M46.65,199L152.35,199C164.72,199 176.59,194.09 185.34,185.34C194.09,176.59 199,164.72 199,152.35L199,46.65C199,20.89 178.11,0 152.35,0L46.65,0C20.89,0 0,20.89 0,46.65L0,152.35C0,164.72 4.91,176.59 13.66,185.34C22.41,194.09 34.28,199 46.65,199Z " /><path id="路径 2" fill-rule="evenodd" style="fill:#00D8FF" transform="translate(84.99865234375 85.22719140624999)  rotate(0 14.502125000000005 14.502125000000005)" opacity="1" d="M29,14.5C29,6.49 22.51,0 14.5,0C6.49,0 0,6.49 0,14.5C0,22.51 6.49,29 14.5,29C22.51,29 29,22.51 29,14.5Z " /><path  id="路径 3" style="stroke:#00D8FF; stroke-width:6.928302499999999; stroke-opacity:1; stroke-dasharray:0 0" transform="translate(21.765625 70.24311328124999)  rotate(0 77.734375 29.630400390625)" d="M77.74,59.26C96.22,59.26 113.77,56.95 127.12,52.53C144.76,46.69 155.47,37.58 155.47,29.49C155.47,21.72 145.37,13.15 128.93,7.49C115.29,2.79 97.21,0 77.74,0L77.73,0C58.07,0 39.54,2.85 25.85,7.63C9.65,13.28 0,21.78 0,29.49C0,37.42 10.28,46.65 27.35,52.48C40.84,57.1 58.79,59.26 77.74,59.26Z " /><path  id="路径 4" style="stroke:#00D8FF; stroke-width:6.928302499999999; stroke-opacity:1; stroke-dasharray:0 0" transform="translate(53.14634449255212 31.093759607715793)  rotate(0 46.29591778872281 68.74112148561612)" d="M20.68,53.98C10.86,71.01 4.08,88.49 1.37,102.73C-1.83,119.59 0.72,132.2 7.4,136.05C14.27,140.01 27.4,135.71 40.98,123.84C51.71,114.46 62.56,100 72.02,83.58C81.26,67.57 88.03,51.21 90.86,37.45C94.61,19.24 92.07,5.41 85.06,1.37C78.34,-2.51 65.86,1.96 52.75,13.37C41.87,22.84 30.41,37.11 20.69,53.98L20.68,53.98Z " /><path  id="路径 5" style="stroke:#00D8FF; stroke-width:6.928302499999999; stroke-opacity:1; stroke-dasharray:0 0" transform="translate(53.18678409073332 31.25120280730062)  rotate(0 46.420389939363524 68.69295735205908)" d="M53.27,124.55C66.27,135.74 78.47,139.83 85.13,135.97C92,131.99 94.84,118.47 91.34,100.78C88.57,86.79 81.45,70.18 71.96,53.78C62.7,37.78 51.91,23.74 41.4,14.41C27.5,2.07 14.25,-2.63 7.24,1.42C0.52,5.31 -1.84,18.35 1.5,35.41C4.27,49.56 10.92,66.62 20.67,83.47C30.52,100.48 42.28,115.09 53.27,124.55Z " /></g></g></g></svg>