<svg xmlns="http://www.w3.org/2000/svg" xmlns:xlink="http://www.w3.org/1999/xlink" width="97" height="97" viewBox="0 0 97 97" fill="none"><defs><rect id="path_0" x="0" y="0" width="97" height="97" /></defs><g opacity="1" transform="translate(0 0)  rotate(0 48.5 48.5)"><mask id="bg-mask-0" fill="white"><use xlink:href="#path_0"></use></mask><g mask="url(#bg-mask-0)" ><path id="路径 1" fill-rule="evenodd" style="fill:#CC6699" transform="translate(6.0625 6.0625)  rotate(0 42.4375 42.4375)" opacity="1" d="M0,42.44C0,65.86 19.02,84.88 42.44,84.88C65.86,84.88 84.88,65.86 84.88,42.44C84.88,19.02 65.86,0 42.44,0C19.02,0 0,19.02 0,42.44Z " /><path id="分组 1" fill-rule="evenodd" style="fill:#FFFFFF" transform="translate(21.523069414304864 16.38203572090116)  rotate(0 26.965925216674805 32.04505593890224)" opacity="1" d="M38.6 51.07C38.78 46.53 34.41 41.41 26.68 41.55C24.43 41.48 22.19 41.79 20.04 42.45C19.93 42.33 19.82 42.21 19.71 42.09C14.93 36.99 6.09 33.38 6.46 26.52C6.6 24.02 7.47 17.46 23.44 9.49C36.53 2.97 47.02 4.76 48.83 8.74C51.42 14.43 43.23 24.99 29.63 26.52C26.58 27.14 23.42 26.34 21.04 24.34C20.33 23.55 20.22 23.52 19.95 23.67C19.52 23.91 19.8 24.6 19.95 25.02C21.01 26.91 22.78 28.3 24.87 28.88C30.21 30.04 35.79 29.49 40.81 27.3C49.05 24.12 55.49 15.26 53.6 7.84C51.68 0.31 39.18 -2.16 27.35 2.03C19.94 4.52 13.1 8.44 7.21 13.58C0.7 19.67 -0.34 24.98 0.08 27.2C1.6 35.02 12.31 40.13 16.71 43.92L16.71 43.94C15.42 44.58 5.91 49.4 3.68 54.31C1.33 59.5 4.05 63.22 5.86 63.72C11.41 65.06 17.19 62.71 20.25 57.88C22.74 54.02 23.27 49.2 21.68 44.89C23.8 44.35 26.01 44.22 28.17 44.51C35.62 45.38 37.08 50.03 36.8 51.98C36.54 53.38 35.67 54.59 34.44 55.31C33.92 55.63 33.76 55.74 33.8 55.99C33.87 56.33 34.11 56.32 34.55 56.25C36.84 55.53 38.45 53.47 38.6 51.07Z M18.1586 46.4627C15.3886 47.8327 12.8586 49.6327 10.6586 51.8027C7.79856 54.8327 7.00856 58.6227 8.59856 59.5427C10.0786 60.4027 13.5186 59.3827 15.9886 56.6927C16.7786 55.8427 17.4386 54.8827 17.9486 53.8327C18.0486 53.6427 18.1386 53.4427 18.2186 53.2327C18.3086 53.0227 18.3886 52.8127 18.4586 52.5927C19.1186 50.5327 19.1486 48.3327 18.5486 46.2527L18.1586 46.4627Z " /></g></g></svg>