<svg xmlns="http://www.w3.org/2000/svg" xmlns:xlink="http://www.w3.org/1999/xlink" width="171" height="171" viewBox="0 0 171 171" fill="none"><defs><rect id="path_0" x="0" y="0" width="171" height="171" /></defs><g opacity="1" transform="translate(0 0)  rotate(0 85.5 85.5)"><mask id="bg-mask-0" fill="white"><use xlink:href="#path_0"></use></mask><g mask="url(#bg-mask-0)" ><g opacity="1" transform="translate(0.00018322395610360258 0.08482142856585606)  rotate(0 85.2360638622915 85.43758239982758)"><path id="路径 1" fill-rule="evenodd" style="fill:#8E75FF" transform="translate(54.5147503697939 0)  rotate(0 57.97868867739456 58.13694642857421)" opacity="1" d="M112.39,0L0,0L0,57.25L55.3,57.25C57.27,57.25 58.87,58.87 58.87,60.87L58.87,116.27L115.96,116.27L115.96,3.63C115.96,2.67 115.58,1.75 114.91,1.06C114.25,0.38 113.34,0 112.39,0Z " /><g opacity="0.405" transform="translate(0 5.572206798056443e-12)  rotate(0 85.23606073177196 85.43758239982479)"><path id="路径 2" fill-rule="evenodd" style="fill:#8E75FF" transform="translate(0 0)  rotate(0 27.254035341146945 28.622821428571424)" opacity="0.405" d="M0.53,54.14C0.02,54.65 -0.14,55.44 0.13,56.12C0.41,56.8 1.06,57.24 1.78,57.25L54.51,57.25L54.51,0L0.53,54.14Z " /><path id="路径 3" fill-rule="evenodd" style="fill:#8E75FF" transform="translate(113.3841722447939 116.27389285714285)  rotate(0 28.543974609375 27.35857425311588)" opacity="0.405" d="M3.04,54.2L3.04,54.19L57.09,0L0,0L0,52.9C0,53.64 0.43,54.29 1.1,54.58C1.76,54.86 2.53,54.71 3.04,54.2L3.04,54.2Z " /><path id="路径 4" fill-rule="evenodd" style="fill:#8E75FF" transform="translate(54.50807068229389 57.24564285714285)  rotate(0 29.438050781250002 29.514125)" opacity="0.405" d="M0.01,0L0.01,55.4C0.01,57.41 1.6,59.03 3.57,59.03L58.88,59.03L58.88,1.81C58.87,0.81 58.08,0 57.1,0L0,0L0.01,0Z " /></g></g></g></g></svg>