<svg xmlns="http://www.w3.org/2000/svg" xmlns:xlink="http://www.w3.org/1999/xlink" width="143" height="143" viewBox="0 0 143 143" fill="none"><defs><rect id="path_0" x="0" y="0" width="143" height="143" /></defs><g opacity="1" transform="translate(0 0)  rotate(0 71.5 71.5)"><mask id="bg-mask-0" fill="white"><use xlink:href="#path_0"></use></mask><g mask="url(#bg-mask-0)" ><g opacity="1" transform="translate(8.9375 36.196875)  rotate(0 62.5625 37.537499999999994)"><path id="路径 1" fill-rule="evenodd" style="fill:#44A8B3" transform="translate(31.28125 0)  rotate(0 46.921875 18.76875)" opacity="1" d="M21.9,15.64C34.41,18.77 37.54,37.54 62.56,37.54C79.25,37.54 89.67,29.2 93.84,12.51C87.59,20.85 80.29,23.98 71.95,21.9C59.43,18.77 56.31,0 31.28,0C14.6,0 4.17,8.34 0,25.03C6.26,16.68 13.56,13.56 21.9,15.64Z " /><path id="路径 2" fill-rule="evenodd" style="fill:#44A8B3" transform="translate(0 37.5375)  rotate(0 46.921875 18.768749999999997)" opacity="1" d="M21.9,15.64C34.41,18.77 37.54,37.54 62.56,37.54C79.25,37.54 89.67,29.2 93.84,12.51C87.59,20.85 80.29,23.98 71.95,21.9C59.43,18.77 56.31,0 31.28,0C14.6,0 4.17,8.34 0,25.03C6.26,16.68 13.56,13.56 21.9,15.64Z " /></g></g></g></svg>