<svg xmlns="http://www.w3.org/2000/svg" xmlns:xlink="http://www.w3.org/1999/xlink" width="116" height="116" viewBox="0 0 116 116" fill="none"><defs><rect id="path_0" x="0" y="0" width="116.00000000000001" height="116.00000000000001" /></defs><g opacity="1" transform="translate(0 0)  rotate(0 58.00000000000001 58.00000000000001)"><mask id="bg-mask-0" fill="white"><use xlink:href="#path_0"></use></mask><g mask="url(#bg-mask-0)" ><path id="分组 1" fill-rule="evenodd" style="fill:#00A6FF" transform="translate(10.672000000000004 10.672000000000004)  rotate(0 47.328 47.328)" opacity="1" d="M0 94.66L94.66 94.66L94.66 0L0 0L0 94.66Z M58.2668 77.6854C57.9668 77.8754 57.8868 77.9654 57.8868 78.1254C57.8868 78.4454 59.1068 80.2854 60.0568 81.4054C62.0068 83.6854 65.8968 85.6954 69.3568 86.1954C70.7168 86.3954 72.9868 86.4554 74.5668 86.3454C75.6068 86.2654 76.6568 86.0654 77.7868 85.7354C81.8668 84.5354 84.6468 81.9954 85.6768 78.5254C86.0968 77.1154 86.2668 75.3754 86.1268 73.9054C85.8468 70.8854 84.9168 68.7554 83.0868 66.9054C81.3868 65.1954 79.0568 63.8154 74.4568 61.7954C70.4668 60.0454 69.4268 59.3654 68.8468 58.1354C68.3568 57.0754 68.4468 55.6154 69.0768 54.7054C69.8068 53.6454 71.2968 53.1254 72.9568 53.3454C74.5068 53.5454 75.5068 54.1654 76.4868 55.5054C76.9968 56.2054 77.3468 56.5654 77.5168 56.5654C77.6868 56.5654 78.4068 56.1154 80.6368 54.6354C82.9168 53.1254 83.6268 52.6154 83.6768 52.4654C83.7568 52.2254 83.3968 51.6654 82.3568 50.3854C80.2568 47.8154 77.7968 46.4554 74.6368 46.1154C73.8668 46.0254 72.8368 45.9754 71.9268 45.9754L71.9268 45.9754L71.9268 45.9754C71.3768 45.9754 70.8768 45.9854 70.5068 46.0254C67.5868 46.2754 64.8568 47.5554 62.9868 49.5354C62.0468 50.5354 61.2068 51.9554 60.7868 53.2354C60.3368 54.6454 60.3368 54.6154 60.3368 56.8254C60.3468 59.6354 60.4868 60.3354 61.4468 62.2054C62.4068 64.0954 63.8768 65.6254 65.9868 66.9754C66.9168 67.5654 69.2968 68.7454 71.2368 69.5954C75.4668 71.4254 76.7968 72.2654 77.4168 73.4954L77.6768 74.0054L77.6768 75.0654C77.6768 76.0954 77.6668 76.1454 77.4668 76.5754C76.9868 77.5554 75.8568 78.3554 74.4168 78.7454C73.8768 78.8854 73.6268 78.9054 72.4068 78.9154C71.2168 78.9154 70.9268 78.8854 70.3768 78.7454C69.4268 78.5054 68.6268 78.1754 67.9968 77.7554C67.2268 77.2454 65.7168 75.7254 65.0968 74.8354C64.8268 74.4454 64.5568 74.1254 64.4968 74.1254C64.3968 74.1254 59.1768 77.1054 58.2668 77.6854Z M30.6126 53.7705L36.2326 53.7905L36.2326 69.6805C36.2326 78.4204 36.2526 85.6505 36.2826 85.7404L36.3226 85.9005L40.4026 85.9005C44.0526 85.9005 44.4926 85.8904 44.5326 85.7905C44.5526 85.7205 44.5726 78.5005 44.5726 69.7305L44.5726 53.7905L50.1826 53.7705L55.8026 53.7505L55.8026 50.1404C55.8026 47.0205 55.7826 46.5304 55.6926 46.4705C55.6426 46.4305 52.4126 46.4104 46.7826 46.4104L46.7826 46.4104L46.7826 46.4104C44.9126 46.4104 42.7626 46.4104 40.3826 46.4104C28.0426 46.4305 25.1726 46.4505 25.0926 46.5304C25.0226 46.6004 25.0026 47.3605 25.0026 50.1805L25.0026 53.7505L30.6126 53.7705Z " /></g></g></svg>