<svg xmlns="http://www.w3.org/2000/svg" xmlns:xlink="http://www.w3.org/1999/xlink" width="129" height="129" viewBox="0 0 129 129" fill="none"><defs><rect id="path_0" x="0" y="0" width="129" height="129" /></defs><g opacity="1" transform="translate(0 0)  rotate(0 64.5 64.5)"><mask id="bg-mask-0" fill="white"><use xlink:href="#path_0"></use></mask><g mask="url(#bg-mask-0)" ><path id="分组 1" fill-rule="evenodd" style="fill:#FF5733" transform="translate(2.0491678974609373 1.9515884677734374)  rotate(0 62.45083210253906 62.45083210253906)" opacity="1" d="M0 62.45C0 96.8 27.91 124.9 62.45 124.9C96.99 124.9 124.9 96.99 124.9 62.45C124.9 27.91 96.99 0 62.45 0C27.91 0 0 28.1 0 62.45Z M78.6491 34.3491C82.3591 36.4991 87.4291 35.3191 89.5791 31.4191C91.7291 27.7091 90.5491 22.6391 86.6491 20.4891C82.9391 18.3491 77.8691 19.5191 75.7191 23.4191C73.5791 27.3191 74.7491 32.1992 78.6491 34.3491Z M30.0514 62.4493C30.0514 57.9593 26.5414 54.4493 22.0514 54.4493C17.5614 54.4493 14.0514 57.9593 14.0514 62.4493C14.0514 66.9393 17.5614 70.4493 22.0514 70.4493C26.3514 70.4493 30.0514 66.9393 30.0514 62.4493Z M43.3287 91.1425L49.3787 81.1825C36.4987 72.0125 36.4987 52.8925 49.3787 43.7125L43.3287 33.7625C36.4987 38.4425 31.2287 45.4725 29.0787 53.6725C34.7387 58.1525 34.7387 66.7425 29.0787 71.2325C31.2287 79.6225 36.4987 86.6525 43.3287 91.1425Z M89.5791 93.4812C87.4291 89.5812 82.5491 88.4112 78.6491 90.5512C74.7491 92.7012 73.5791 97.5812 75.7191 101.481C77.8691 105.381 82.7491 106.561 86.6491 104.411C90.5491 102.261 91.9191 97.3812 89.5791 93.4812Z M96.7984 64.7976L85.2884 64.5976C83.9184 80.4076 67.3284 89.9676 52.8884 83.3376L47.2284 93.4776C59.3284 99.3376 70.2584 96.2176 71.6184 95.8276C72.7984 88.7976 80.2084 84.5076 86.8484 87.0376C92.5084 81.1876 96.4084 73.3776 96.7984 64.7976Z M96.9984 60.3064C96.4084 51.7164 92.6984 43.9064 86.8484 38.0564C80.2084 40.5964 72.7984 36.4964 71.6184 29.2764C70.2584 28.8864 59.3284 25.5664 47.2284 31.6164L52.8884 41.7664C67.3284 34.9364 83.9184 44.8864 85.2884 60.4964L96.9984 60.3064Z " /></g></g></svg>