<svg xmlns="http://www.w3.org/2000/svg" xmlns:xlink="http://www.w3.org/1999/xlink" width="130" height="130" viewBox="0 0 130 130" fill="none"><defs><rect id="path_0" x="0" y="0" width="130" height="130" /></defs><g opacity="1" transform="translate(0 0)  rotate(0 65 65)"><mask id="bg-mask-0" fill="white"><use xlink:href="#path_0"></use></mask><g mask="url(#bg-mask-0)" ><path id="分组 1" fill-rule="evenodd" style="fill:#FFFFFF" transform="translate(0 1.0824674490095276e-14)  rotate(0 65 64.99999999999999)" opacity="1" d="M119.17 65L107.79 26L84.5 65L107.79 104L119.17 65Z M96.9633 110.5L73.6633 71.5L27.0833 71.5L56.3333 100.21L96.9633 110.5Z M26.5717 57.9583L73.6717 57.9583L96.9617 18.9583L56.3317 29.2483C56.3317 29.2483 27.6317 57.4283 26.5717 57.9583Z M26.5417 57.9583C26.5417 57.9683 26.5517 57.9683 26.5717 57.9583L26.5417 57.9583Z M39 102.92L54.71 102.92L62.29 116.46L115.38 130L129.46 78.54L121.87 65L130 51.46L115.92 0L62.83 13.54L54.71 27.08L39 27.08L0 65L39 102.92Z " /></g></g></svg>