<svg xmlns="http://www.w3.org/2000/svg" xmlns:xlink="http://www.w3.org/1999/xlink" width="107" height="107" viewBox="0 0 107 107" fill="none"><defs><rect id="path_0" x="0" y="0" width="107" height="107" /><linearGradient id="linear_0" x1="-0.828%" y1="7.652%" x2="57.635999999999996%" y2="78.411%" gradientUnits="objectBoundingBox"><stop offset="0" stop-color="#41D1FF" stop-opacity="1" /><stop offset="1" stop-color="#BD34FE" stop-opacity="1" /></linearGradient><linearGradient id="linear_1" x1="43.376%" y1="2.242%" x2="50.316%" y2="89.03%" gradientUnits="objectBoundingBox"><stop offset="0" stop-color="#FFEA83" stop-opacity="1" /><stop offset="0.08333" stop-color="#FFDD35" stop-opacity="1" /><stop offset="1" stop-color="#FFA800" stop-opacity="1" /></linearGradient></defs><g opacity="1" transform="translate(0 0)  rotate(0 53.5 53.5)"><mask id="bg-mask-0" fill="white"><use xlink:href="#path_0"></use></mask><g mask="url(#bg-mask-0)" ><path id="路径 1" fill-rule="evenodd" fill="url(#linear_0)" transform="translate(0.013145570588699869 11.732522204458682)  rotate(0 53.49993167742667 47.4925588418793)" opacity="1" d="M103.77,0.06L54.51,9C54.19,9.06 53.86,9.06 53.54,9L3.22,0.04C0.94,-0.36 -0.78,2.07 0.37,4.07L51.63,93.61C52.68,95.45 55.34,95.44 56.38,93.59L106.65,4.06C107.77,2.05 106.04,-0.36 103.77,0.06Z " /><path id="路径 2" fill-rule="evenodd" fill="url(#linear_1)" transform="translate(36.93062114671385 -0.00004504467138240636)  rotate(0 24.53215637567132 44.54855475828189)" opacity="1" d="M10.6,62.67C10.39,63.68 11.34,64.54 12.33,64.24L18.73,62.3C19.72,62 20.67,62.87 20.46,63.88L15.57,87.46C15.27,88.93 17.24,89.73 18.06,88.47L18.61,87.63L48.92,27.37C49.42,26.36 48.55,25.21 47.44,25.43L36.78,27.48C35.78,27.67 34.92,26.74 35.21,25.76L42.16,1.74C42.45,0.76 41.59,-0.17 40.59,0.03L40.59,0.03L3.39,7.29C2.78,7.41 2.33,7.92 2.29,8.54L0,47.03C-0.02,47.46 0.16,47.88 0.48,48.15C0.81,48.43 1.25,48.54 1.67,48.44L12.03,46.06C13,45.84 13.87,46.69 13.67,47.66L10.6,62.67Z " /></g></g></svg>