<svg xmlns="http://www.w3.org/2000/svg" xmlns:xlink="http://www.w3.org/1999/xlink" width="160" height="160" viewBox="0 0 160 160" fill="none"><defs><rect id="path_0" x="0" y="0" width="160.00000000000003" height="160.00000000000003" /></defs><g opacity="1" transform="translate(0 0)  rotate(0 80.00000000000001 80.00000000000001)"><mask id="bg-mask-0" fill="white"><use xlink:href="#path_0"></use></mask><g mask="url(#bg-mask-0)" ><g opacity="1" transform="translate(0 0)  rotate(0 80.00000000000001 80.00000000000001)"><path id="路径 1" fill-rule="evenodd" style="fill:#F4F2ED" transform="translate(0 0)  rotate(0 80.00000000000001 80.00000000000001)" opacity="1" d="M37.54,160L122.46,160C143.19,160 160,143.19 160,122.46L160,37.54C160,16.81 143.19,0 122.46,0L37.54,0C16.81,0 0,16.81 0,37.54L0,122.46C0,143.19 16.81,160 37.54,160Z " /><path id="分组 2" fill-rule="evenodd" style="fill:#8ED6FB" transform="translate(26.754375 20.898125)  rotate(0 53.286875 59.10187500000001)" opacity="1" d="M85.2394 80.6781L55.3894 97.0981L55.3894 118.208L103.299 91.1081L85.2394 80.6781Z M106.573 31.4644L89.0425 41.5844L89.0425 78.0044L106.573 88.1344L106.573 31.4644Z M51.1869 118.208L51.1869 97.0981L21.3369 80.6781L3.27688 91.1081L51.1869 118.208Z M17.53 78.0044L17.53 41.5844L0 31.4644L0 88.1344L17.53 78.0044Z M19.4706 37.86L19.7106 37.72L51.1806 20.41L51.1806 1.77636e-14L2.05063 27.8L19.4706 37.86Z M55.3894 0L55.3894 20.41L86.8694 37.72L87.1094 37.86L104.519 27.8L55.3894 0Z " /><path id="分组 3" fill-rule="evenodd" style="fill:#1C78C0" transform="translate(48.490625000000016 44.94875000000001)  rotate(0 31.550625 34.1228125)" opacity="1" d="M29.45 36.9719L0 19.9719L0 52.0519L29.45 68.2419L29.45 36.9719Z M63.1031 52.0519L63.1031 19.9719L33.6531 36.9719L33.6531 68.2419L63.1031 52.0519Z M31.5537 33.33L61.1138 16.26L31.5537 0L1.99375 16.26L31.5537 33.33Z " /></g></g></g></svg>